<svg class="typst-doc" viewBox="0 0 786.2709133859267 148.96099999999998" width="786.2709133859267pt" height="148.96099999999998pt" xmlns="http://www.w3.org/2000/svg" xmlns:xlink="http://www.w3.org/1999/xlink" xmlns:h5="http://www.w3.org/1999/xhtml">
    <path class="typst-shape" fill="#00000000" fill-rule="nonzero" d="M 0 0 L 0 148.961 L 786.27094 148.961 L 786.27094 0 Z "/>
    <g>
        <g transform="translate(0 1.5500000000000003)">
            <g class="typst-group">
                <g>
                    <g transform="translate(0 0)">
                        <g class="typst-group">
                            <g>
                                <g transform="translate(192.0527066929634 15.310979172005728)">
                                    <path class="typst-shape" fill="none" stroke="#000000" stroke-width="0.744" stroke-linecap="round" stroke-linejoin="miter" stroke-miterlimit="4" d="M 0.000000000000025176711 0 L 0 112.25468 "/>
                                </g>
                                <g transform="translate(188.38621121848274 124.64396305949595)">
                                    <path class="typst-shape" fill="none" stroke="#000000" stroke-width="0.744" stroke-linecap="round" stroke-linejoin="miter" stroke-miterlimit="4" d="M 3.6664956 2.92169 C 2.9765582 1.4216586 1.6162009 0.33764195 0 0 "/>
                                </g>
                                <g transform="translate(192.05270683469567 124.64396305949595)">
                                    <path class="typst-shape" fill="none" stroke="#000000" stroke-width="0.744" stroke-linecap="round" stroke-linejoin="miter" stroke-miterlimit="4" d="M 0 2.92169 C 0.68993735 1.4216586 2.0502946 0.33764195 3.6664956 0 "/>
                                </g>
                                <g transform="translate(324.5879171560751 14.103823906220216)">
                                    <path class="typst-shape" fill="none" stroke="#000000" stroke-width="0.744" stroke-linecap="round" stroke-linejoin="miter" stroke-miterlimit="4" d="M 55.917763 0 L 0 114.68252 "/>
                                </g>
                                <g transform="translate(322.57278136565964 124.5532919318913)">
                                    <path class="typst-shape" fill="none" stroke="#000000" stroke-width="0.744" stroke-linecap="round" stroke-linejoin="miter" stroke-miterlimit="4" d="M 2.0151358 4.2330475 C 2.0524013 2.5823753 1.3047379 1.0118136 0 0 "/>
                                </g>
                                <g transform="translate(324.58791722839646 127.6080559861796)">
                                    <path class="typst-shape" fill="none" stroke="#000000" stroke-width="0.744" stroke-linecap="round" stroke-linejoin="miter" stroke-miterlimit="4" d="M 0 1.1782837 C 1.2775596 0.1323633 2.975398 -0.24580196 4.57609 0.15903582 "/>
                                </g>
                                <g transform="translate(331.76103160004976 140.52899999999997)">
                                    <path class="typst-shape" fill="none" stroke="#000000" stroke-width="0.744" stroke-linecap="round" stroke-linejoin="miter" stroke-miterlimit="4" d="M 0 0 L 107.469955 0 "/>
                                </g>
                                <g transform="translate(436.3092941776562 140.52899993700782)">
                                    <path class="typst-shape" fill="none" stroke="#000000" stroke-width="0.744" stroke-linecap="round" stroke-linejoin="miter" stroke-miterlimit="4" d="M 2.92169 0 C 1.4216586 0.68993735 0.33764195 2.0502946 0 3.6664956 "/>
                                </g>
                                <g transform="translate(436.3092941776562 136.86250432079493)">
                                    <path class="typst-shape" fill="none" stroke="#000000" stroke-width="0.744" stroke-linecap="round" stroke-linejoin="miter" stroke-miterlimit="4" d="M 2.92169 3.6664956 C 1.4216586 2.9765582 0.33764195 1.6162009 0 0 "/>
                                </g>
                                <g transform="translate(390.7190142713737 14.104744220481097)">
                                    <path class="typst-shape" fill="none" stroke="#000000" stroke-width="0.744" stroke-linecap="round" stroke-linejoin="miter" stroke-miterlimit="4" d="M 0 0 L 55.953617 114.81582 "/>
                                </g>
                                <g transform="translate(442.09675202078733 127.74160239844903)">
                                    <path class="typst-shape" fill="none" stroke="#000000" stroke-width="0.744" stroke-linecap="round" stroke-linejoin="miter" stroke-miterlimit="4" d="M 4.5758796 1.1789597 C 3.2985346 0.13277782 1.6007743 -0.24573536 0 0.15877415 "/>
                                </g>
                                <g transform="translate(446.6713255525242 124.68792891230305)">
                                    <path class="typst-shape" fill="none" stroke="#000000" stroke-width="0.744" stroke-linecap="round" stroke-linejoin="miter" stroke-miterlimit="4" d="M 0.0013059436 4.232633 C -0.035621196 2.5819538 0.71236396 1.0115459 2.017309 0 "/>
                                </g>
                                <g transform="translate(527.147672962128 11.919219319569555)">
                                    <path class="typst-shape" fill="none" stroke="#000000" stroke-width="0.744" stroke-linecap="round" stroke-linejoin="miter" stroke-miterlimit="4" d="M 49.435135 0 L 0 50.003815 "/>
                                </g>
                                <g transform="translate(526.5943835078107 57.26757173678898)">
                                    <path class="typst-shape" fill="none" stroke="#000000" stroke-width="0.744" stroke-linecap="round" stroke-linejoin="miter" stroke-miterlimit="4" d="M 0.5532895 4.6554627 C 1.1172473 3.1036706 0.9119638 1.3763828 0 0 "/>
                                </g>
                                <g transform="translate(527.1476729764279 61.58912720988317)">
                                    <path class="typst-shape" fill="none" stroke="#000000" stroke-width="0.744" stroke-linecap="round" stroke-linejoin="miter" stroke-miterlimit="4" d="M 0 0.3339073 C 1.5452405 -0.24776198 3.2747633 -0.062247273 4.6614866 0.8339148 "/>
                                </g>
                                <g transform="translate(526.8145213990277 80.60386638276985)">
                                    <path class="typst-shape" fill="none" stroke="#000000" stroke-width="0.744" stroke-linecap="round" stroke-linejoin="miter" stroke-miterlimit="4" d="M 0 0 L 49.234924 50.5438 "/>
                                </g>
                                <g transform="translate(571.3843908180432 130.80005438088114)">
                                    <path class="typst-shape" fill="none" stroke="#000000" stroke-width="0.744" stroke-linecap="round" stroke-linejoin="miter" stroke-miterlimit="4" d="M 4.665056 0.34761202 C 3.124162 -0.24547319 1.3933147 -0.072759025 0 0.81311893 "/>
                                </g>
                                <g transform="translate(575.7492256236009 126.49642610649124)">
                                    <path class="typst-shape" fill="none" stroke="#000000" stroke-width="0.744" stroke-linecap="round" stroke-linejoin="miter" stroke-miterlimit="4" d="M 0.30022147 4.6512403 C -0.2522403 3.0953188 -0.03418353 1.3695977 0.8879378 0 "/>
                                </g>
                                <g transform="translate(593.1890215106632 80.74972819303643)">
                                    <path class="typst-shape" fill="none" stroke="#000000" stroke-width="0.744" stroke-linecap="round" stroke-linejoin="miter" stroke-miterlimit="4" d="M 0 50.66112 L 49.308117 0 "/>
                                </g>
                                <g transform="translate(642.1976419690013 80.7497283149606)">
                                    <path class="typst-shape" fill="none" stroke="#000000" stroke-width="0.744" stroke-linecap="round" stroke-linejoin="miter" stroke-miterlimit="4" d="M 0.29949677 0 C -0.2523175 1.556152 -0.033542294 3.2817829 0.8891494 4.650997 "/>
                                </g>
                                <g transform="translate(637.8318871041109 80.2861631728056)">
                                    <path class="typst-shape" fill="none" stroke="#000000" stroke-width="0.744" stroke-linecap="round" stroke-linejoin="miter" stroke-miterlimit="4" d="M 4.6652517 0.46356514 C 3.1246035 1.057292 1.3936839 0.88529825 0 0 "/>
                                </g>
                                <g transform="translate(592.915924939387 11.922874893337204)">
                                    <path class="typst-shape" fill="none" stroke="#000000" stroke-width="0.744" stroke-linecap="round" stroke-linejoin="miter" stroke-miterlimit="4" d="M 0 0 L 49.508522 50.120003 "/>
                                </g>
                                <g transform="translate(637.7627538807848 61.708202842713206)">
                                    <path class="typst-shape" fill="none" stroke="#000000" stroke-width="0.744" stroke-linecap="round" stroke-linejoin="miter" stroke-miterlimit="4" d="M 4.6616945 0.33467567 C 3.1166978 -0.24764039 1.387098 -0.06284983 0 0.8327314 "/>
                                </g>
                                <g transform="translate(642.111946913554 57.387648777735926)">
                                    <path class="typst-shape" fill="none" stroke="#000000" stroke-width="0.744" stroke-linecap="round" stroke-linejoin="miter" stroke-miterlimit="4" d="M 0.3125013 4.6552296 C -0.25080675 3.1032019 -0.04480006 1.3760006 0.8677397 0 "/>
                                </g>
                                <g transform="translate(584.75093503942 15.31097916436467)">
                                    <path class="typst-shape" fill="none" stroke="#000000" stroke-width="0.744" stroke-linecap="round" stroke-linejoin="miter" stroke-miterlimit="4" d="M 0 0 L 0 112.39182 "/>
                                </g>
                                <g transform="translate(581.0844394704512 124.7811088862676)">
                                    <path class="typst-shape" fill="none" stroke="#000000" stroke-width="0.744" stroke-linecap="round" stroke-linejoin="miter" stroke-miterlimit="4" d="M 3.6664956 2.92169 C 2.9765582 1.4216586 1.6162009 0.33764195 0 0 "/>
                                </g>
                                <g transform="translate(584.7509350866641 124.7811088862676)">
                                    <path class="typst-shape" fill="none" stroke="#000000" stroke-width="0.744" stroke-linecap="round" stroke-linejoin="miter" stroke-miterlimit="4" d="M 0 2.92169 C 0.68993735 1.4216586 2.0502946 0.33764195 3.6664956 0 "/>
                                </g>
                                <g transform="translate(530.8985315319675 71.36499999999995)">
                                    <path class="typst-shape" fill="none" stroke="#000000" stroke-width="0.744" stroke-linecap="round" stroke-linejoin="miter" stroke-miterlimit="4" d="M 0 0 L 107.469955 0 "/>
                                </g>
                                <g transform="translate(635.4467943981286 71.36499999999998)">
                                    <path class="typst-shape" fill="none" stroke="#000000" stroke-width="0.744" stroke-linecap="round" stroke-linejoin="miter" stroke-miterlimit="4" d="M 2.92169 0 C 1.4216586 0.68993735 0.33764195 2.0502946 0 3.6664956 "/>
                                </g>
                                <g transform="translate(635.4467943981286 67.69850438378704)">
                                    <path class="typst-shape" fill="none" stroke="#000000" stroke-width="0.744" stroke-linecap="round" stroke-linejoin="miter" stroke-miterlimit="4" d="M 2.92169 3.6664956 C 1.4216586 2.9765582 0.33764195 1.6162009 0 0 "/>
                                </g>
                                <g transform="translate(187.98395669291338 0)">
                                    <path class="typst-shape" fill="none" d="M 0 0 L 8.1375 0 L 8.1375 7.533 L 0 7.533 L 0 0 Z "/>
                                </g>
                                <g transform="translate(187.9839566457193 -0.00000000000000313310182697367)">
                                    <g class="typst-group">
                                        <g>
                                            <g transform="translate(0 0)">
                                                <g class="typst-group">
                                                    <g>
                                                        <g transform="translate(0 0)">
                                                            <g class="typst-group">
                                                                <g>
                                                                    <g transform="translate(0.000000000049999829298746954 9.059749999999998)">
                                                                        <g class="typst-text" transform="scale(1, -1)">
                                                                            <use xlink:href="#g4FE60D8037CB3F4E63BEF6D7210182D3" x="0" fill="#000000" fill-rule="nonzero"/>
                                                                        </g>
                                                                    </g>
                                                                </g>
                                                            </g>
                                                        </g>
                                                    </g>
                                                </g>
                                            </g>
                                        </g>
                                    </g>
                                </g>
                                <g transform="translate(188.17770669291338 135.19699999999997)">
                                    <path class="typst-shape" fill="none" d="M 0 0 L 7.75 0 L 7.75 10.664 L 0 10.664 L 0 0 Z "/>
                                </g>
                                <g transform="translate(188.1777066614673 135.19699988976373)">
                                    <g class="typst-group">
                                        <g>
                                            <g transform="translate(0 0)">
                                                <g class="typst-group">
                                                    <g>
                                                        <g transform="translate(0 0)">
                                                            <g class="typst-group">
                                                                <g>
                                                                    <g transform="translate(0.000000000049999829298746954 10.625250000000001)">
                                                                        <g class="typst-text" transform="scale(1, -1)">
                                                                            <use xlink:href="#g6D78378D6970F9F5EACB108BC972B947" x="0" fill="#000000" fill-rule="nonzero"/>
                                                                        </g>
                                                                    </g>
                                                                </g>
                                                            </g>
                                                        </g>
                                                    </g>
                                                </g>
                                            </g>
                                        </g>
                                    </g>
                                </g>
                                <g transform="translate(0.0000000000000007867722221753078 0)">
                                    <path class="typst-shape" fill="none" d="M 0 0 L 8.1375 0 L 8.1375 7.533 L 0 7.533 L 0 0 Z "/>
                                </g>
                                <g transform="translate(-0.00000004719409364443841 -0.00000000000000313310182697367)">
                                    <g class="typst-group">
                                        <g>
                                            <g transform="translate(0 0)">
                                                <g class="typst-group">
                                                    <g>
                                                        <g transform="translate(0 0)">
                                                            <g class="typst-group">
                                                                <g>
                                                                    <g transform="translate(0.000000000049999829298746954 9.059749999999998)">
                                                                        <g class="typst-text" transform="scale(1, -1)">
                                                                            <use xlink:href="#g4FE60D8037CB3F4E63BEF6D7210182D3" x="0" fill="#000000" fill-rule="nonzero"/>
                                                                        </g>
                                                                    </g>
                                                                </g>
                                                            </g>
                                                        </g>
                                                    </g>
                                                </g>
                                            </g>
                                        </g>
                                    </g>
                                </g>
                                <g transform="translate(381.5446850393701 0)">
                                    <path class="typst-shape" fill="none" d="M 0 0 L 8.1375 0 L 8.1375 7.533 L 0 7.533 L 0 0 Z "/>
                                </g>
                                <g transform="translate(381.54468499217603 -0.00000000000000313310182697367)">
                                    <g class="typst-group">
                                        <g>
                                            <g transform="translate(0 0)">
                                                <g class="typst-group">
                                                    <g>
                                                        <g transform="translate(0 0)">
                                                            <g class="typst-group">
                                                                <g>
                                                                    <g transform="translate(0.000000000049999829298746954 9.059749999999998)">
                                                                        <g class="typst-text" transform="scale(1, -1)">
                                                                            <use xlink:href="#g4FE60D8037CB3F4E63BEF6D7210182D3" x="0" fill="#000000" fill-rule="nonzero"/>
                                                                        </g>
                                                                    </g>
                                                                </g>
                                                            </g>
                                                        </g>
                                                    </g>
                                                </g>
                                            </g>
                                        </g>
                                    </g>
                                </g>
                                <g transform="translate(315.2946850393701 135.19699999999997)">
                                    <path class="typst-shape" fill="none" d="M 0 0 L 7.75 0 L 7.75 10.664 L 0 10.664 L 0 0 Z "/>
                                </g>
                                <g transform="translate(315.29468500792404 135.19699988976373)">
                                    <g class="typst-group">
                                        <g>
                                            <g transform="translate(0 0)">
                                                <g class="typst-group">
                                                    <g>
                                                        <g transform="translate(0 0)">
                                                            <g class="typst-group">
                                                                <g>
                                                                    <g transform="translate(0.000000000049999829298746954 10.625250000000001)">
                                                                        <g class="typst-text" transform="scale(1, -1)">
                                                                            <use xlink:href="#g6D78378D6970F9F5EACB108BC972B947" x="0" fill="#000000" fill-rule="nonzero"/>
                                                                        </g>
                                                                    </g>
                                                                </g>
                                                            </g>
                                                        </g>
                                                    </g>
                                                </g>
                                            </g>
                                        </g>
                                    </g>
                                </g>
                                <g transform="translate(448.18218503937 135.3675)">
                                    <path class="typst-shape" fill="none" d="M 0 0 L 7.75 0 L 7.75 10.323 L 0 10.323 L 0 0 Z "/>
                                </g>
                                <g transform="translate(448.1821850079239 135.36749999999998)">
                                    <g class="typst-group">
                                        <g>
                                            <g transform="translate(0 0)">
                                                <g class="typst-group">
                                                    <g>
                                                        <g transform="translate(0 0)">
                                                            <g class="typst-group">
                                                                <g>
                                                                    <g transform="translate(0.000000000049999829298746954 10.454749999999999)">
                                                                        <g class="typst-text" transform="scale(1, -1)">
                                                                            <use xlink:href="#g658FA4C251AA3390858323F925226FD5" x="0" fill="#000000" fill-rule="nonzero"/>
                                                                        </g>
                                                                    </g>
                                                                </g>
                                                            </g>
                                                        </g>
                                                    </g>
                                                </g>
                                            </g>
                                        </g>
                                    </g>
                                </g>
                                <g transform="translate(774.2429133858267 1.4182499999999956)">
                                    <path class="typst-shape" fill="none" d="M 0 0 L 12.028 0 L 12.028 4.6965 L 0 4.6965 L 0 0 Z "/>
                                </g>
                                <g transform="translate(774.2429132598925 1.4182499055118085)">
                                    <g class="typst-group">
                                        <g>
                                            <g transform="translate(0 0)">
                                                <g class="typst-group">
                                                    <g>
                                                        <g transform="translate(0 0)">
                                                            <g class="typst-group">
                                                                <g>
                                                                    <g transform="translate(0.000000000049999829298746954 7.6415)">
                                                                        <g class="typst-text" transform="scale(1, -1)">
                                                                            <use xlink:href="#gCB4EA87B3775562945B18D2052E7C375" x="0" fill="#000000" fill-rule="nonzero"/>
                                                                        </g>
                                                                    </g>
                                                                </g>
                                                            </g>
                                                        </g>
                                                    </g>
                                                </g>
                                            </g>
                                        </g>
                                    </g>
                                </g>
                                <g transform="translate(580.68218503937 0)">
                                    <path class="typst-shape" fill="none" d="M 0 0 L 8.1375 0 L 8.1375 7.533 L 0 7.533 L 0 0 Z "/>
                                </g>
                                <g transform="translate(580.6821849921758 -0.00000000000000313310182697367)">
                                    <g class="typst-group">
                                        <g>
                                            <g transform="translate(0 0)">
                                                <g class="typst-group">
                                                    <g>
                                                        <g transform="translate(0 0)">
                                                            <g class="typst-group">
                                                                <g>
                                                                    <g transform="translate(0.000000000049999829298746954 9.059749999999998)">
                                                                        <g class="typst-text" transform="scale(1, -1)">
                                                                            <use xlink:href="#g4FE60D8037CB3F4E63BEF6D7210182D3" x="0" fill="#000000" fill-rule="nonzero"/>
                                                                        </g>
                                                                    </g>
                                                                </g>
                                                            </g>
                                                        </g>
                                                    </g>
                                                </g>
                                            </g>
                                        </g>
                                    </g>
                                </g>
                                <g transform="translate(514.43218503937 66.03299999999997)">
                                    <path class="typst-shape" fill="none" d="M 0 0 L 7.75 0 L 7.75 10.664 L 0 10.664 L 0 0 Z "/>
                                </g>
                                <g transform="translate(514.432185007924 66.03299988976374)">
                                    <g class="typst-group">
                                        <g>
                                            <g transform="translate(0 0)">
                                                <g class="typst-group">
                                                    <g>
                                                        <g transform="translate(0 0)">
                                                            <g class="typst-group">
                                                                <g>
                                                                    <g transform="translate(0.000000000049999829298746954 10.625250000000001)">
                                                                        <g class="typst-text" transform="scale(1, -1)">
                                                                            <use xlink:href="#g6D78378D6970F9F5EACB108BC972B947" x="0" fill="#000000" fill-rule="nonzero"/>
                                                                        </g>
                                                                    </g>
                                                                </g>
                                                            </g>
                                                        </g>
                                                    </g>
                                                </g>
                                            </g>
                                        </g>
                                    </g>
                                </g>
                                <g transform="translate(580.87593503937 135.3675)">
                                    <path class="typst-shape" fill="none" d="M 0 0 L 7.75 0 L 7.75 10.323 L 0 10.323 L 0 0 Z "/>
                                </g>
                                <g transform="translate(580.8759350079239 135.36749999999998)">
                                    <g class="typst-group">
                                        <g>
                                            <g transform="translate(0 0)">
                                                <g class="typst-group">
                                                    <g>
                                                        <g transform="translate(0 0)">
                                                            <g class="typst-group">
                                                                <g>
                                                                    <g transform="translate(0.000000000049999829298746954 10.454749999999999)">
                                                                        <g class="typst-text" transform="scale(1, -1)">
                                                                            <use xlink:href="#g658FA4C251AA3390858323F925226FD5" x="0" fill="#000000" fill-rule="nonzero"/>
                                                                        </g>
                                                                    </g>
                                                                </g>
                                                            </g>
                                                        </g>
                                                    </g>
                                                </g>
                                            </g>
                                        </g>
                                    </g>
                                </g>
                                <g transform="translate(647.31968503937 66.20349999999998)">
                                    <path class="typst-shape" fill="none" d="M 0 0 L 7.75 0 L 7.75 10.323 L 0 10.323 L 0 0 Z "/>
                                </g>
                                <g transform="translate(647.319685007924 66.20349999999996)">
                                    <g class="typst-group">
                                        <g>
                                            <g transform="translate(0 0)">
                                                <g class="typst-group">
                                                    <g>
                                                        <g transform="translate(0 0)">
                                                            <g class="typst-group">
                                                                <g>
                                                                    <g transform="translate(0.000000000049999829298746954 10.454749999999999)">
                                                                        <g class="typst-text" transform="scale(1, -1)">
                                                                            <use xlink:href="#g26938B450996317793E32DC366EA5DCA" x="0" fill="#000000" fill-rule="nonzero"/>
                                                                        </g>
                                                                    </g>
                                                                </g>
                                                            </g>
                                                        </g>
                                                    </g>
                                                </g>
                                            </g>
                                        </g>
                                    </g>
                                </g>
                            </g>
                        </g>
                    </g>
                </g>
            </g>
        </g>
    </g>
    <defs id="glyph">
        <symbol id="g4FE60D8037CB3F4E63BEF6D7210182D3" overflow="visible">
            <path d="M 7.626 4.557 C 7.6879997 4.588 7.719 4.6345 7.719 4.6809998 C 7.719 4.805 7.657 4.867 7.533 4.867 L 4.495 4.3554997 L 4.0455 7.3935 C 4.0145 7.4865 3.9524999 7.533 3.875 7.533 C 3.7975 7.533 3.7354999 7.4865 3.7045 7.3935 L 3.2549999 4.3554997 L 0.217 4.867 C 0.092999995 4.867 0.031 4.805 0.031 4.6809998 C 0.031 4.6345 0.062 4.588 0.124 4.557 L 2.883 3.1775 L 1.457 0.465 C 1.364 0.32549998 1.581 0.124 1.7205 0.2635 L 3.875 2.449 L 6.0295 0.2635 C 6.1689997 0.124 6.3705 0.32549998 6.2929997 0.465 L 4.867 3.1775 Z "/>
        </symbol>
        <symbol id="g6D78378D6970F9F5EACB108BC972B947" overflow="visible">
            <path d="M 3.8595 -0.341 C 6.045 -0.341 7.13 1.426 7.13 4.96 C 7.13 7.3315 6.634 8.912499 5.6575 9.6875 C 5.115 10.106 4.5105 10.323 3.875 10.323 C 1.6895 10.323 0.6045 8.5405 0.6045 4.96 C 0.6045 2.108 1.364 -0.341 3.8595 -0.341 Z M 5.5955 8.122 C 5.704 7.5794997 5.7504997 6.5875 5.7504997 5.146 C 5.7504997 3.72 5.6885 2.666 5.58 1.984 C 5.3785 0.74399996 4.805 0.124 3.8595 0.124 C 3.503 0.124 3.1464999 0.2635 2.8209999 0.527 C 2.4025 0.8835 2.1545 1.612 2.046 2.728 C 1.9994999 3.1155 1.984 3.9215 1.984 5.146 C 1.984 6.4944997 2.0305 7.44 2.108 7.9515 C 2.2475 8.804 2.5265 9.346499 2.9605 9.5789995 C 3.3014998 9.764999 3.596 9.858 3.8595 9.858 C 4.867 9.858 5.4249997 9.0365 5.5955 8.122 Z "/>
        </symbol>
        <symbol id="g658FA4C251AA3390858323F925226FD5" overflow="visible">
            <path d="M 4.1695 10.323 C 3.534 9.672 2.6039999 9.346499 1.3795 9.346499 L 1.3795 8.742 C 2.1855 8.742 2.852 8.866 3.3634999 9.114 L 3.3634999 1.271 C 3.3634999 0.992 3.3014998 0.806 3.162 0.7285 C 3.0225 0.65099996 2.635 0.6045 2.0149999 0.6045 L 1.4725 0.6045 L 1.4725 0 C 1.86 0.031 2.697 0.046499997 3.9835 0.046499997 C 5.27 0.046499997 6.107 0.031 6.4944997 0 L 6.4944997 0.6045 L 5.9519997 0.6045 C 5.3164997 0.6045 4.929 0.65099996 4.805 0.7285 C 4.6809998 0.806 4.6035 0.992 4.6035 1.271 L 4.6035 9.858 C 4.6035 10.23 4.5724998 10.323 4.1695 10.323 Z "/>
        </symbol>
        <symbol id="gCB4EA87B3775562945B18D2052E7C375" overflow="visible">
            <path d="M 11.16 3.875 C 11.16 4.34 10.757 4.6965 10.292 4.6965 C 9.8115 4.6965 9.4085 4.34 9.4085 3.875 C 9.4085 3.4099998 9.8115 3.0535 10.292 3.0535 C 10.757 3.0535 11.16 3.4099998 11.16 3.875 Z M 6.882 3.875 C 6.882 4.34 6.479 4.6965 6.014 4.6965 C 5.5334997 4.6965 5.146 4.34 5.146 3.875 C 5.146 3.4099998 5.5334997 3.0535 6.014 3.0535 C 6.479 3.0535 6.882 3.4099998 6.882 3.875 Z M 2.6195 3.875 C 2.6195 4.34 2.2165 4.6965 1.736 4.6965 C 1.271 4.6965 0.868 4.34 0.868 3.875 C 0.868 3.4099998 1.271 3.0535 1.736 3.0535 C 2.201 3.0535 2.6195 3.4099998 2.6195 3.875 Z "/>
        </symbol>
        <symbol id="g26938B450996317793E32DC366EA5DCA" overflow="visible">
            <path d="M 3.6734998 10.323 C 2.883 10.323 2.2165 10.044 1.643 9.486 C 1.0695 8.9279995 0.775 8.276999 0.775 7.4865 C 0.775 6.9595 1.1625 6.572 1.643 6.572 C 2.108 6.572 2.4954998 6.975 2.4954998 7.44 C 2.4954998 7.9515 2.1234999 8.308 1.6274999 8.308 C 1.581 8.308 1.55 8.308 1.5189999 8.2925 C 1.8134999 9.052 2.4954998 9.7185 3.472 9.7185 C 4.743 9.7185 5.456 8.618 5.456 7.285 C 5.456 6.2465 4.929 5.1305 3.875 3.9524999 L 0.96099997 0.6665 C 0.75949997 0.434 0.775 0.4495 0.775 0 L 6.5255 0 L 6.975 2.79 L 6.4635 2.79 C 6.3395 1.9994999 6.231 1.55 6.138 1.4104999 C 6.0604997 1.333 5.5955 1.3019999 4.743 1.3019999 L 2.1545 1.3019999 L 3.658 2.7745 C 4.712 3.7665 6.045 4.836 6.4944997 5.6575 C 6.8045 6.2 6.9595 6.7425 6.9595 7.285 C 6.9595 9.114 5.5334997 10.323 3.6734998 10.323 Z "/>
        </symbol>
    </defs>
</svg>
