<svg class="typst-doc" viewBox="0 0 211.4886888889889 156.1561" width="211.4886888889889pt" height="156.1561pt" xmlns="http://www.w3.org/2000/svg" xmlns:xlink="http://www.w3.org/1999/xlink" xmlns:h5="http://www.w3.org/1999/xhtml">
    <path class="typst-shape" fill="#00000000" fill-rule="nonzero" d="M 0 0 L 0 156.1561 L 211.4887 156.1561 L 211.4887 0 Z "/>
    <g>
        <g transform="translate(0 1.5500000000000003)">
            <g class="typst-group">
                <g>
                    <g transform="translate(0 0)">
                        <g class="typst-group">
                            <g>
                                <g transform="translate(17.627249407687273 20.47854986614174)">
                                    <path class="typst-shape" fill="none" stroke="#000000" stroke-width="0.744" stroke-linecap="round" stroke-linejoin="miter" stroke-miterlimit="4" d="M 60.768574 0 L 0 48.9611 "/>
                                </g>
                                <g transform="translate(17.602021587524284 64.75149610720139)">
                                    <path class="typst-shape" fill="none" stroke="#000000" stroke-width="0.744" stroke-linecap="round" stroke-linejoin="miter" stroke-miterlimit="4" d="M 0.025227988 4.6881566 C 0.7604374 3.2097883 0.75107723 1.4703703 0 0 "/>
                                </g>
                                <g transform="translate(17.62724957485315 69.28139533696836)">
                                    <path class="typst-shape" fill="none" stroke="#000000" stroke-width="0.744" stroke-linecap="round" stroke-linejoin="miter" stroke-miterlimit="4" d="M 0 0.15825745 C 1.600938 -0.24560314 3.298545 0.13359818 4.575465 1.1802977 "/>
                                </g>
                                <g transform="translate(22.938689658526336 19.632858272113825)">
                                    <path class="typst-shape" fill="none" d="M 0 0 L 21.03815 0 L 21.03815 20.615 L 0 20.615 L 0 0 Z "/>
                                </g>
                                <g transform="translate(22.938689524668064 19.63285825636578)">
                                    <g class="typst-group">
                                        <g>
                                            <g transform="translate(0 0)">
                                                <g class="typst-group">
                                                    <g>
                                                        <g transform="translate(0 0)">
                                                            <g class="typst-group">
                                                                <g>
                                                                    <g transform="translate(0 0)">
                                                                        <g class="typst-group">
                                                                            <g>
                                                                                <g transform="translate(3.1000000000000005 13.6865)">
                                                                                    <g class="typst-text" transform="scale(1, -1)">
                                                                                        <use xlink:href="#g8B95F3F5905FC299AE273E135B870792" x="0" fill="#000000" fill-rule="nonzero"/>
                                                                                    </g>
                                                                                </g>
                                                                                <g transform="translate(10.896500000000001 17.514999999999997)">
                                                                                    <g class="typst-text" transform="scale(1, -1)">
                                                                                        <use xlink:href="#g5545A3563E5A9533E1C618829BF9829A" x="0" fill="#000000" fill-rule="nonzero"/>
                                                                                    </g>
                                                                                </g>
                                                                            </g>
                                                                        </g>
                                                                    </g>
                                                                </g>
                                                            </g>
                                                        </g>
                                                    </g>
                                                </g>
                                            </g>
                                        </g>
                                    </g>
                                </g>
                                <g transform="translate(17.76505761133859 86.73566737600933)">
                                    <path class="typst-shape" fill="none" stroke="#000000" stroke-width="0.744" stroke-linecap="round" stroke-linejoin="miter" stroke-miterlimit="4" d="M 0 0 L 70.22404 51.12156 "/>
                                </g>
                                <g transform="translate(83.46911773169067 137.75524477357607)">
                                    <path class="typst-shape" fill="none" stroke="#000000" stroke-width="0.744" stroke-linecap="round" stroke-linejoin="miter" stroke-miterlimit="4" d="M 4.519978 0.101981685 C 2.9011972 -0.22306351 1.2241775 0.23874514 0 1.3466688 "/>
                                </g>
                                <g transform="translate(87.32521991916072 133.17345081995236)">
                                    <path class="typst-shape" fill="none" stroke="#000000" stroke-width="0.744" stroke-linecap="round" stroke-linejoin="miter" stroke-miterlimit="4" d="M 0.66387576 4.6837754 C -0.14278756 3.2431507 -0.21854588 1.5053583 0.45968854 0 "/>
                                </g>
                                <g transform="translate(34.82397444540621 117.4183976354506)">
                                    <path class="typst-shape" fill="none" d="M 0 0 L 14.5545 0 L 14.5545 16.9725 L 0 16.9725 L 0 0 Z "/>
                                </g>
                                <g transform="translate(34.823974398162115 117.41839754096243)">
                                    <g class="typst-group">
                                        <g>
                                            <g transform="translate(0 0)">
                                                <g class="typst-group">
                                                    <g>
                                                        <g transform="translate(0 0)">
                                                            <g class="typst-group">
                                                                <g>
                                                                    <g transform="translate(0 0)">
                                                                        <g class="typst-group">
                                                                            <g>
                                                                                <g transform="translate(3.1000000000000005 13.6865)">
                                                                                    <g class="typst-text" transform="scale(1, -1)">
                                                                                        <use xlink:href="#gC28863C1FC61B6EF4DE11C9209D343A6" x="0" fill="#000000" fill-rule="nonzero"/>
                                                                                    </g>
                                                                                </g>
                                                                            </g>
                                                                        </g>
                                                                    </g>
                                                                </g>
                                                            </g>
                                                        </g>
                                                    </g>
                                                </g>
                                            </g>
                                        </g>
                                    </g>
                                </g>
                                <g transform="translate(127.26704372946944 20.47854986614174)">
                                    <path class="typst-shape" fill="none" stroke="#000000" stroke-width="0.744" stroke-linecap="round" stroke-linejoin="miter" stroke-miterlimit="4" d="M 0 0 L 59.282883 46.68332 "/>
                                </g>
                                <g transform="translate(181.98614608572714 67.01750166570929)">
                                    <path class="typst-shape" fill="none" stroke="#000000" stroke-width="0.744" stroke-linecap="round" stroke-linejoin="miter" stroke-miterlimit="4" d="M 4.5637813 0.14436564 C 2.9584386 -0.24161401 1.2651669 0.15649766 0 1.217374 "/>
                                </g>
                                <g transform="translate(185.9789532641159 62.473721159398266)">
                                    <path class="typst-shape" fill="none" stroke="#000000" stroke-width="0.744" stroke-linecap="round" stroke-linejoin="miter" stroke-miterlimit="4" d="M 0.5709741 4.688146 C -0.18067823 3.2180698 -0.19071893 1.4786558 0.543912 0 "/>
                                </g>
                                <g transform="translate(160.89038649604433 18.44925861062675)">
                                    <path class="typst-shape" fill="none" d="M 0 0 L 21.03815 0 L 21.03815 20.615 L 0 20.615 L 0 0 Z "/>
                                </g>
                                <g transform="translate(160.89038636218604 18.44925859487871)">
                                    <g class="typst-group">
                                        <g>
                                            <g transform="translate(0 0)">
                                                <g class="typst-group">
                                                    <g>
                                                        <g transform="translate(0 0)">
                                                            <g class="typst-group">
                                                                <g>
                                                                    <g transform="translate(0 0)">
                                                                        <g class="typst-group">
                                                                            <g>
                                                                                <g transform="translate(3.1000000000000005 13.6865)">
                                                                                    <g class="typst-text" transform="scale(1, -1)">
                                                                                        <use xlink:href="#g8B95F3F5905FC299AE273E135B870792" x="0" fill="#000000" fill-rule="nonzero"/>
                                                                                    </g>
                                                                                </g>
                                                                                <g transform="translate(10.896500000000001 17.514999999999997)">
                                                                                    <g class="typst-text" transform="scale(1, -1)">
                                                                                        <use xlink:href="#g7A6D401AF3402FD5A6150F55A524FABD" x="0" fill="#000000" fill-rule="nonzero"/>
                                                                                    </g>
                                                                                </g>
                                                                            </g>
                                                                        </g>
                                                                    </g>
                                                                </g>
                                                            </g>
                                                        </g>
                                                    </g>
                                                </g>
                                            </g>
                                        </g>
                                    </g>
                                </g>
                                <g transform="translate(117.20885702691952 88.48815266005822)">
                                    <path class="typst-shape" fill="none" stroke="#000000" stroke-width="0.744" stroke-linecap="round" stroke-linejoin="miter" stroke-miterlimit="4" d="M 69.63333 0 L 0 49.59033 "/>
                                </g>
                                <g transform="translate(117.20885707091615 133.39708295123054)">
                                    <path class="typst-shape" fill="none" stroke="#000000" stroke-width="0.744" stroke-linecap="round" stroke-linejoin="miter" stroke-miterlimit="4" d="M 0 4.6813965 C 0.82162297 3.2492504 0.9154752 1.5123405 0.25295463 0 "/>
                                </g>
                                <g transform="translate(117.20885707091615 137.9868989667926)">
                                    <path class="typst-shape" fill="none" stroke="#000000" stroke-width="0.744" stroke-linecap="round" stroke-linejoin="miter" stroke-miterlimit="4" d="M 0 0.09158065 C 1.6220787 -0.21658847 3.2941985 0.26266035 4.5067716 1.3832734 "/>
                                </g>
                                <g transform="translate(155.4705934621159 118.44142489168182)">
                                    <path class="typst-shape" fill="none" d="M 0 0 L 15.4225 0 L 15.4225 16.957 L 0 16.957 L 0 0 Z "/>
                                </g>
                                <g transform="translate(155.47059343061983 118.44142486018578)">
                                    <g class="typst-group">
                                        <g>
                                            <g transform="translate(0 0)">
                                                <g class="typst-group">
                                                    <g>
                                                        <g transform="translate(0 0)">
                                                            <g class="typst-group">
                                                                <g>
                                                                    <g transform="translate(0 0)">
                                                                        <g class="typst-group">
                                                                            <g>
                                                                                <g transform="translate(3.1000000000000005 13.6865)">
                                                                                    <g class="typst-text" transform="scale(1, -1)">
                                                                                        <use xlink:href="#gCEA86DEC70B2D3DCAFC2C502F9C69EFA" x="0" fill="#000000" fill-rule="nonzero"/>
                                                                                    </g>
                                                                                </g>
                                                                            </g>
                                                                        </g>
                                                                    </g>
                                                                </g>
                                                            </g>
                                                        </g>
                                                    </g>
                                                </g>
                                            </g>
                                        </g>
                                    </g>
                                </g>
                                <g transform="translate(70.85350000000001 0)">
                                    <path class="typst-shape" fill="none" d="M 0 0 L 63.48869 0 L 63.48869 14.47855 L 0 14.47855 L 0 0 Z "/>
                                </g>
                                <g transform="translate(70.85349997205353 -0.000000007874008566775913)">
                                    <g class="typst-group">
                                        <g>
                                            <g transform="translate(0 0)">
                                                <g class="typst-group">
                                                    <g>
                                                        <g transform="translate(0 0)">
                                                            <g class="typst-group">
                                                                <g>
                                                                    <g transform="translate(0.00000000005000430515849977 12.532525)">
                                                                        <g class="typst-text" transform="scale(1, -1)">
                                                                            <use xlink:href="#gFD91466B5836F321C6C305673CB4C023" x="0" fill="#000000" fill-rule="nonzero"/>
                                                                        </g>
                                                                    </g>
                                                                    <g transform="translate(15.797944444494448 12.532525)">
                                                                        <g class="typst-text" transform="scale(1, -1)">
                                                                            <use xlink:href="#g36533A8C8825F612AA3C6EC3E1BF1E4D" x="0" fill="#000000" fill-rule="nonzero"/>
                                                                        </g>
                                                                    </g>
                                                                    <g transform="translate(27.856944444494445 16.361025)">
                                                                        <g class="typst-text" transform="scale(1, -1)">
                                                                            <use xlink:href="#gC2D320D7944184F044EABA5A4CE070E8" x="0" fill="#000000" fill-rule="nonzero"/>
                                                                        </g>
                                                                    </g>
                                                                    <g transform="translate(44.84218888893889 12.532525)">
                                                                        <g class="typst-text" transform="scale(1, -1)">
                                                                            <use xlink:href="#gFD91466B5836F321C6C305673CB4C023" x="0" fill="#000000" fill-rule="nonzero"/>
                                                                        </g>
                                                                    </g>
                                                                    <g transform="translate(57.195688888938896 6.9060250000000005)">
                                                                        <g class="typst-text" transform="scale(1, -1)">
                                                                            <use xlink:href="#g8640825C91E48A14F98F75D33F23DF85" x="0" fill="#000000" fill-rule="nonzero"/>
                                                                        </g>
                                                                    </g>
                                                                </g>
                                                            </g>
                                                        </g>
                                                    </g>
                                                </g>
                                            </g>
                                        </g>
                                    </g>
                                </g>
                                <g transform="translate(0.0000000000000007867722221753078 73.01032500000001)">
                                    <path class="typst-shape" fill="none" d="M 0 0 L 12.3535 0 L 12.3535 10.9275 L 0 10.9275 L 0 0 Z "/>
                                </g>
                                <g transform="translate(-0.000000031446063083307324 73.01032495275594)">
                                    <g class="typst-group">
                                        <g>
                                            <g transform="translate(0 0)">
                                                <g class="typst-group">
                                                    <g>
                                                        <g transform="translate(0 0)">
                                                            <g class="typst-group">
                                                                <g>
                                                                    <g transform="translate(0.000000000049999829298746954 10.757000000000001)">
                                                                        <g class="typst-text" transform="scale(1, -1)">
                                                                            <use xlink:href="#gFD91466B5836F321C6C305673CB4C023" x="0" fill="#000000" fill-rule="nonzero"/>
                                                                        </g>
                                                                    </g>
                                                                </g>
                                                            </g>
                                                        </g>
                                                    </g>
                                                </g>
                                            </g>
                                        </g>
                                    </g>
                                </g>
                                <g transform="translate(192.8421888888889 72.97855000000001)">
                                    <path class="typst-shape" fill="none" d="M 0 0 L 18.6465 0 L 18.6465 10.99105 L 0 10.99105 L 0 0 Z "/>
                                </g>
                                <g transform="translate(192.8421887944507 72.978549992126)">
                                    <g class="typst-group">
                                        <g>
                                            <g transform="translate(0 0)">
                                                <g class="typst-group">
                                                    <g>
                                                        <g transform="translate(0 0)">
                                                            <g class="typst-group">
                                                                <g>
                                                                    <g transform="translate(0.00000000005000072447069752 10.788774999999998)">
                                                                        <g class="typst-text" transform="scale(1, -1)">
                                                                            <use xlink:href="#gFD91466B5836F321C6C305673CB4C023" x="0" fill="#000000" fill-rule="nonzero"/>
                                                                        </g>
                                                                    </g>
                                                                    <g transform="translate(12.35350000005 5.162274999999999)">
                                                                        <g class="typst-text" transform="scale(1, -1)">
                                                                            <use xlink:href="#g8640825C91E48A14F98F75D33F23DF85" x="0" fill="#000000" fill-rule="nonzero"/>
                                                                        </g>
                                                                    </g>
                                                                </g>
                                                            </g>
                                                        </g>
                                                    </g>
                                                </g>
                                            </g>
                                        </g>
                                    </g>
                                </g>
                                <g transform="translate(94.28984444444444 142.4696)">
                                    <path class="typst-shape" fill="none" d="M 0 0 L 16.616 0 L 16.616 10.5865 L 0 10.5865 L 0 0 Z "/>
                                </g>
                                <g transform="translate(94.28984438150235 142.46959992125986)">
                                    <g class="typst-group">
                                        <g>
                                            <g transform="translate(0 0)">
                                                <g class="typst-group">
                                                    <g>
                                                        <g transform="translate(0 0)">
                                                            <g class="typst-group">
                                                                <g>
                                                                    <g transform="translate(0.00000000005000072447069752 10.586499999999997)">
                                                                        <g class="typst-text" transform="scale(1, -1)">
                                                                            <use xlink:href="#g36326D6F2C9B07AD69F83840F3A43DFF" x="0" fill="#000000" fill-rule="nonzero"/>
                                                                        </g>
                                                                    </g>
                                                                </g>
                                                            </g>
                                                        </g>
                                                    </g>
                                                </g>
                                            </g>
                                        </g>
                                    </g>
                                </g>
                            </g>
                        </g>
                    </g>
                </g>
            </g>
        </g>
    </g>
    <defs id="glyph">
        <symbol id="g8B95F3F5905FC299AE273E135B870792" overflow="visible">
            <path d="M 5.5025 6.851 C 4.8205 6.851 4.1695 6.4944997 3.534 5.7815 C 3.3634999 6.4944997 2.883 6.851 2.1234999 6.851 C 1.4879999 6.851 1.023 6.3395 0.6975 5.332 C 0.5425 4.8205 0.465 4.526 0.465 4.433 C 0.465 4.2935 0.5425 4.216 0.713 4.216 C 0.7905 4.216 0.837 4.2315 0.8835 4.2625 C 0.96099997 4.402 1.0074999 4.5105 1.023 4.619 C 1.3019999 5.797 1.6585 6.3859997 2.077 6.3859997 C 2.356 6.3859997 2.4954998 6.1689997 2.4954998 5.7504997 C 2.4954998 5.518 2.4645 5.2545 2.3869998 4.9755 L 0.682 -1.829 C 0.5425 -2.3404999 0.527 -2.4025 -0.0775 -2.4025 C -0.3565 -2.4025 -0.496 -2.5265 -0.496 -2.759 C -0.496 -2.9294999 -0.403 -3.007 -0.2325 -3.007 C 0 -3.007 0.806 -2.9605 1.0385 -2.9605 C 1.333 -2.9605 2.263 -3.007 2.5575 -3.007 C 2.79 -3.007 2.8985 -2.883 2.8985 -2.635 C 2.8985 -2.48 2.759 -2.4025 2.4645 -2.4025 C 2.1855 -2.4025 1.767 -2.418 1.767 -2.2319999 C 1.767 -2.0305 2.4025 0.403 2.4645 0.6665 C 2.7745 0.092999995 3.2395 -0.2015 3.8595 -0.2015 C 4.867 -0.2015 5.7504997 0.31 6.5255 1.3485 C 7.2385 2.294 7.595 3.3014998 7.595 4.34 C 7.595 5.6885 6.789 6.851 5.5025 6.851 Z M 5.456 6.3859997 C 6.0604997 6.3859997 6.3705 5.921 6.3705 5.0065 C 6.3705 4.588 6.2774997 4.0299997 6.107 3.3325 C 5.7504997 1.984 5.301 1.1005 4.7585 0.65099996 C 4.433 0.3875 4.1384997 0.248 3.8439999 0.248 C 3.3945 0.248 3.0844998 0.4495 2.914 0.868 C 2.7745 1.1934999 2.697 1.426 2.697 1.55 L 3.4875 4.7894998 C 3.565 5.1305 3.8439999 5.487 4.278 5.8435 C 4.712 6.2 5.0994997 6.3859997 5.456 6.3859997 Z "/>
        </symbol>
        <symbol id="g5545A3563E5A9533E1C618829BF9829A" overflow="visible">
            <path d="M 3.28755 7.2044 C 2.821 6.7487 2.1266 6.52085 1.18265 6.52085 L 1.18265 6.04345 C 1.8228 6.04345 2.33275 6.1411 2.72335 6.32555 L 2.72335 0.92225003 C 2.72335 0.7812 2.7125 0.6944 2.67995 0.651 C 2.6257 0.53165 2.3002 0.46655002 1.7034501 0.46655002 L 1.2586 0.46655002 L 1.2586 0 L 3.1899002 0.0434 L 5.13205 0 L 5.13205 0.46655002 L 4.6872 0.46655002 C 4.0904503 0.46655002 3.76495 0.53165 3.69985 0.651 C 3.6781502 0.6944 3.6673 0.7812 3.6673 0.92225003 L 3.6673 6.8572 C 3.6673 7.1501503 3.6239002 7.2044 3.28755 7.2044 Z "/>
        </symbol>
        <symbol id="gC28863C1FC61B6EF4DE11C9209D343A6" overflow="visible">
            <path d="M 7.2539997 6.6805 L 2.9759998 6.6805 C 2.1545 6.6805 1.4104999 6.1535 0.7285 5.115 C 0.527 4.805 0.4185 4.6035 0.4185 4.526 C 0.465 4.402 0.48049998 4.3245 0.6665 4.3245 C 0.775 4.3245 0.868 4.3865 0.96099997 4.526 C 1.457 5.2855 2.077 5.673 2.8365 5.673 L 4.0299997 5.673 L 2.5575 0.868 C 2.449 0.527 2.4025 0.32549998 2.4025 0.27899998 C 2.4025 -0.031 2.573 -0.18599999 2.8985 -0.18599999 C 3.069 -0.18599999 3.224 -0.13949999 3.317 -0.046499997 C 3.5184999 0.13949999 3.534 0.18599999 3.596 0.5115 L 4.6035 5.673 L 7.1145 5.673 C 7.657 5.673 7.9205 5.8589997 7.9205 6.2465 C 7.9205 6.6029997 7.6415 6.6805 7.2539997 6.6805 Z "/>
        </symbol>
        <symbol id="g7A6D401AF3402FD5A6150F55A524FABD" overflow="visible">
            <path d="M 1.29115 4.6004 C 1.63835 4.6004 1.8987501 4.8608003 1.8987501 5.208 C 1.8987501 5.5986 1.6926 5.80475 1.29115 5.8156 C 1.52985 6.32555 2.07235 6.73785 2.7776 6.73785 C 3.7324002 6.73785 4.3617 6.02175 4.3617 5.0669503 C 4.3617 4.54615 4.17725 4.04705 3.7975001 3.5588 C 3.61305 3.30925 3.4720001 3.1356502 3.37435 3.038 L 0.8029 0.48825002 C 0.66185004 0.35805002 0.68355 0.3255 0.68355 0 L 5.15375 0 L 5.4901 2.0398 L 5.0344 2.0398 C 4.9584503 1.46475 4.87165 1.1284 4.774 1.0524501 C 4.71975 1.0199 4.3834 0.9982 3.7432501 0.9982 L 1.8987501 0.9982 C 2.6257 1.63835 3.2984002 2.2134001 3.93855 2.72335 C 4.4268003 3.1031 4.774 3.43945 4.991 3.7324002 C 5.3165 4.15555 5.47925 4.6004 5.47925 5.0669503 C 5.47925 5.7396502 5.21885 6.2713003 4.6872 6.6619 C 4.22065 7.01995 3.6347501 7.2044 2.94035 7.2044 C 2.3436 7.2044 1.83365 7.0308003 1.3888 6.6836 C 0.92225003 6.30385 0.68355 5.82645 0.68355 5.24055 C 0.68355 4.87165 0.9548 4.6004 1.29115 4.6004 Z "/>
        </symbol>
        <symbol id="gCEA86DEC70B2D3DCAFC2C502F9C69EFA" overflow="visible">
            <path d="M 8.122 6.6805 L 3.007 6.6805 C 2.3715 6.6805 1.8134999 6.4325 1.364 5.9519997 C 1.147 5.7195 0.4185 4.7275 0.4185 4.526 C 0.48049998 4.4175 0.48049998 4.3245 0.6665 4.3245 C 0.775 4.3245 0.868 4.3865 0.96099997 4.526 C 1.457 5.2855 2.0925 5.673 2.852 5.673 L 3.6425 5.673 C 3.286 4.3245 2.635 2.666 1.7049999 0.6975 C 1.6274999 0.5115 1.581 0.37199998 1.581 0.2945 C 1.581 -0.0155 1.7515 -0.1705 2.077 -0.1705 C 2.3715 -0.1705 2.5885 0 2.728 0.32549998 C 3.007 1.209 3.2085 1.8909999 3.317 2.356 L 4.1695 5.673 L 5.766 5.673 C 5.3475 3.8285 5.1305 2.542 5.1305 1.8134999 C 5.1305 1.054 5.301 -0.1705 5.8745 -0.1705 C 6.2 -0.1705 6.5565 0.13949999 6.5565 0.465 C 6.5565 0.5425 6.5255 0.6665 6.4635 0.8215 C 6.1689997 1.55 6.0295 2.3715 6.0295 3.317 C 6.0295 4.0455 6.1225 4.836 6.2929997 5.673 L 7.9825 5.673 C 8.525 5.673 8.7885 5.8589997 8.7885 6.2465 C 8.7885 6.6029997 8.5095 6.6805 8.122 6.6805 Z "/>
        </symbol>
        <symbol id="gFD91466B5836F321C6C305673CB4C023" overflow="visible">
            <path d="M 10.4005 10.54 C 10.106 10.54 9.176 10.5865 8.8815 10.5865 C 8.649 10.5865 8.525 10.4625 8.525 10.23 C 8.525 10.075 8.6335 9.997499 8.835 9.981999 C 9.269 9.9665 9.486 9.8115 9.486 9.547999 C 9.486 9.4085 9.4085 9.2225 9.269 8.99 L 4.65 1.6585 L 3.6269999 9.5945 C 3.6269999 9.858 3.9524999 9.981999 4.619 9.981999 C 4.929 9.981999 5.0685 10.0905 5.0685 10.354 C 5.0685 10.509 4.9755 10.5865 4.7894998 10.5865 C 4.4485 10.5865 3.2395 10.54 2.8985 10.54 C 2.5885 10.54 1.5345 10.5865 1.2245 10.5865 C 0.992 10.5865 0.868 10.4625 0.868 10.23 C 0.868 10.0595 1.023 9.981999 1.3175 9.981999 C 1.581 9.981999 1.767 9.951 1.8909999 9.92 C 2.139 9.8425 2.1234999 9.8115 2.17 9.517 L 3.379 0.062 C 3.4255 -0.2015 3.5495 -0.341 3.751 -0.341 C 3.9524999 -0.341 4.1075 -0.2325 4.2315 -0.031 L 9.7495 8.742 C 10.106 9.3 10.447 9.6565 10.788 9.796 C 11.0205 9.9045 11.315 9.9665 11.656 9.981999 C 11.8265 9.997499 11.903999 10.106 11.919499 10.3385 C 11.934999 10.509 11.842 10.5865 11.656 10.5865 C 11.4235 10.5865 10.632999 10.54 10.4005 10.54 Z "/>
        </symbol>
        <symbol id="g36533A8C8825F612AA3C6EC3E1BF1E4D" overflow="visible">
            <path d="M 9.764999 0.496 C 9.764999 0.6045 9.734 0.682 9.6565 0.75949997 L 6.541 3.875 L 9.6565 6.9905 C 9.734 7.068 9.764999 7.1454997 9.764999 7.2539997 C 9.764999 7.4554996 9.61 7.6105 9.4085 7.6105 C 9.3 7.6105 9.2225 7.5794997 9.1449995 7.502 L 6.0295 4.3865 L 2.914 7.502 C 2.8365 7.5794997 2.759 7.6105 2.6505 7.6105 C 2.449 7.6105 2.294 7.4554996 2.294 7.2539997 C 2.294 7.1454997 2.325 7.068 2.4025 6.9905 L 5.518 3.875 L 2.4025 0.75949997 C 2.325 0.682 2.294 0.6045 2.294 0.496 C 2.294 0.2945 2.449 0.13949999 2.6505 0.13949999 C 2.759 0.13949999 2.8365 0.1705 2.914 0.248 L 6.0295 3.3634999 L 9.1449995 0.248 C 9.2225 0.1705 9.3 0.13949999 9.4085 0.13949999 C 9.61 0.13949999 9.764999 0.2945 9.764999 0.496 Z "/>
        </symbol>
        <symbol id="gC2D320D7944184F044EABA5A4CE070E8" overflow="visible">
            <path d="M 7.4214 0.18445 C 7.45395 0.0651 7.4648004 0 7.6384 0 C 8.029 0 8.75595 0.0434 8.9838 0.0434 C 9.25505 0.0434 10.1122 0 10.350901 0 C 10.53535 0 10.62215 0.09765 10.62215 0.2821 C 10.62215 0.37975 10.589601 0.43400002 10.51365 0.44485 C 10.3943 0.4557 10.3075 0.46655002 10.2424 0.46655002 C 9.90605 0.4774 9.62395 0.4557 9.62395 0.60760003 C 9.62395 0.60760003 9.6348 0.651 9.66735 0.83545 L 11.0887 6.4883003 C 11.14295 6.7161503 11.240601 6.8572 11.38165 6.91145 C 11.4359 6.9331503 11.6312 6.9440002 11.9567 6.9440002 C 12.2171 6.9440002 12.369 6.97655 12.369 7.2044 C 12.369 7.38885 12.22795 7.41055 12.0001 7.41055 L 10.53535 7.41055 C 10.2207 7.41055 10.1773 7.3780003 10.03625 7.17185 L 5.9458003 1.1501 L 4.89335 7.08505 C 4.8391 7.38885 4.82825 7.41055 4.4702 7.41055 L 2.94035 7.41055 C 2.6691 7.41055 2.5389001 7.38885 2.5389001 7.12845 C 2.5389001 7.0091 2.67995 6.9440002 2.9512 6.9440002 C 3.33095 6.9440002 3.54795 6.9657 3.54795 6.8138003 L 2.1483 1.20435 C 2.0398 0.70525 1.7360001 0.48825002 1.07415 0.46655002 C 0.8897 0.46655002 0.8029 0.37975 0.8029 0.1953 L 0.8029 0.14105 C 0.83545 0.0434 0.90055 0 1.00905 0 C 1.2152001 0 1.9204501 0.0434 2.1266 0.0434 C 2.3436 0.0434 3.04885 0 3.26585 0 C 3.43945 0 3.5262501 0.09765 3.5262501 0.2821 C 3.5262501 0.40145 3.4286 0.46655002 3.2441502 0.46655002 C 2.9295 0.4774 2.74505 0.5208 2.6908 0.61845 C 2.63655 0.71610004 2.604 0.8029 2.604 0.87885004 C 2.604 0.93310004 2.61485 1.0199 2.6474001 1.13925 L 4.0362 6.67275 L 5.15375 0.3255 C 5.1863003 0.108500004 5.2731 0 5.41415 0 C 5.5335 0 5.642 0.0868 5.76135 0.24955 L 10.1664505 6.7704 L 8.7017 0.8897 C 8.64745 0.6727 8.5281 0.5425 8.36535 0.4991 C 8.3111 0.4774 8.12665 0.46655002 7.7903004 0.46655002 C 7.5516 0.46655002 7.4214 0.43400002 7.4214 0.18445 Z "/>
        </symbol>
        <symbol id="g8640825C91E48A14F98F75D33F23DF85" overflow="visible">
            <path d="M 2.4955 3.09225 L 1.24775 3.9928 C 1.07415 4.13385 0.82460004 4.0579 0.71610004 3.87345 C 0.60760003 3.6890001 0.6727 3.4286 0.86800003 3.3418 L 2.2785 2.7125 L 0.86800003 2.09405 C 0.6727 2.00725 0.60760003 1.74685 0.71610004 1.5624 C 0.82460004 1.3779501 1.07415 1.302 1.24775 1.4322001 L 2.4955 2.3436 L 2.33275 0.81375 C 2.31105 0.5859 2.50635 0.41230002 2.7125 0.41230002 C 2.9186502 0.41230002 3.11395 0.5859 3.09225 0.81375 L 2.9295 2.3436 L 4.17725 1.4322001 C 4.3617 1.302 4.6004 1.3779501 4.7089 1.5624 C 4.8174 1.74685 4.7523003 2.00725 4.557 2.09405 L 3.1465 2.7125 L 4.557 3.3418 C 4.7523003 3.4286 4.8174 3.6890001 4.7089 3.87345 C 4.6004 4.0579 4.35085 4.13385 4.17725 3.9928 L 2.9295 3.09225 L 3.09225 4.6221 C 3.11395 4.8391 2.9186502 5.02355 2.7125 5.02355 C 2.50635 5.02355 2.31105 4.8391 2.33275 4.6221 Z "/>
        </symbol>
        <symbol id="g36326D6F2C9B07AD69F83840F3A43DFF" overflow="visible">
            <path d="M 9.207 0.248 C 9.207 0.0775 9.3 0 9.5015 0 L 11.408 0.046499997 C 11.7645 0.062 13.0199995 0 13.3145 0 C 13.547 0 13.671 0.124 13.671 0.37199998 C 13.671 0.527 13.516 0.6045 13.1905 0.6045 C 12.554999 0.6045 12.245 0.6665 12.245 0.806 C 12.245 0.85249996 12.276 0.96099997 12.3225 1.1625 L 14.3685 9.330999 C 14.446 9.6565 14.601 9.858 14.8025 9.9355 C 14.8955 9.9665 15.1744995 9.981999 15.624 9.981999 C 16.0115 9.981999 16.182 9.997499 16.182 10.354 C 16.182 10.509 16.027 10.5865 15.7015 10.5865 L 13.671 10.5865 C 13.221499 10.5865 13.221499 10.5555 13.0199995 10.261 L 7.502 1.674 L 6.324 10.1835 C 6.262 10.571 6.231 10.5865 5.7815 10.5865 L 3.6734998 10.5865 C 3.3325 10.5865 3.162 10.571 3.162 10.23 C 3.162 10.0595 3.3325 9.981999 3.658 9.981999 C 3.968 9.981999 4.6035 10.0285 4.6035 9.780499 C 4.6035 9.7495 4.588 9.6565 4.5415 9.5015 L 2.5885 1.7049999 C 2.449 1.1159999 2.0925 0.75949997 1.55 0.65099996 C 1.1625 0.6045 0.65099996 0.6665 0.65099996 0.248 C 0.65099996 0.0775 0.74399996 0 0.93 0 C 1.209 0 2.1855 0.046499997 2.4645 0.046499997 C 2.759 0.046499997 3.751 0 4.0455 0 C 4.278 0 4.3865 0.124 4.3865 0.37199998 C 4.3865 0.5115 4.278 0.589 4.0455 0.6045 C 3.3945 0.6045 3.069 0.806 3.069 1.209 C 3.069 1.271 3.0844998 1.3795 3.131 1.55 L 5.146 9.6255 L 6.4325 0.403 C 6.479 0.13949999 6.572 0 6.7269998 0 C 6.851 0 6.975 0.1085 7.1145 0.31 L 13.144 9.7185 L 11.036 1.271 C 10.943 0.93 10.788 0.7285 10.5555 0.65099996 C 10.4625 0.62 10.168 0.6045 9.6875 0.6045 C 9.3619995 0.6045 9.207 0.5735 9.207 0.248 Z "/>
        </symbol>
    </defs>
</svg>
