<svg class="typst-doc" viewBox="0 0 192.93518888898888 240.55350000000007" width="192.93518888898888pt" height="240.55350000000007pt" xmlns="http://www.w3.org/2000/svg" xmlns:xlink="http://www.w3.org/1999/xlink" xmlns:h5="http://www.w3.org/1999/xhtml">
    <path class="typst-shape" fill="#00000000" fill-rule="nonzero" d="M 0 0 L 0 240.5535 L 192.9352 240.5535 L 192.9352 0 Z "/>
    <g>
        <g transform="translate(0 1.5500000000000003)">
            <g class="typst-group">
                <g>
                    <g transform="translate(0 0)">
                        <g class="typst-group">
                            <g>
                                <g transform="translate(11.350812256455113 16.122185153331618)">
                                    <path class="typst-shape" fill="none" stroke="#000000" stroke-width="0.744" stroke-linecap="round" stroke-linejoin="miter" stroke-miterlimit="4" d="M 76.83247 0 C 37.928005 34.778225 11.032251 80.98006 0 131.9837 "/>
                                </g>
                                <g transform="translate(8.442079953955878 13.903467736008778)">
                                    <path class="typst-shape" fill="none" stroke="#000000" stroke-width="0.744" stroke-linecap="round" stroke-linejoin="miter" stroke-miterlimit="4" d="M 77.75781 0 C 38.384792 35.197075 11.165118 81.95534 0 133.57326 "/>
                                </g>
                                <g transform="translate(107.88173618556196 169.30797994274195)">
                                    <path class="typst-shape" fill="none" stroke="#000000" stroke-width="0.744" stroke-linecap="round" stroke-linejoin="miter" stroke-miterlimit="4" d="M 68.19595 0 L 0 52.90261 "/>
                                </g>
                                <g transform="translate(109.70584245400107 171.65940766254135)">
                                    <path class="typst-shape" fill="none" stroke="#000000" stroke-width="0.744" stroke-linecap="round" stroke-linejoin="miter" stroke-miterlimit="4" d="M 68.19595 0 L 0 52.90261 "/>
                                </g>
                                <g transform="translate(108.86401757856767 15.097425511035276)">
                                    <path class="typst-shape" fill="none" stroke="#000000" stroke-width="0.744" stroke-linecap="round" stroke-linejoin="miter" stroke-miterlimit="4" d="M 0 0 C 38.733654 35.296227 65.33087 81.92355 75.99719 133.22998 "/>
                                </g>
                                <g transform="translate(180.6634414027253 146.2357704955325)">
                                    <path class="typst-shape" fill="none" stroke="#000000" stroke-width="0.744" stroke-linecap="round" stroke-linejoin="miter" stroke-miterlimit="4" d="M 4.195569 2.0920968 C 3.2077336 0.76911193 1.6510774 -0.0070878062 0 0.000048785867 "/>
                                </g>
                                <g transform="translate(184.85901023627045 144.70523962355145)">
                                    <path class="typst-shape" fill="none" stroke="#000000" stroke-width="0.744" stroke-linecap="round" stroke-linejoin="miter" stroke-miterlimit="4" d="M 0 3.6226277 C 0.36164674 2.0116282 1.4657798 0.6675469 2.9759085 0 "/>
                                </g>
                                <g transform="translate(162.86771011393094 52.8382626427324)">
                                    <path class="typst-shape" fill="none" d="M 0 0 L 15.19 0 L 15.19 19.964 L 0 19.964 L 0 0 Z "/>
                                </g>
                                <g transform="translate(162.8677100351908 52.838262579740274)">
                                    <g class="typst-group">
                                        <g>
                                            <g transform="translate(0 0)">
                                                <g class="typst-group">
                                                    <g>
                                                        <g transform="translate(0 0)">
                                                            <g class="typst-group">
                                                                <g>
                                                                    <g transform="translate(0 0)">
                                                                        <g class="typst-group">
                                                                            <g>
                                                                                <g transform="translate(3.1000000000000005 13.6865)">
                                                                                    <g class="typst-text" transform="scale(1, -1)">
                                                                                        <use xlink:href="#gC4062D2AA91C1B3F5799A7061EF217A7" x="0" fill="#000000" fill-rule="nonzero"/>
                                                                                    </g>
                                                                                </g>
                                                                            </g>
                                                                        </g>
                                                                    </g>
                                                                </g>
                                                            </g>
                                                        </g>
                                                    </g>
                                                </g>
                                            </g>
                                        </g>
                                    </g>
                                </g>
                                <g transform="translate(18.59431320680738 170.71019807783924)">
                                    <path class="typst-shape" fill="none" stroke="#000000" stroke-width="0.744" stroke-linecap="round" stroke-linejoin="miter" stroke-miterlimit="4" d="M 0 0 L 68.399155 52.503025 "/>
                                </g>
                                <g transform="translate(82.44332590694032 223.08354532219857)">
                                    <path class="typst-shape" fill="none" stroke="#000000" stroke-width="0.744" stroke-linecap="round" stroke-linejoin="miter" stroke-miterlimit="4" d="M 4.550145 0.1296795 C 2.9401455 -0.23639153 1.2519331 0.18265763 0 1.2591194 "/>
                                </g>
                                <g transform="translate(86.39278121909976 218.52577249501948)">
                                    <path class="typst-shape" fill="none" stroke="#000000" stroke-width="0.744" stroke-linecap="round" stroke-linejoin="miter" stroke-miterlimit="4" d="M 0.60068965 4.6874523 C -0.1691093 3.2267964 -0.20068856 1.4876397 0.5155758 0 "/>
                                </g>
                                <g transform="translate(33.97627815818429 201.9931141487426)">
                                    <path class="typst-shape" fill="none" d="M 0 0 L 15.19 0 L 15.19 19.964 L 0 19.964 L 0 0 Z "/>
                                </g>
                                <g transform="translate(33.976278079444135 201.99311408575048)">
                                    <g class="typst-group">
                                        <g>
                                            <g transform="translate(0 0)">
                                                <g class="typst-group">
                                                    <g>
                                                        <g transform="translate(0 0)">
                                                            <g class="typst-group">
                                                                <g>
                                                                    <g transform="translate(0 0)">
                                                                        <g class="typst-group">
                                                                            <g>
                                                                                <g transform="translate(3.1000000000000005 13.6865)">
                                                                                    <g class="typst-text" transform="scale(1, -1)">
                                                                                        <use xlink:href="#gC4062D2AA91C1B3F5799A7061EF217A7" x="0" fill="#000000" fill-rule="nonzero"/>
                                                                                    </g>
                                                                                </g>
                                                                            </g>
                                                                        </g>
                                                                    </g>
                                                                </g>
                                                            </g>
                                                        </g>
                                                    </g>
                                                </g>
                                            </g>
                                        </g>
                                    </g>
                                </g>
                                <g transform="translate(18.181508682798786 103.91650003149611)">
                                    <path class="typst-shape" fill="none" stroke="#000000" stroke-width="0.744" stroke-linecap="round" stroke-linejoin="miter" stroke-miterlimit="4" d="M 54.30427 0 L 0 48.42247 "/>
                                </g>
                                <g transform="translate(17.92200967084028 147.65793089630333)">
                                    <path class="typst-shape" fill="none" stroke="#000000" stroke-width="0.744" stroke-linecap="round" stroke-linejoin="miter" stroke-miterlimit="4" d="M 0.259499 4.6810384 C 0.91990465 3.167773 0.8236243 1.4309962 0 0 "/>
                                </g>
                                <g transform="translate(18.181508692963387 152.1107499349538)">
                                    <path class="typst-shape" fill="none" stroke="#000000" stroke-width="0.744" stroke-linecap="round" stroke-linejoin="miter" stroke-miterlimit="4" d="M 0 0.22821926 C 1.5787538 -0.2551477 3.2931912 0.038737632 4.6208277 1.0203121 "/>
                                </g>
                                <g transform="translate(26.8395327335461 103.83052307086703)">
                                    <path class="typst-shape" fill="none" d="M 0 0 L 14.229 0 L 14.229 19.7935 L 0 19.7935 L 0 0 Z "/>
                                </g>
                                <g transform="translate(26.839532733546097 103.83052299212686)">
                                    <g class="typst-group">
                                        <g>
                                            <g transform="translate(0 0)">
                                                <g class="typst-group">
                                                    <g>
                                                        <g transform="translate(0 0)">
                                                            <g class="typst-group">
                                                                <g>
                                                                    <g transform="translate(0 0)">
                                                                        <g class="typst-group">
                                                                            <g>
                                                                                <g transform="translate(3.1000000000000005 13.6865)">
                                                                                    <g class="typst-text" transform="scale(1, -1)">
                                                                                        <use xlink:href="#g8B95F3F5905FC299AE273E135B870792" x="0" fill="#000000" fill-rule="nonzero"/>
                                                                                    </g>
                                                                                </g>
                                                                            </g>
                                                                        </g>
                                                                    </g>
                                                                </g>
                                                            </g>
                                                        </g>
                                                    </g>
                                                </g>
                                            </g>
                                        </g>
                                    </g>
                                </g>
                                <g transform="translate(123.37049792910011 103.91650003149614)">
                                    <path class="typst-shape" fill="none" stroke="#000000" stroke-width="0.744" stroke-linecap="round" stroke-linejoin="miter" stroke-miterlimit="4" d="M 0 0 L 54.000076 48.68631 "/>
                                </g>
                                <g transform="translate(172.74546639723624 152.36614096528953)">
                                    <path class="typst-shape" fill="none" stroke="#000000" stroke-width="0.744" stroke-linecap="round" stroke-linejoin="miter" stroke-miterlimit="4" d="M 4.625109 0.23666713 C 3.049034 -0.25536427 1.3330083 0.0290997 0 1.0033671 "/>
                                </g>
                                <g transform="translate(176.94719265472278 147.92326519630203)">
                                    <path class="typst-shape" fill="none" stroke="#000000" stroke-width="0.744" stroke-linecap="round" stroke-linejoin="miter" stroke-miterlimit="4" d="M 0.42338303 4.679543 C -0.22870073 3.162673 -0.12288218 1.4264508 0.7085899 0 "/>
                                </g>
                                <g transform="translate(98.06409444449442 19.92025662110271)">
                                    <path class="typst-shape" fill="none" stroke="#000000" stroke-width="0.744" stroke-linecap="round" stroke-linejoin="miter" stroke-miterlimit="4" stroke-dashoffset="0" stroke-dasharray="3 3" d="M 0.000000000000025176711 0 L 0 42.794243 "/>
                                </g>
                                <g transform="translate(94.39759887202602 59.79280992563773)">
                                    <path class="typst-shape" fill="none" stroke="#000000" stroke-width="0.744" stroke-linecap="round" stroke-linejoin="miter" stroke-miterlimit="4" d="M 3.6664956 2.92169 C 2.9765582 1.4216586 1.6162009 0.33764195 0 0 "/>
                                </g>
                                <g transform="translate(98.06409448823898 59.79280992563773)">
                                    <path class="typst-shape" fill="none" stroke="#000000" stroke-width="0.744" stroke-linecap="round" stroke-linejoin="miter" stroke-miterlimit="4" d="M 0 2.92169 C 0.68993735 1.4216586 2.0502946 0.33764195 3.6664956 0 "/>
                                </g>
                                <g transform="translate(24.36395646931597 160.56275000000002)">
                                    <path class="typst-shape" fill="none" stroke="#000000" stroke-width="0.744" stroke-linecap="round" stroke-linejoin="miter" stroke-miterlimit="4" d="M 149.67767 0 L 0 0 "/>
                                </g>
                                <g transform="translate(24.36395646931597 163.53875000000002)">
                                    <path class="typst-shape" fill="none" stroke="#000000" stroke-width="0.744" stroke-linecap="round" stroke-linejoin="miter" stroke-miterlimit="4" d="M 149.67767 0 L 0 0 "/>
                                </g>
                                <g transform="translate(21.811256881939766 158.2192408482949)">
                                    <path class="typst-shape" fill="none" stroke="#000000" stroke-width="0.744" stroke-linecap="round" stroke-linejoin="miter" stroke-miterlimit="4" d="M 0 3.831509 C 1.8982615 3.1630256 3.467615 1.7915778 4.384412 0 "/>
                                </g>
                                <g transform="translate(21.811256881939766 162.05074985826775)">
                                    <path class="typst-shape" fill="none" stroke="#000000" stroke-width="0.744" stroke-linecap="round" stroke-linejoin="miter" stroke-miterlimit="4" d="M 0 0 C 1.8982615 0.66848344 3.467615 2.0399313 4.384412 3.831509 "/>
                                </g>
                                <g transform="translate(91.25184444444444 0)">
                                    <path class="typst-shape" fill="none" d="M 0 0 L 13.6245 0 L 13.6245 10.5865 L 0 10.5865 L 0 0 Z "/>
                                </g>
                                <g transform="translate(91.25184435000625 -0.00000007874014474910786)">
                                    <g class="typst-group">
                                        <g>
                                            <g transform="translate(0 0)">
                                                <g class="typst-group">
                                                    <g>
                                                        <g transform="translate(0 0)">
                                                            <g class="typst-group">
                                                                <g>
                                                                    <g transform="translate(0.000000000049999829298746954 10.586499999999997)">
                                                                        <g class="typst-text" transform="scale(1, -1)">
                                                                            <use xlink:href="#g4F703E6593DE2699BCEF8BADE08B3D1" x="0" fill="#000000" fill-rule="nonzero"/>
                                                                        </g>
                                                                    </g>
                                                                </g>
                                                            </g>
                                                        </g>
                                                    </g>
                                                </g>
                                            </g>
                                        </g>
                                    </g>
                                </g>
                                <g transform="translate(72.1245 69.08650000000002)">
                                    <path class="typst-shape" fill="none" d="M 0 0 L 51.87919 0 L 51.87919 28.83 L 0 28.83 L 0 0 Z "/>
                                </g>
                                <g transform="translate(72.12449995630547 69.08649990551183)">
                                    <g class="typst-group">
                                        <g>
                                            <g transform="translate(0 0)">
                                                <g class="typst-group">
                                                    <g>
                                                        <g transform="translate(0 0)">
                                                            <g class="typst-group">
                                                                <g>
                                                                    <g transform="translate(0.00000000005000072447069752 16.99575)">
                                                                        <g class="typst-text" transform="scale(1, -1)">
                                                                            <use xlink:href="#g4F703E6593DE2699BCEF8BADE08B3D1" x="0" fill="#000000" fill-rule="nonzero"/>
                                                                        </g>
                                                                    </g>
                                                                    <g transform="translate(17.06894444449444 16.99575)">
                                                                        <g class="typst-text" transform="scale(1, -1)">
                                                                            <use xlink:href="#g36533A8C8825F612AA3C6EC3E1BF1E4D" x="0" fill="#000000" fill-rule="nonzero"/>
                                                                        </g>
                                                                    </g>
                                                                    <g transform="translate(17.673444444494443 6.17675)">
                                                                        <g class="typst-text" transform="scale(1, -1)">
                                                                            <use xlink:href="#g20E32542AC5AAB06775DBFD83A03195F" x="0" fill="#000000" fill-rule="nonzero"/>
                                                                        </g>
                                                                    </g>
                                                                    <g transform="translate(29.127944444494442 29.256249999999994)">
                                                                        <g class="typst-text" transform="scale(1, -1)">
                                                                            <use xlink:href="#g9DB9644599B81105C2A54CBDFA4FB67B" x="0" fill="#000000" fill-rule="nonzero"/>
                                                                        </g>
                                                                    </g>
                                                                    <g transform="translate(41.44768888893888 16.99575)">
                                                                        <g class="typst-text" transform="scale(1, -1)">
                                                                            <use xlink:href="#g9EF23C1266A444A4D4244076180B4DFC" x="0" fill="#000000" fill-rule="nonzero"/>
                                                                        </g>
                                                                    </g>
                                                                </g>
                                                            </g>
                                                        </g>
                                                    </g>
                                                </g>
                                            </g>
                                        </g>
                                    </g>
                                </g>
                                <g transform="translate(0.0000000000000007867722221753078 156.75750000000002)">
                                    <path class="typst-shape" fill="none" d="M 0 0 L 13.6245 0 L 13.6245 10.5865 L 0 10.5865 L 0 0 Z "/>
                                </g>
                                <g transform="translate(-0.00000009443818980369141 156.75749992125986)">
                                    <g class="typst-group">
                                        <g>
                                            <g transform="translate(0 0)">
                                                <g class="typst-group">
                                                    <g>
                                                        <g transform="translate(0 0)">
                                                            <g class="typst-group">
                                                                <g>
                                                                    <g transform="translate(0.000000000049999829298746954 10.586499999999997)">
                                                                        <g class="typst-text" transform="scale(1, -1)">
                                                                            <use xlink:href="#g4F703E6593DE2699BCEF8BADE08B3D1" x="0" fill="#000000" fill-rule="nonzero"/>
                                                                        </g>
                                                                    </g>
                                                                </g>
                                                            </g>
                                                        </g>
                                                    </g>
                                                </g>
                                            </g>
                                        </g>
                                    </g>
                                </g>
                                <g transform="translate(182.5036888888889 156.41650000000004)">
                                    <path class="typst-shape" fill="none" d="M 0 0 L 10.4315 0 L 10.4315 11.2685 L 0 11.2685 L 0 0 Z "/>
                                </g>
                                <g transform="translate(182.50368887319087 156.416499984252)">
                                    <g class="typst-group">
                                        <g>
                                            <g transform="translate(0 0)">
                                                <g class="typst-group">
                                                    <g>
                                                        <g transform="translate(0 0)">
                                                            <g class="typst-group">
                                                                <g>
                                                                    <g transform="translate(0.000000000049999829298746954 10.9275)">
                                                                        <g class="typst-text" transform="scale(1, -1)">
                                                                            <use xlink:href="#g9EF23C1266A444A4D4244076180B4DFC" x="0" fill="#000000" fill-rule="nonzero"/>
                                                                        </g>
                                                                    </g>
                                                                </g>
                                                            </g>
                                                        </g>
                                                    </g>
                                                </g>
                                            </g>
                                        </g>
                                    </g>
                                </g>
                                <g transform="translate(92.84834444444444 226.18500000000006)">
                                    <path class="typst-shape" fill="none" d="M 0 0 L 10.4315 0 L 10.4315 11.2685 L 0 11.2685 L 0 0 Z "/>
                                </g>
                                <g transform="translate(92.84834442874642 226.18499998425204)">
                                    <g class="typst-group">
                                        <g>
                                            <g transform="translate(0 0)">
                                                <g class="typst-group">
                                                    <g>
                                                        <g transform="translate(0 0)">
                                                            <g class="typst-group">
                                                                <g>
                                                                    <g transform="translate(0.000000000049999829298746954 10.9275)">
                                                                        <g class="typst-text" transform="scale(1, -1)">
                                                                            <use xlink:href="#g9EF23C1266A444A4D4244076180B4DFC" x="0" fill="#000000" fill-rule="nonzero"/>
                                                                        </g>
                                                                    </g>
                                                                </g>
                                                            </g>
                                                        </g>
                                                    </g>
                                                </g>
                                            </g>
                                        </g>
                                    </g>
                                </g>
                            </g>
                        </g>
                    </g>
                </g>
            </g>
        </g>
    </g>
    <defs id="glyph">
        <symbol id="gC4062D2AA91C1B3F5799A7061EF217A7" overflow="visible">
            <path d="M 8.556 9.8115 C 8.556 10.4935 7.8894997 10.9275 7.161 10.9275 C 6.2 10.9275 5.5334997 10.3075 5.177 9.083 C 5.0994997 8.804 4.929 8.0135 4.6809998 6.7114997 L 3.6734998 6.7114997 C 3.3325 6.7114997 3.162 6.696 3.162 6.3705 C 3.162 6.2 3.317 6.1225 3.6425 6.1225 L 4.5724998 6.1225 L 3.441 0.124 C 3.2705 -0.75949997 3.1155 -1.4104999 2.9759998 -1.8445 C 2.79 -2.418 2.5265 -2.7124999 2.1855 -2.7124999 C 1.953 -2.7124999 1.767 -2.6505 1.5964999 -2.542 C 2.0925 -2.4645 2.3404999 -2.17 2.3404999 -1.674 C 2.3404999 -1.271 2.139 -1.0695 1.7205 -1.0695 C 1.1934999 -1.0695 0.8215 -1.5345 0.8215 -2.0615 C 0.8215 -2.7435 1.457 -3.1775 2.1855 -3.1775 C 2.573 -3.1775 2.9294999 -3.0225 3.224 -2.697 C 3.72 -2.1855 4.1075 -1.457 4.3865 -0.48049998 C 4.557 0.124 4.712 0.713 4.8205 1.3019999 L 5.7195 6.1225 L 6.9905 6.1225 C 7.3469996 6.1225 7.502 6.138 7.502 6.4944997 C 7.502 6.634 7.3469996 6.7114997 7.0369997 6.7114997 L 5.8435 6.7114997 C 5.9365 7.3469996 6.3705 9.6875 6.5099998 9.981999 C 6.665 10.3075 6.882 10.4625 7.161 10.4625 C 7.3935 10.4625 7.595 10.4005 7.7655 10.292 C 7.285 10.1835 7.0369997 9.9045 7.0369997 9.424 C 7.0369997 9.021 7.2385 8.8195 7.657 8.8195 C 8.184 8.8195 8.556 9.2845 8.556 9.8115 Z "/>
        </symbol>
        <symbol id="g8B95F3F5905FC299AE273E135B870792" overflow="visible">
            <path d="M 5.5025 6.851 C 4.8205 6.851 4.1695 6.4944997 3.534 5.7815 C 3.3634999 6.4944997 2.883 6.851 2.1234999 6.851 C 1.4879999 6.851 1.023 6.3395 0.6975 5.332 C 0.5425 4.8205 0.465 4.526 0.465 4.433 C 0.465 4.2935 0.5425 4.216 0.713 4.216 C 0.7905 4.216 0.837 4.2315 0.8835 4.2625 C 0.96099997 4.402 1.0074999 4.5105 1.023 4.619 C 1.3019999 5.797 1.6585 6.3859997 2.077 6.3859997 C 2.356 6.3859997 2.4954998 6.1689997 2.4954998 5.7504997 C 2.4954998 5.518 2.4645 5.2545 2.3869998 4.9755 L 0.682 -1.829 C 0.5425 -2.3404999 0.527 -2.4025 -0.0775 -2.4025 C -0.3565 -2.4025 -0.496 -2.5265 -0.496 -2.759 C -0.496 -2.9294999 -0.403 -3.007 -0.2325 -3.007 C 0 -3.007 0.806 -2.9605 1.0385 -2.9605 C 1.333 -2.9605 2.263 -3.007 2.5575 -3.007 C 2.79 -3.007 2.8985 -2.883 2.8985 -2.635 C 2.8985 -2.48 2.759 -2.4025 2.4645 -2.4025 C 2.1855 -2.4025 1.767 -2.418 1.767 -2.2319999 C 1.767 -2.0305 2.4025 0.403 2.4645 0.6665 C 2.7745 0.092999995 3.2395 -0.2015 3.8595 -0.2015 C 4.867 -0.2015 5.7504997 0.31 6.5255 1.3485 C 7.2385 2.294 7.595 3.3014998 7.595 4.34 C 7.595 5.6885 6.789 6.851 5.5025 6.851 Z M 5.456 6.3859997 C 6.0604997 6.3859997 6.3705 5.921 6.3705 5.0065 C 6.3705 4.588 6.2774997 4.0299997 6.107 3.3325 C 5.7504997 1.984 5.301 1.1005 4.7585 0.65099996 C 4.433 0.3875 4.1384997 0.248 3.8439999 0.248 C 3.3945 0.248 3.0844998 0.4495 2.914 0.868 C 2.7745 1.1934999 2.697 1.426 2.697 1.55 L 3.4875 4.7894998 C 3.565 5.1305 3.8439999 5.487 4.278 5.8435 C 4.712 6.2 5.0994997 6.3859997 5.456 6.3859997 Z "/>
        </symbol>
        <symbol id="g4F703E6593DE2699BCEF8BADE08B3D1" overflow="visible">
            <path d="M 12.927 10.5865 C 12.6635 10.5865 11.749 10.54 11.485499 10.54 C 11.1755 10.54 10.0905 10.5865 9.780499 10.5865 C 9.547999 10.5865 9.424 10.4625 9.424 10.214499 C 9.424 10.075 9.5015 9.997499 9.672 9.981999 C 10.044 9.9355 10.23 9.8115 10.23 9.5789995 C 10.23 9.4395 10.137 9.269 9.951 9.0675 L 7.533 6.4635 C 7.0835 7.5175 6.6495 8.556 6.2 9.61 C 6.2155 9.641 6.231 9.672 6.2774997 9.703 C 6.417 9.858 6.6805 9.951 7.0525 9.981999 C 7.3005 10.013 7.4245 10.137 7.4245 10.3385 C 7.4245 10.509 7.3315 10.5865 7.13 10.5865 C 6.758 10.5865 5.5645 10.54 5.1925 10.54 C 4.867 10.54 3.7975 10.5865 3.472 10.5865 C 3.2395 10.5865 3.131 10.4625 3.131 10.214499 C 3.131 10.0595 3.2705 9.981999 3.5495 9.981999 C 4.2469997 9.981999 4.4639997 9.981999 4.65 9.5325 L 6.448 5.301 L 3.224 1.8445 C 3.1775 1.798 3.1155 1.736 3.0379999 1.6895 C 2.4025 1.023 1.674 0.65099996 0.8215 0.6045 C 0.55799997 0.589 0.4185 0.4495 0.4185 0.217 C 0.465 0.0775 0.48049998 0 0.682 0 C 0.94549996 0 1.86 0.046499997 2.1234999 0.046499997 C 2.449 0.046499997 3.5184999 0 3.8439999 0 C 4.0765 0 4.185 0.124 4.185 0.37199998 C 4.185 0.5115 4.1075 0.589 3.937 0.6045 C 3.565 0.6355 3.379 0.775 3.379 1.0074999 C 3.379 1.1625 3.5184999 1.3795 3.7819998 1.6585 C 4.743 2.6815 5.7195 3.7045 6.665 4.743 C 7.192 3.4875 7.7345 2.2475 8.246 0.9765 C 8.2305 0.94549996 8.215 0.9145 8.1685 0.868 C 8.029 0.7285 7.7809997 0.65099996 7.409 0.6045 C 7.1765 0.5735 7.0525 0.4495 7.0525 0.248 C 7.0525 0.0775 7.1454997 0 7.3469996 0 L 9.2845 0.046499997 C 9.61 0.046499997 10.695 0 10.974 0 C 11.2065 0 11.3305 0.124 11.3305 0.3565 C 11.3305 0.5115 11.222 0.589 10.9895 0.6045 C 10.509 0.6045 10.198999 0.62 10.0905 0.682 C 9.981999 0.74399996 9.858 0.93 9.734 1.24 L 7.7655 5.9365 C 8.8195 7.0525 9.61 7.8894997 10.1215 8.463 C 10.4935 8.8505 10.7415 9.114 10.881 9.2225 C 11.4545 9.703 12.09 9.951 12.787499 9.981999 C 13.113 9.997499 13.1905 10.075 13.1905 10.3695 C 13.144 10.509 13.1285 10.5865 12.927 10.5865 Z "/>
        </symbol>
        <symbol id="g36533A8C8825F612AA3C6EC3E1BF1E4D" overflow="visible">
            <path d="M 9.764999 0.496 C 9.764999 0.6045 9.734 0.682 9.6565 0.75949997 L 6.541 3.875 L 9.6565 6.9905 C 9.734 7.068 9.764999 7.1454997 9.764999 7.2539997 C 9.764999 7.4554996 9.61 7.6105 9.4085 7.6105 C 9.3 7.6105 9.2225 7.5794997 9.1449995 7.502 L 6.0295 4.3865 L 2.914 7.502 C 2.8365 7.5794997 2.759 7.6105 2.6505 7.6105 C 2.449 7.6105 2.294 7.4554996 2.294 7.2539997 C 2.294 7.1454997 2.325 7.068 2.4025 6.9905 L 5.518 3.875 L 2.4025 0.75949997 C 2.325 0.682 2.294 0.6045 2.294 0.496 C 2.294 0.2945 2.449 0.13949999 2.6505 0.13949999 C 2.759 0.13949999 2.8365 0.1705 2.914 0.248 L 6.0295 3.3634999 L 9.1449995 0.248 C 9.2225 0.1705 9.3 0.13949999 9.4085 0.13949999 C 9.61 0.13949999 9.764999 0.2945 9.764999 0.496 Z "/>
        </symbol>
        <symbol id="g20E32542AC5AAB06775DBFD83A03195F" overflow="visible">
            <path d="M 9.9603 2.9729002 L 1.8662001 2.9729002 C 2.65825 3.5371 3.1356502 4.28575 3.3201 5.2297 L 3.3201 5.24055 L 3.33095 5.26225 C 3.33095 5.4467 3.2441502 5.5335 3.07055 5.5335 C 2.9295 5.5335 2.8427 5.4684 2.8101501 5.32735 C 2.7125 4.8174 2.50635 4.37255 2.20255 3.9928 C 1.74685 3.4286 1.2586 3.0597 0.7378 2.8861 C 0.66185004 2.85355 0.61845 2.78845 0.61845 2.7125 C 0.61845 2.63655 0.66185004 2.57145 0.7378 2.5389001 C 1.2586 2.3653 1.74685 1.9964 2.20255 1.4322001 C 2.50635 1.0524501 2.7125 0.60760003 2.8101501 0.09765 C 2.8427 -0.0434 2.9295 -0.108500004 3.07055 -0.108500004 C 3.2441502 -0.108500004 3.33095 -0.0217 3.33095 0.16275 L 3.3201 0.18445 L 3.3201 0.1953 C 3.1356502 1.13925 2.65825 1.8879 1.8662001 2.4521 L 9.9603 2.4521 C 10.133901 2.4521 10.2207 2.5389001 10.2207 2.7125 C 10.2207 2.85355 10.10135 2.9729002 9.9603 2.9729002 Z "/>
        </symbol>
        <symbol id="g9DB9644599B81105C2A54CBDFA4FB67B" overflow="visible">
            <path d="M 6.6619 5.08865 C 6.6619 4.9584503 6.73785 4.89335 6.88975 4.89335 C 7.0959 4.89335 7.0959 4.9693003 7.1501503 5.1646 L 7.7035003 7.4431 C 7.7035003 7.56245 7.6384 7.62755 7.51905 7.62755 C 7.45395 7.62755 7.3671503 7.5733004 7.2695003 7.4648004 L 6.78125 6.88975 C 6.41235 7.3780003 5.8373003 7.62755 5.04525 7.62755 C 4.34 7.62755 3.6890001 7.38885 3.1031 6.9223003 C 2.46295 6.41235 2.1483 5.8156 2.1483 5.13205 C 2.1483 4.34 2.7016501 3.7541 3.37435 3.5696502 C 4.06875 3.39605 4.58955 3.26585 4.93675 3.1899002 C 5.5769 3.038 5.9024 2.67995 5.9024 2.1049001 C 5.9024 1.5949501 5.6854 1.1609501 5.2514 0.8029 C 4.8174 0.44485 4.32915 0.2604 3.8192 0.2604 C 3.30925 0.2604 2.8427 0.35805002 2.44125 0.5642 C 1.9964 0.79205 1.7794 1.18265 1.7794 1.7360001 C 1.7794 1.8987501 1.8011 2.0832 1.8445001 2.2676501 C 1.85535 2.3002 1.85535 2.3219001 1.85535 2.33275 C 1.85535 2.4521 1.7794 2.5172 1.63835 2.5172 C 1.5841 2.5172 1.55155 2.5172 1.519 2.50635 C 1.44305 2.41955 1.39965 2.3436 1.3888 2.2676501 L 0.8463 0.1302 C 0.82460004 0.0434 0.81375 -0.01085 0.81375 -0.0434 C 0.81375 -0.16275 0.87885004 -0.21700001 1.00905 -0.21700001 C 1.085 -0.21700001 1.1609501 -0.16275 1.24775 -0.054250002 L 1.50815 0.24955 C 1.6058 0.3689 1.68175 0.4557 1.7360001 0.50995 C 2.20255 0.0217 2.8861 -0.21700001 3.7866502 -0.21700001 C 4.5244503 -0.21700001 5.19715 0.0434 5.80475 0.5642 C 6.43405 1.11755 6.7487 1.7577001 6.7487 2.4846501 C 6.7487 3.4286 6.1845 3.93855 5.4033003 4.1881 C 5.4033003 4.1881 3.8951502 4.5244503 3.69985 4.6004 C 3.2333 4.76315 3.00545 5.0778003 3.00545 5.5335 C 3.00545 6.00005 3.2333 6.4015 3.6890001 6.73785 C 4.1013002 7.0416503 4.54615 7.19355 5.0344 7.19355 C 6.15195 7.19355 6.7053003 6.65105 6.7053003 5.56605 C 6.7053003 5.47925 6.6619 5.1754503 6.6619 5.08865 Z "/>
        </symbol>
        <symbol id="g9EF23C1266A444A4D4244076180B4DFC" overflow="visible">
            <path d="M 2.0615 2.4335 C 2.0615 2.8055 2.108 3.1155 2.1855 3.3634999 C 2.1855 3.5184999 2.108 3.596 1.9375 3.596 C 1.86 3.596 1.798 3.565 1.767 3.534 C 1.6895 3.4565 0.806 0.124 0.806 -0.124 C 0.806 -0.2635 0.8835 -0.341 1.0385 -0.341 C 1.1159999 -0.341 1.2245 -0.2635 1.364 -0.092999995 L 2.0615 0.7285 C 2.6039999 0.0155 3.472 -0.341 4.65 -0.341 C 5.673 -0.341 6.572 0.0775 7.378 0.899 C 8.184 1.7205 8.587 2.635 8.587 3.658 C 8.587 4.3865 8.339 5.0065 7.8275 5.5025 C 7.595 5.704 7.285 5.8745 6.8975 6.014 C 6.541 6.0915 6.2 6.1844997 5.8589997 6.2774997 L 4.836 6.5565 C 4.3245 6.696 3.937 7.2695 3.937 7.8894997 C 3.937 8.556 4.2005 9.129499 4.743 9.6255 C 5.2855 10.1215 5.89 10.3695 6.5565 10.3695 C 7.9825 10.3695 8.695499 9.5945 8.695499 8.059999 C 8.695499 7.7809997 8.6335 7.4709997 8.6335 7.2075 L 8.6335 7.161 C 8.68 7.0525 8.7575 6.9905 8.8815 6.9905 C 9.021 6.9905 9.114 7.1145 9.176 7.3469996 L 9.997499 10.7105 C 9.997499 10.849999 9.92 10.9275 9.764999 10.9275 C 9.6875 10.9275 9.5789995 10.849999 9.4395 10.6795 L 8.773 9.8735 C 8.339 10.571 7.6105 10.9275 6.572 10.9275 C 5.5955 10.9275 4.712 10.5555 3.937 9.827 C 3.131 9.083 2.728 8.2305 2.728 7.2539997 C 2.728 6.138 3.4565 5.2545 4.371 5.0065 L 5.9985 4.588 C 6.8355 4.3554997 7.3624997 4.061 7.3624997 3.0225 C 7.3624997 2.3095 7.0835 1.674 6.541 1.1159999 C 5.9985 0.55799997 5.3785 0.2635 4.6809998 0.2635 C 3.162 0.2635 2.0615 0.93 2.0615 2.4335 Z "/>
        </symbol>
    </defs>
</svg>
