<svg class="typst-doc" viewBox="0 0 248.06015000010004 140.0870795706302" width="248.06015000010004pt" height="140.0870795706302pt" xmlns="http://www.w3.org/2000/svg" xmlns:xlink="http://www.w3.org/1999/xlink" xmlns:h5="http://www.w3.org/1999/xhtml">
    <path class="typst-shape" fill="#00000000" fill-rule="nonzero" d="M 0 0 L 0 140.08708 L 248.06015 140.08708 L 248.06015 0 Z "/>
    <g>
        <g transform="translate(0 1.5500000000000003)">
            <g class="typst-group">
                <g>
                    <g transform="translate(0 0)">
                        <g class="typst-group">
                            <g>
                                <g transform="translate(27.67324275518197 56.57162957063021)">
                                    <path class="typst-shape" fill="none" stroke="#000000" stroke-width="0.744" stroke-linecap="round" stroke-linejoin="miter" stroke-miterlimit="4" d="M 0 0.0000000000000125883555 L 41.88015 0 "/>
                                </g>
                                <g transform="translate(66.63170302804991 56.571629617874315)">
                                    <path class="typst-shape" fill="none" stroke="#000000" stroke-width="0.744" stroke-linecap="round" stroke-linejoin="miter" stroke-miterlimit="4" d="M 2.92169 0 C 1.4216586 0.68993735 0.33764195 2.0502946 0 3.6664956 "/>
                                </g>
                                <g transform="translate(66.63170302804991 52.90513400166137)">
                                    <path class="typst-shape" fill="none" stroke="#000000" stroke-width="0.744" stroke-linecap="round" stroke-linejoin="miter" stroke-miterlimit="4" d="M 2.92169 3.6664956 C 1.4216586 2.9765582 0.33764195 1.6162009 0 0 "/>
                                </g>
                                <g transform="translate(43.02556793306464 33.41462957063021)">
                                    <path class="typst-shape" fill="none" d="M 0 0 L 11.5475 0 L 11.5475 16.957 L 0 16.957 L 0 0 Z "/>
                                </g>
                                <g transform="translate(43.025567917316614 33.41462953913414)">
                                    <g class="typst-group">
                                        <g>
                                            <g transform="translate(0 0)">
                                                <g class="typst-group">
                                                    <g>
                                                        <g transform="translate(0 0)">
                                                            <g class="typst-group">
                                                                <g>
                                                                    <g transform="translate(0 0)">
                                                                        <g class="typst-group">
                                                                            <g>
                                                                                <g transform="translate(3.1000000000000005 13.6865)">
                                                                                    <g class="typst-text" transform="scale(1, -1)">
                                                                                        <use xlink:href="#g4F82B9AEE47BC4B59D5ED1019E8548D7" x="0" fill="#000000" fill-rule="nonzero"/>
                                                                                    </g>
                                                                                </g>
                                                                            </g>
                                                                        </g>
                                                                    </g>
                                                                </g>
                                                            </g>
                                                        </g>
                                                    </g>
                                                </g>
                                            </g>
                                        </g>
                                    </g>
                                </g>
                                <g transform="translate(99.5514066371845 56.57162957063021)">
                                    <path class="typst-shape" fill="none" stroke="#000000" stroke-width="0.744" stroke-linecap="round" stroke-linejoin="miter" stroke-miterlimit="4" d="M 41.255814 0.0000000000000125883555 L 0 0 "/>
                                </g>
                                <g transform="translate(99.55140670871141 52.90513400166137)">
                                    <path class="typst-shape" fill="none" stroke="#000000" stroke-width="0.744" stroke-linecap="round" stroke-linejoin="miter" stroke-miterlimit="4" d="M 0 3.6664956 C 1.5000314 2.9765582 2.584048 1.6162009 2.92169 0 "/>
                                </g>
                                <g transform="translate(99.55140670871141 56.571629617874315)">
                                    <path class="typst-shape" fill="none" stroke="#000000" stroke-width="0.744" stroke-linecap="round" stroke-linejoin="miter" stroke-miterlimit="4" d="M 0 0 C 1.5000314 0.68993735 2.584048 2.0502946 2.92169 3.6664956 "/>
                                </g>
                                <g transform="translate(172.67946818537607 130.2135795706302)">
                                    <path class="typst-shape" fill="none" stroke="#000000" stroke-width="0.744" stroke-linecap="round" stroke-linejoin="miter" stroke-miterlimit="4" d="M 55.395805 0 L 0 0 "/>
                                </g>
                                <g transform="translate(174.8221886929634 126.54708408040152)">
                                    <path class="typst-shape" fill="none" stroke="#000000" stroke-width="0.744" stroke-linecap="round" stroke-linejoin="miter" stroke-miterlimit="4" d="M 0 3.6664956 C 1.5000314 2.9765582 2.584048 1.6162009 2.92169 0 "/>
                                </g>
                                <g transform="translate(174.8221886929634 130.21357969661446)">
                                    <path class="typst-shape" fill="none" stroke="#000000" stroke-width="0.744" stroke-linecap="round" stroke-linejoin="miter" stroke-miterlimit="4" d="M 0 0 C 1.5000314 0.68993735 2.584048 2.0502946 2.92169 3.6664956 "/>
                                </g>
                                <g transform="translate(172.67946840949884 126.54708408040152)">
                                    <path class="typst-shape" fill="none" stroke="#000000" stroke-width="0.744" stroke-linecap="round" stroke-linejoin="miter" stroke-miterlimit="4" d="M 0 3.6664956 C 1.5000314 2.9765582 2.584048 1.6162009 2.92169 0 "/>
                                </g>
                                <g transform="translate(172.67946840949884 130.21357969661446)">
                                    <path class="typst-shape" fill="none" stroke="#000000" stroke-width="0.744" stroke-linecap="round" stroke-linejoin="miter" stroke-miterlimit="4" d="M 0 0 C 1.5000314 0.68993735 2.584048 2.0502946 2.92169 3.6664956 "/>
                                </g>
                                <g transform="translate(159.78852500004996 75.55293350461449)">
                                    <path class="typst-shape" fill="none" stroke="#000000" stroke-width="0.744" stroke-linecap="round" stroke-linejoin="miter" stroke-miterlimit="4" d="M 0.000000000000025176711 0 L 0 41.769703 "/>
                                </g>
                                <g transform="translate(156.12202929722287 114.40094618918131)">
                                    <path class="typst-shape" fill="none" stroke="#000000" stroke-width="0.744" stroke-linecap="round" stroke-linejoin="miter" stroke-miterlimit="4" d="M 3.6664956 2.92169 C 2.9765582 1.4216586 1.6162009 0.33764195 0 0 "/>
                                </g>
                                <g transform="translate(159.78852491343582 114.40094618918131)">
                                    <path class="typst-shape" fill="none" stroke="#000000" stroke-width="0.744" stroke-linecap="round" stroke-linejoin="miter" stroke-miterlimit="4" d="M 0 2.92169 C 0.68993735 1.4216586 2.0502946 0.33764195 3.6664956 0 "/>
                                </g>
                                <g transform="translate(179.14182879699413 56.57162957063021)">
                                    <path class="typst-shape" fill="none" stroke="#000000" stroke-width="0.744" stroke-linecap="round" stroke-linejoin="miter" stroke-miterlimit="4" d="M 40.01314 0 L 0 0 "/>
                                </g>
                                <g transform="translate(179.14182897642797 52.90513400166137)">
                                    <path class="typst-shape" fill="none" stroke="#000000" stroke-width="0.744" stroke-linecap="round" stroke-linejoin="miter" stroke-miterlimit="4" d="M 0 3.6664956 C 1.5000314 2.9765582 2.584048 1.6162009 2.92169 0 "/>
                                </g>
                                <g transform="translate(179.14182897642797 56.571629617874315)">
                                    <path class="typst-shape" fill="none" stroke="#000000" stroke-width="0.744" stroke-linecap="round" stroke-linejoin="miter" stroke-miterlimit="4" d="M 0 0 C 1.5000314 0.68993735 2.584048 2.0502946 2.92169 3.6664956 "/>
                                </g>
                                <g transform="translate(238.13627500005006 75.55293350461397)">
                                    <path class="typst-shape" fill="none" stroke="#000000" stroke-width="0.744" stroke-linecap="round" stroke-linejoin="miter" stroke-miterlimit="4" d="M 0 0 L 0 41.515144 "/>
                                </g>
                                <g transform="translate(234.46977947045127 114.14638962225217)">
                                    <path class="typst-shape" fill="none" stroke="#000000" stroke-width="0.744" stroke-linecap="round" stroke-linejoin="miter" stroke-miterlimit="4" d="M 3.6664956 2.92169 C 2.9765582 1.4216586 1.6162009 0.33764195 0 0 "/>
                                </g>
                                <g transform="translate(238.13627508666417 114.14638962225217)">
                                    <path class="typst-shape" fill="none" stroke="#000000" stroke-width="0.744" stroke-linecap="round" stroke-linejoin="miter" stroke-miterlimit="4" d="M 0 2.92169 C 0.68993735 1.4216586 2.0502946 0.33764195 3.6664956 0 "/>
                                </g>
                                <g transform="translate(98.60221344834439 130.2135795706302)">
                                    <path class="typst-shape" fill="none" stroke="#000000" stroke-width="0.744" stroke-linecap="round" stroke-linejoin="miter" stroke-miterlimit="4" d="M 48.66737 0 L 0 0 "/>
                                </g>
                                <g transform="translate(98.6022137008374 126.54708408040152)">
                                    <path class="typst-shape" fill="none" stroke="#000000" stroke-width="0.744" stroke-linecap="round" stroke-linejoin="miter" stroke-miterlimit="4" d="M 0 3.6664956 C 1.5000314 2.9765582 2.584048 1.6162009 2.92169 0 "/>
                                </g>
                                <g transform="translate(98.6022137008374 130.21357969661446)">
                                    <path class="typst-shape" fill="none" stroke="#000000" stroke-width="0.744" stroke-linecap="round" stroke-linejoin="miter" stroke-miterlimit="4" d="M 0 0 C 1.5000314 0.68993735 2.584048 2.0502946 2.92169 3.6664956 "/>
                                </g>
                                <g transform="translate(20.673467115752967 130.2135795706302)">
                                    <path class="typst-shape" fill="none" stroke="#000000" stroke-width="0.744" stroke-linecap="round" stroke-linejoin="miter" stroke-miterlimit="4" d="M 0 0 L 49.82912 0 "/>
                                </g>
                                <g transform="translate(67.58089631938849 130.21357969661446)">
                                    <path class="typst-shape" fill="none" stroke="#000000" stroke-width="0.744" stroke-linecap="round" stroke-linejoin="miter" stroke-miterlimit="4" d="M 2.92169 0 C 1.4216586 0.68993735 0.33764195 2.0502946 0 3.6664956 "/>
                                </g>
                                <g transform="translate(67.58089631938849 126.54708408040152)">
                                    <path class="typst-shape" fill="none" stroke="#000000" stroke-width="0.744" stroke-linecap="round" stroke-linejoin="miter" stroke-miterlimit="4" d="M 2.92169 3.6664956 C 1.4216586 2.9765582 0.33764195 1.6162009 0 0 "/>
                                </g>
                                <g transform="translate(9.620075000049999 74.62479751386593)">
                                    <path class="typst-shape" fill="none" stroke="#000000" stroke-width="0.744" stroke-linecap="round" stroke-linejoin="miter" stroke-miterlimit="4" d="M 0 0 L 0 44.16339 "/>
                                </g>
                                <g transform="translate(5.953579249978796 115.86649711831515)">
                                    <path class="typst-shape" fill="none" stroke="#000000" stroke-width="0.744" stroke-linecap="round" stroke-linejoin="miter" stroke-miterlimit="4" d="M 3.6664956 2.92169 C 2.9765582 1.4216586 1.6162009 0.33764195 0 0 "/>
                                </g>
                                <g transform="translate(9.620074866191734 115.86649711831515)">
                                    <path class="typst-shape" fill="none" stroke="#000000" stroke-width="0.744" stroke-linecap="round" stroke-linejoin="miter" stroke-miterlimit="4" d="M 0 2.92169 C 0.68993735 1.4216586 2.0502946 0.33764195 3.6664956 0 "/>
                                </g>
                                <g transform="translate(84.55240000005001 71.19863638735802)">
                                    <path class="typst-shape" fill="none" stroke="#000000" stroke-width="0.744" stroke-linecap="round" stroke-linejoin="miter" stroke-miterlimit="4" d="M 0 0 L 0 44.96513 "/>
                                </g>
                                <g transform="translate(80.88590425785281 113.24207585847265)">
                                    <path class="typst-shape" fill="none" stroke="#000000" stroke-width="0.744" stroke-linecap="round" stroke-linejoin="miter" stroke-miterlimit="4" d="M 3.6664956 2.92169 C 2.9765582 1.4216586 1.6162009 0.33764195 0 0 "/>
                                </g>
                                <g transform="translate(84.55239987406576 113.24207585847265)">
                                    <path class="typst-shape" fill="none" stroke="#000000" stroke-width="0.744" stroke-linecap="round" stroke-linejoin="miter" stroke-miterlimit="4" d="M 0 2.92169 C 0.68993735 1.4216586 2.0502946 0.33764195 3.6664956 0 "/>
                                </g>
                                <g transform="translate(96.67773739340532 26.140664014189706)">
                                    <path class="typst-shape" fill="none" stroke="#000000" stroke-width="0.744" stroke-linecap="round" stroke-linejoin="miter" stroke-miterlimit="4" d="M 126.10885 19.278765 C 87.98027 -7.2613344 37.12035 -6.31998 0 21.612883 "/>
                                </g>
                                <g transform="translate(96.68084267721537 43.073238557210196)">
                                    <path class="typst-shape" fill="none" stroke="#000000" stroke-width="0.744" stroke-linecap="round" stroke-linejoin="miter" stroke-miterlimit="4" d="M 0 4.6844797 C 0.8014889 3.2409692 0.87101084 1.5029154 0.18737872 0 "/>
                                </g>
                                <g transform="translate(96.68084267721537 47.652024748950446)">
                                    <path class="typst-shape" fill="none" stroke="#000000" stroke-width="0.744" stroke-linecap="round" stroke-linejoin="miter" stroke-miterlimit="4" d="M 0 0.10569369 C 1.6176045 -0.22515835 3.296271 0.23062968 4.524417 1.3341539 "/>
                                </g>
                                <g transform="translate(152.64886755479526 0)">
                                    <path class="typst-shape" fill="none" d="M 0 0 L 12.7875 0 L 12.7875 19.964 L 0 19.964 L 0 0 Z "/>
                                </g>
                                <g transform="translate(152.6488674603071 -0.00000006299212224452433)">
                                    <g class="typst-group">
                                        <g>
                                            <g transform="translate(0 0)">
                                                <g class="typst-group">
                                                    <g>
                                                        <g transform="translate(0 0)">
                                                            <g class="typst-group">
                                                                <g>
                                                                    <g transform="translate(0 0)">
                                                                        <g class="typst-group">
                                                                            <g>
                                                                                <g transform="translate(3.1000000000000005 13.6865)">
                                                                                    <g class="typst-text" transform="scale(1, -1)">
                                                                                        <use xlink:href="#g591DC27C083A341BAEA286343BBCFC8" x="0" fill="#000000" fill-rule="nonzero"/>
                                                                                    </g>
                                                                                </g>
                                                                            </g>
                                                                        </g>
                                                                    </g>
                                                                </g>
                                                            </g>
                                                        </g>
                                                    </g>
                                                </g>
                                            </g>
                                        </g>
                                    </g>
                                </g>
                                <g transform="translate(0.0000000000000015735444443506155 49.309879570630216)">
                                    <path class="typst-shape" fill="none" d="M 0 0 L 19.24015 0 L 19.24015 14.5235 L 0 14.5235 L 0 0 Z "/>
                                </g>
                                <g transform="translate(-0.000000055068112058105775 49.30987950763809)">
                                    <g class="typst-group">
                                        <g>
                                            <g transform="translate(0 0)">
                                                <g class="typst-group">
                                                    <g>
                                                        <g transform="translate(0 0)">
                                                            <g class="typst-group">
                                                                <g>
                                                                    <g transform="translate(0.00000000005000072447069752 12.555000000000001)">
                                                                        <g class="typst-text" transform="scale(1, -1)">
                                                                            <use xlink:href="#g4F703E6593DE2699BCEF8BADE08B3D1" x="0" fill="#000000" fill-rule="nonzero"/>
                                                                        </g>
                                                                    </g>
                                                                    <g transform="translate(12.524000000049998 16.383499999999998)">
                                                                        <g class="typst-text" transform="scale(1, -1)">
                                                                            <use xlink:href="#g4842950D6C4D8B9382A577717CE9574A" x="0" fill="#000000" fill-rule="nonzero"/>
                                                                        </g>
                                                                    </g>
                                                                </g>
                                                            </g>
                                                        </g>
                                                    </g>
                                                </g>
                                            </g>
                                        </g>
                                    </g>
                                </g>
                                <g transform="translate(77.74015 51.278379570630214)">
                                    <path class="typst-shape" fill="none" d="M 0 0 L 13.6245 0 L 13.6245 10.5865 L 0 10.5865 L 0 0 Z "/>
                                </g>
                                <g transform="translate(77.7401499055618 51.27837949189005)">
                                    <g class="typst-group">
                                        <g>
                                            <g transform="translate(0 0)">
                                                <g class="typst-group">
                                                    <g>
                                                        <g transform="translate(0 0)">
                                                            <g class="typst-group">
                                                                <g>
                                                                    <g transform="translate(0.000000000049999829298746954 10.586499999999997)">
                                                                        <g class="typst-text" transform="scale(1, -1)">
                                                                            <use xlink:href="#g4F703E6593DE2699BCEF8BADE08B3D1" x="0" fill="#000000" fill-rule="nonzero"/>
                                                                        </g>
                                                                    </g>
                                                                </g>
                                                            </g>
                                                        </g>
                                                    </g>
                                                </g>
                                            </g>
                                        </g>
                                    </g>
                                </g>
                                <g transform="translate(149.86464999999998 48.20317957063022)">
                                    <path class="typst-shape" fill="none" d="M 0 0 L 19.84775 0 L 19.84775 16.7369 L 0 16.7369 L 0 0 Z "/>
                                </g>
                                <g transform="translate(149.8646499134358 48.203179554882176)">
                                    <g class="typst-group">
                                        <g>
                                            <g transform="translate(0 0)">
                                                <g class="typst-group">
                                                    <g>
                                                        <g transform="translate(0 0)">
                                                            <g class="typst-group">
                                                                <g>
                                                                    <g transform="translate(0.00000000005000072447069752 13.6617)">
                                                                        <g class="typst-text" transform="scale(1, -1)">
                                                                            <use xlink:href="#g4F703E6593DE2699BCEF8BADE08B3D1" x="0" fill="#000000" fill-rule="nonzero"/>
                                                                        </g>
                                                                    </g>
                                                                    <g transform="translate(12.524000000049998 17.4902)">
                                                                        <g class="typst-text" transform="scale(1, -1)">
                                                                            <use xlink:href="#g6063A36A208BE7C8E6816594FEED0D5F" x="0" fill="#000000" fill-rule="nonzero"/>
                                                                        </g>
                                                                    </g>
                                                                </g>
                                                            </g>
                                                        </g>
                                                    </g>
                                                </g>
                                            </g>
                                        </g>
                                    </g>
                                </g>
                                <g transform="translate(155.72752499999996 125.11407957063022)">
                                    <path class="typst-shape" fill="none" d="M 0 0 L 8.122 0 L 8.122 10.199 L 0 10.199 L 0 0 Z "/>
                                </g>
                                <g transform="translate(155.72752487406572 125.11407950763808)">
                                    <g class="typst-group">
                                        <g>
                                            <g transform="translate(0 0)">
                                                <g class="typst-group">
                                                    <g>
                                                        <g transform="translate(0 0)">
                                                            <g class="typst-group">
                                                                <g>
                                                                    <g transform="translate(0.000000000049999829298746954 10.39275)">
                                                                        <g class="typst-text" transform="scale(1, -1)">
                                                                            <use xlink:href="#g99F198549A3B2A7D4DE48B5BD2FE565D" x="0" fill="#000000" fill-rule="nonzero"/>
                                                                        </g>
                                                                    </g>
                                                                </g>
                                                            </g>
                                                        </g>
                                                    </g>
                                                </g>
                                            </g>
                                        </g>
                                    </g>
                                </g>
                                <g transform="translate(234.07527500000003 123.44007957063022)">
                                    <path class="typst-shape" fill="none" d="M 0 0 L 8.122 0 L 8.122 13.547 L 0 13.547 L 0 0 Z "/>
                                </g>
                                <g transform="translate(234.0752748740658 123.44007950763807)">
                                    <g class="typst-group">
                                        <g>
                                            <g transform="translate(0 0)">
                                                <g class="typst-group">
                                                    <g>
                                                        <g transform="translate(0 0)">
                                                            <g class="typst-group">
                                                                <g>
                                                                    <g transform="translate(0.000000000049999829298746954 12.066749999999999)">
                                                                        <g class="typst-text" transform="scale(1, -1)">
                                                                            <use xlink:href="#g99F198549A3B2A7D4DE48B5BD2FE565D" x="0" fill="#000000" fill-rule="nonzero"/>
                                                                        </g>
                                                                    </g>
                                                                    <g transform="translate(0.000000000049999829298746954 2.983749999999999)">
                                                                        <path class="typst-shape" fill="none" stroke="#000000" stroke-width="0.744" stroke-linecap="butt" stroke-linejoin="miter" stroke-miterlimit="4" d="M 0 0 L 8.122 0 "/>
                                                                    </g>
                                                                </g>
                                                            </g>
                                                        </g>
                                                    </g>
                                                </g>
                                            </g>
                                        </g>
                                    </g>
                                </g>
                                <g transform="translate(228.21240000000006 48.20317957063022)">
                                    <path class="typst-shape" fill="none" d="M 0 0 L 19.84775 0 L 19.84775 16.7369 L 0 16.7369 L 0 0 Z "/>
                                </g>
                                <g transform="translate(228.21239991343586 48.203179554882176)">
                                    <g class="typst-group">
                                        <g>
                                            <g transform="translate(0 0)">
                                                <g class="typst-group">
                                                    <g>
                                                        <g transform="translate(0 0)">
                                                            <g class="typst-group">
                                                                <g>
                                                                    <g transform="translate(0.00000000005000072447069752 13.6617)">
                                                                        <g class="typst-text" transform="scale(1, -1)">
                                                                            <use xlink:href="#g4F703E6593DE2699BCEF8BADE08B3D1" x="0" fill="#000000" fill-rule="nonzero"/>
                                                                        </g>
                                                                    </g>
                                                                    <g transform="translate(12.524000000049998 17.4902)">
                                                                        <g class="typst-text" transform="scale(1, -1)">
                                                                            <use xlink:href="#g6063A36A208BE7C8E6816594FEED0D5F" x="0" fill="#000000" fill-rule="nonzero"/>
                                                                        </g>
                                                                    </g>
                                                                    <g transform="translate(12.524000000049998 11.142949999999999)">
                                                                        <path class="typst-shape" fill="none" stroke="#000000" stroke-width="0.5207999999999999" stroke-linecap="butt" stroke-linejoin="miter" stroke-miterlimit="4" d="M 0 0 L 6.45575 0 "/>
                                                                    </g>
                                                                </g>
                                                            </g>
                                                        </g>
                                                    </g>
                                                </g>
                                            </g>
                                        </g>
                                    </g>
                                </g>
                                <g transform="translate(79.33664999999999 124.57932957063021)">
                                    <path class="typst-shape" fill="none" d="M 0 0 L 10.4315 0 L 10.4315 11.2685 L 0 11.2685 L 0 0 Z "/>
                                </g>
                                <g transform="translate(79.33664998430196 124.57932955488216)">
                                    <g class="typst-group">
                                        <g>
                                            <g transform="translate(0 0)">
                                                <g class="typst-group">
                                                    <g>
                                                        <g transform="translate(0 0)">
                                                            <g class="typst-group">
                                                                <g>
                                                                    <g transform="translate(0.000000000049999829298746954 10.9275)">
                                                                        <g class="typst-text" transform="scale(1, -1)">
                                                                            <use xlink:href="#g9EF23C1266A444A4D4244076180B4DFC" x="0" fill="#000000" fill-rule="nonzero"/>
                                                                        </g>
                                                                    </g>
                                                                </g>
                                                            </g>
                                                        </g>
                                                    </g>
                                                </g>
                                            </g>
                                        </g>
                                    </g>
                                </g>
                                <g transform="translate(5.985325000000001 126.7028295706302)">
                                    <path class="typst-shape" fill="none" d="M 0 0 L 7.2695 0 L 7.2695 7.0215 L 0 7.0215 L 0 0 Z "/>
                                </g>
                                <g transform="translate(5.985324937057872 126.70282952338611)">
                                    <g class="typst-group">
                                        <g>
                                            <g transform="translate(0 0)">
                                                <g class="typst-group">
                                                    <g>
                                                        <g transform="translate(0 0)">
                                                            <g class="typst-group">
                                                                <g>
                                                                    <g transform="translate(0.00000000004999893412679639 8.804000000000002)">
                                                                        <g class="typst-text" transform="scale(1, -1)">
                                                                            <use xlink:href="#g6249AB7AFF07A622A9A574D9623D6E2C" x="0" fill="#000000" fill-rule="nonzero"/>
                                                                        </g>
                                                                    </g>
                                                                </g>
                                                            </g>
                                                        </g>
                                                    </g>
                                                </g>
                                            </g>
                                        </g>
                                    </g>
                                </g>
                            </g>
                        </g>
                    </g>
                </g>
            </g>
        </g>
    </g>
    <defs id="glyph">
        <symbol id="g4F82B9AEE47BC4B59D5ED1019E8548D7" overflow="visible">
            <path d="M 4.402 9.6255 C 4.402 10.044 4.2005 10.2455 3.7819998 10.2455 C 3.348 10.2455 2.914 9.8115 2.914 9.3775 C 2.914 8.959 3.131 8.7575 3.5495 8.7575 C 3.9835 8.7575 4.402 9.1915 4.402 9.6255 Z M 4.0145 2.139 C 3.6734998 0.9145 3.1775 0.2945 2.542 0.2945 C 2.3404999 0.2945 2.2319999 0.434 2.2319999 0.7285 C 2.2319999 0.992 2.6815 2.325 3.596 4.743 C 3.72 5.0994997 3.7819998 5.3785 3.7819998 5.58 C 3.7819998 6.3395 3.2549999 6.8975 2.4954998 6.8975 C 1.829 6.8975 1.3019999 6.5099998 0.9145 5.7195 C 0.6045 5.084 0.4495 4.6654997 0.4495 4.4639997 C 0.4495 4.3245 0.527 4.2625 0.6975 4.2625 C 0.899 4.2625 0.93 4.3554997 0.992 4.5724998 C 1.3485 5.8125 1.829 6.4325 2.449 6.4325 C 2.6505 6.4325 2.759 6.2929997 2.759 5.9985 C 2.759 5.7815 2.7124999 5.5334997 2.6039999 5.239 C 2.2475 4.2625 1.8755 3.224 1.5655 2.4025 C 1.333 1.7825 1.209 1.364 1.209 1.147 C 1.209 0.3875 1.767 -0.1705 2.511 -0.1705 C 3.1775 -0.1705 3.7045 0.217 4.092 0.992 C 4.3865 1.5964999 4.5415 2.0149999 4.5415 2.2475 C 4.5415 2.3869998 4.4639997 2.4645 4.2935 2.4645 C 4.2469997 2.4645 4.0145 2.325 4.0145 2.139 Z "/>
        </symbol>
        <symbol id="g591DC27C083A341BAEA286343BBCFC8" overflow="visible">
            <path d="M 6.1535 9.6255 C 6.1535 10.044 5.9365 10.2455 5.518 10.2455 C 5.084 10.2455 4.65 9.8115 4.65 9.3775 C 4.65 8.959 4.8515 8.7575 5.27 8.7575 C 5.704 8.7575 6.1535 9.1915 6.1535 9.6255 Z M 4.1384997 6.882 C 3.317 6.882 2.6195 6.262 2.2785 5.7195 C 1.86 5.053 1.6585 4.6345 1.6585 4.4485 C 1.6585 4.309 1.736 4.2469997 1.8909999 4.2469997 C 1.9685 4.2469997 2.0149999 4.2625 2.0615 4.278 C 2.139 4.402 2.1855 4.5105 2.2319999 4.588 C 2.728 5.8125 3.348 6.417 4.092 6.417 C 4.371 6.417 4.5105 6.2 4.5105 5.7815 C 4.5105 5.549 4.4795 5.2855 4.402 5.0065 L 2.9759998 -0.713 C 2.759 -1.612 2.139 -2.7124999 1.1625 -2.7124999 C 1.023 -2.7124999 0.8835 -2.697 0.74399996 -2.6505 C 1.1315 -2.4954998 1.3175 -2.2165 1.3175 -1.829 C 1.3175 -1.426 1.1005 -1.2245 0.682 -1.2245 C 0.18599999 -1.2245 -0.2015 -1.674 -0.2015 -2.17 C -0.2015 -2.852 0.465 -3.1775 1.1934999 -3.1775 C 1.86 -3.1775 2.48 -2.945 3.0535 -2.48 C 3.596 -2.0305 3.937 -1.457 4.1075 -0.7905 L 5.518 4.8205 C 5.5645 5.022 5.5955 5.2235 5.5955 5.4095 C 5.5955 6.262 4.9909997 6.882 4.1384997 6.882 Z "/>
        </symbol>
        <symbol id="g4F703E6593DE2699BCEF8BADE08B3D1" overflow="visible">
            <path d="M 12.927 10.5865 C 12.6635 10.5865 11.749 10.54 11.485499 10.54 C 11.1755 10.54 10.0905 10.5865 9.780499 10.5865 C 9.547999 10.5865 9.424 10.4625 9.424 10.214499 C 9.424 10.075 9.5015 9.997499 9.672 9.981999 C 10.044 9.9355 10.23 9.8115 10.23 9.5789995 C 10.23 9.4395 10.137 9.269 9.951 9.0675 L 7.533 6.4635 C 7.0835 7.5175 6.6495 8.556 6.2 9.61 C 6.2155 9.641 6.231 9.672 6.2774997 9.703 C 6.417 9.858 6.6805 9.951 7.0525 9.981999 C 7.3005 10.013 7.4245 10.137 7.4245 10.3385 C 7.4245 10.509 7.3315 10.5865 7.13 10.5865 C 6.758 10.5865 5.5645 10.54 5.1925 10.54 C 4.867 10.54 3.7975 10.5865 3.472 10.5865 C 3.2395 10.5865 3.131 10.4625 3.131 10.214499 C 3.131 10.0595 3.2705 9.981999 3.5495 9.981999 C 4.2469997 9.981999 4.4639997 9.981999 4.65 9.5325 L 6.448 5.301 L 3.224 1.8445 C 3.1775 1.798 3.1155 1.736 3.0379999 1.6895 C 2.4025 1.023 1.674 0.65099996 0.8215 0.6045 C 0.55799997 0.589 0.4185 0.4495 0.4185 0.217 C 0.465 0.0775 0.48049998 0 0.682 0 C 0.94549996 0 1.86 0.046499997 2.1234999 0.046499997 C 2.449 0.046499997 3.5184999 0 3.8439999 0 C 4.0765 0 4.185 0.124 4.185 0.37199998 C 4.185 0.5115 4.1075 0.589 3.937 0.6045 C 3.565 0.6355 3.379 0.775 3.379 1.0074999 C 3.379 1.1625 3.5184999 1.3795 3.7819998 1.6585 C 4.743 2.6815 5.7195 3.7045 6.665 4.743 C 7.192 3.4875 7.7345 2.2475 8.246 0.9765 C 8.2305 0.94549996 8.215 0.9145 8.1685 0.868 C 8.029 0.7285 7.7809997 0.65099996 7.409 0.6045 C 7.1765 0.5735 7.0525 0.4495 7.0525 0.248 C 7.0525 0.0775 7.1454997 0 7.3469996 0 L 9.2845 0.046499997 C 9.61 0.046499997 10.695 0 10.974 0 C 11.2065 0 11.3305 0.124 11.3305 0.3565 C 11.3305 0.5115 11.222 0.589 10.9895 0.6045 C 10.509 0.6045 10.198999 0.62 10.0905 0.682 C 9.981999 0.74399996 9.858 0.93 9.734 1.24 L 7.7655 5.9365 C 8.8195 7.0525 9.61 7.8894997 10.1215 8.463 C 10.4935 8.8505 10.7415 9.114 10.881 9.2225 C 11.4545 9.703 12.09 9.951 12.787499 9.981999 C 13.113 9.997499 13.1905 10.075 13.1905 10.3695 C 13.144 10.509 13.1285 10.5865 12.927 10.5865 Z "/>
        </symbol>
        <symbol id="g4842950D6C4D8B9382A577717CE9574A" overflow="visible">
            <path d="M 5.0995 3.8192 C 5.0995 4.4919 4.39425 4.78485 3.6456 4.78485 C 2.8644001 4.78485 2.31105 4.557 1.9964 4.1013002 C 1.7577001 3.76495 1.63835 3.4611502 1.63835 3.1899002 C 1.63835 2.67995 1.9096 2.33275 2.4521 2.1483 C 2.54975 2.11575 2.821 2.0615 3.255 1.98555 C 3.83005 1.87705 4.123 1.66005 4.123 1.3237001 C 4.123 1.20435 4.0796 1.07415 3.9928 0.9114 C 3.76495 0.48825002 3.2767 0.27125 2.5389001 0.27125 C 1.94215 0.27125 1.5407001 0.40145 1.33455 0.651 C 1.6275 0.70525 1.8879 0.9548 1.8879 1.29115 C 1.8879 1.5841 1.7360001 1.72515 1.4322001 1.72515 C 1.0199 1.72515 0.77035004 1.3779501 0.77035004 0.96565 C 0.77035004 0.20615001 1.6709 -0.108500004 2.52805 -0.108500004 C 3.26585 -0.108500004 3.83005 0.0651 4.22065 0.40145 C 4.6655 0.7812 4.8825 1.2152001 4.8825 1.6926 C 4.8825 2.3653 4.3834 2.7993 3.3852 2.98375 C 3.20075 3.0271502 3.0597 3.0597 2.96205 3.07055 C 2.5931501 3.1356502 2.4087 3.2984002 2.4087 3.5588 C 2.4087 3.6781502 2.4521 3.7866502 2.52805 3.9060001 C 2.7342 4.24235 3.1031 4.4051 3.6347501 4.4051 C 4.0904503 4.4051 4.4051 4.2966 4.56785 4.0796 C 4.2966 3.9928 4.15555 3.8192 4.15555 3.54795 C 4.15555 3.2984002 4.28575 3.1682 4.54615 3.1682 C 4.87165 3.1682 5.0995 3.4503 5.0995 3.8192 Z "/>
        </symbol>
        <symbol id="g6063A36A208BE7C8E6816594FEED0D5F" overflow="visible">
            <path d="M 1.7794 4.78485 C 1.2803 4.78485 0.90055 4.3834 0.64015 3.5696502 C 0.55335003 3.30925 0.50995 3.15735 0.50995 3.1031 C 0.50995 2.98375 0.5859 2.9186502 0.7378 2.9186502 C 0.9548 2.9186502 0.94395 3.038 1.00905 3.2767 C 1.1935 4.02535 1.44305 4.39425 1.74685 4.39425 C 1.9530001 4.39425 2.0615 4.2315 2.0615 3.91685 C 2.0615 3.7975001 2.00725 3.50455 1.8879 3.038 L 1.31285 0.70525 C 1.2369 0.41230002 1.20435 0.2604 1.20435 0.24955 C 1.20435 0 1.33455 -0.1302 1.6058 -0.1302 C 1.8119501 -0.1302 1.96385 -0.0434 2.0615 0.11935 C 2.1049001 0.1953 2.17 0.42315 2.2568 0.8029 L 2.4955 1.7577001 C 2.6691 2.44125 2.7125 2.83185 3.00545 3.28755 C 3.48285 4.02535 4.0362 4.39425 4.67635 4.39425 C 5.0669503 4.39425 5.26225 4.15555 5.26225 3.6890001 C 5.26225 3.50455 5.24055 3.30925 5.1863003 3.11395 L 3.98195 -1.7034501 C 3.9494002 -1.8228 3.93855 -1.8987501 3.93855 -1.9313 C 3.93855 -2.1917 4.0796 -2.3219001 4.35085 -2.3219001 C 4.6221 -2.3219001 4.80655 -2.13745 4.9042 -1.7794 L 6.0651503 2.9186502 C 6.1194 3.1465 6.15195 3.3526502 6.15195 3.5154002 C 6.15195 4.3617 5.67455 4.78485 4.71975 4.78485 C 4.0579 4.78485 3.4611502 4.48105 2.94035 3.8843 C 2.85355 4.4268003 2.387 4.78485 1.7794 4.78485 Z "/>
        </symbol>
        <symbol id="g99F198549A3B2A7D4DE48B5BD2FE565D" overflow="visible">
            <path d="M 5.8745 6.851 C 4.929 6.851 4.154 6.4325 3.5495 5.611 C 3.441 6.3085 2.8985 6.851 2.108 6.851 C 1.4725 6.851 1.0074999 6.3395 0.682 5.332 C 0.527 4.8205 0.4495 4.526 0.4495 4.433 C 0.4495 4.2935 0.527 4.216 0.6975 4.216 C 0.775 4.216 0.8215 4.2315 0.868 4.2625 C 0.94549996 4.402 0.992 4.5105 1.0074999 4.619 C 1.2865 5.797 1.643 6.3859997 2.0615 6.3859997 C 2.3404999 6.3859997 2.48 6.1689997 2.48 5.7504997 C 2.48 5.549 2.4025 5.115 2.2319999 4.4795 L 1.3485 0.94549996 C 1.3019999 0.74399996 1.209 0.341 1.209 0.2635 C 1.209 -0.046499997 1.3795 -0.2015 1.7205 -0.2015 C 2.0149999 -0.2015 2.2319999 -0.046499997 2.3404999 0.2635 C 2.356 0.341 2.449 0.7285 2.6195 1.395 L 2.9605 2.7745 C 3.1464999 3.534 3.286 4.1075 3.3945 4.495 C 3.441 4.6035 3.565 4.8205 3.7665 5.1305 C 4.3245 5.9674997 5.0065 6.3859997 5.828 6.3859997 C 6.3395 6.3859997 6.5875 6.045 6.5875 5.3785 C 6.5875 5.146 6.541 4.836 6.4325 4.433 L 4.6965 -2.6195 C 4.6654997 -2.7435 4.65 -2.8209999 4.65 -2.8675 C 4.65 -3.1929998 4.8205 -3.348 5.146 -3.348 C 5.487 -3.348 5.7195 -3.131 5.828 -2.6815 L 7.5639997 4.2469997 C 7.6415 4.5724998 7.6879997 4.8824997 7.6879997 5.146 C 7.6879997 6.262 6.9905 6.851 5.8745 6.851 Z "/>
        </symbol>
        <symbol id="g9EF23C1266A444A4D4244076180B4DFC" overflow="visible">
            <path d="M 2.0615 2.4335 C 2.0615 2.8055 2.108 3.1155 2.1855 3.3634999 C 2.1855 3.5184999 2.108 3.596 1.9375 3.596 C 1.86 3.596 1.798 3.565 1.767 3.534 C 1.6895 3.4565 0.806 0.124 0.806 -0.124 C 0.806 -0.2635 0.8835 -0.341 1.0385 -0.341 C 1.1159999 -0.341 1.2245 -0.2635 1.364 -0.092999995 L 2.0615 0.7285 C 2.6039999 0.0155 3.472 -0.341 4.65 -0.341 C 5.673 -0.341 6.572 0.0775 7.378 0.899 C 8.184 1.7205 8.587 2.635 8.587 3.658 C 8.587 4.3865 8.339 5.0065 7.8275 5.5025 C 7.595 5.704 7.285 5.8745 6.8975 6.014 C 6.541 6.0915 6.2 6.1844997 5.8589997 6.2774997 L 4.836 6.5565 C 4.3245 6.696 3.937 7.2695 3.937 7.8894997 C 3.937 8.556 4.2005 9.129499 4.743 9.6255 C 5.2855 10.1215 5.89 10.3695 6.5565 10.3695 C 7.9825 10.3695 8.695499 9.5945 8.695499 8.059999 C 8.695499 7.7809997 8.6335 7.4709997 8.6335 7.2075 L 8.6335 7.161 C 8.68 7.0525 8.7575 6.9905 8.8815 6.9905 C 9.021 6.9905 9.114 7.1145 9.176 7.3469996 L 9.997499 10.7105 C 9.997499 10.849999 9.92 10.9275 9.764999 10.9275 C 9.6875 10.9275 9.5789995 10.849999 9.4395 10.6795 L 8.773 9.8735 C 8.339 10.571 7.6105 10.9275 6.572 10.9275 C 5.5955 10.9275 4.712 10.5555 3.937 9.827 C 3.131 9.083 2.728 8.2305 2.728 7.2539997 C 2.728 6.138 3.4565 5.2545 4.371 5.0065 L 5.9985 4.588 C 6.8355 4.3554997 7.3624997 4.061 7.3624997 3.0225 C 7.3624997 2.3095 7.0835 1.674 6.541 1.1159999 C 5.9985 0.55799997 5.3785 0.2635 4.6809998 0.2635 C 3.162 0.2635 2.0615 0.93 2.0615 2.4335 Z "/>
        </symbol>
        <symbol id="g6249AB7AFF07A622A9A574D9623D6E2C" overflow="visible">
            <path d="M 6.5099998 5.487 C 6.5099998 6.3705 5.611 6.851 4.65 6.851 C 3.6734998 6.851 2.9759998 6.5565 2.5575 5.9674997 C 2.201 5.456 2.0149999 4.9909997 2.0149999 4.5724998 C 2.0149999 3.751 2.5575 3.224 3.6269999 2.9915 C 4.0765 2.914 4.4175 2.8055 4.6809998 2.6815 C 5.0065 2.542 5.1615 2.2785 5.1615 1.9065 C 5.1615 1.6274999 5.0375 1.3175 4.7739997 0.96099997 C 4.4485 0.5115 3.875 0.27899998 3.0535 0.27899998 C 2.2165 0.27899998 1.674 0.5115 1.426 0.96099997 C 1.9219999 0.94549996 2.3404999 1.3485 2.3404999 1.8445 C 2.3404999 2.2319999 2.139 2.4335 1.7205 2.4335 C 1.1625 2.4335 0.806 1.9219999 0.806 1.364 C 0.806 0.341 1.9219999 -0.1705 3.0379999 -0.1705 C 4.2005 -0.1705 5.0375 0.1705 5.5334997 0.868 C 5.9519997 1.4415 6.1535 1.953 6.1535 2.418 C 6.1535 3.0844998 5.828 3.5805 5.1925 3.906 C 4.712 4.0765 4.34 4.185 4.1075 4.2315 C 3.565 4.371 3.007 4.4175 3.007 5.084 C 3.007 5.9055 3.7819998 6.4014997 4.65 6.4014997 C 5.301 6.4014997 5.7195 6.2 5.921 5.8125 C 5.58 5.7504997 5.2235 5.456 5.2235 5.0685 C 5.2235 4.743 5.394 4.5724998 5.7504997 4.5724998 C 6.231 4.5724998 6.5099998 5.0065 6.5099998 5.487 Z "/>
        </symbol>
    </defs>
</svg>
