<svg class="typst-doc" viewBox="0 0 292.7538111112111 95.45509999999999" width="292.7538111112111pt" height="95.45509999999999pt" xmlns="http://www.w3.org/2000/svg" xmlns:xlink="http://www.w3.org/1999/xlink" xmlns:h5="http://www.w3.org/1999/xhtml">
    <path class="typst-shape" fill="#00000000" fill-rule="nonzero" d="M 0 0 L 0 95.4551 L 292.7538 95.4551 L 292.7538 0 Z "/>
    <g>
        <g transform="translate(0 1.5500000000000003)">
            <g class="typst-group">
                <g>
                    <g transform="translate(0 0)">
                        <g class="typst-group">
                            <g>
                                <g transform="translate(212.957536031546 83.91457500000001)">
                                    <path class="typst-shape" fill="none" stroke="#000000" stroke-width="0.744" stroke-linecap="round" stroke-linejoin="miter" stroke-miterlimit="4" stroke-dashoffset="0" stroke-dasharray="3 3" d="M 53.364334 0 L 0 0 "/>
                                </g>
                                <g transform="translate(266.3164968189476 80.26897459212597)">
                                    <path class="typst-shape" fill="#000000" fill-rule="nonzero" stroke="#000000" stroke-width="0.744" stroke-linecap="round" stroke-linejoin="miter" stroke-miterlimit="4" d="M 0 0 L 0 7.291201 "/>
                                </g>
                                <g transform="translate(212.95753634650669 80.24807943890517)">
                                    <path class="typst-shape" fill="none" stroke="#000000" stroke-width="0.744" stroke-linecap="round" stroke-linejoin="miter" stroke-miterlimit="4" d="M 0 3.6664956 C 1.5000314 2.9765582 2.584048 1.6162009 2.92169 0 "/>
                                </g>
                                <g transform="translate(212.95753634650669 83.9145750551181)">
                                    <path class="typst-shape" fill="none" stroke="#000000" stroke-width="0.744" stroke-linecap="round" stroke-linejoin="miter" stroke-miterlimit="4" d="M 0 0 C 1.5000314 0.68993735 2.584048 2.0502946 2.92169 3.6664956 "/>
                                </g>
                                <g transform="translate(182.4830361111611 23.29954997637795)">
                                    <path class="typst-shape" fill="none" stroke="#000000" stroke-width="0.744" stroke-linecap="round" stroke-linejoin="miter" stroke-miterlimit="4" stroke-dashoffset="0" stroke-dasharray="3 3" d="M 0.000000000000025176711 46.1745 L 0 0 "/>
                                </g>
                                <g transform="translate(178.83743556855393 69.46939533858267)">
                                    <path class="typst-shape" fill="#000000" fill-rule="nonzero" stroke="#000000" stroke-width="0.744" stroke-linecap="round" stroke-linejoin="miter" stroke-miterlimit="4" d="M 7.291201 0 L 0 0 "/>
                                </g>
                                <g transform="translate(182.48303603154605 23.29954982677165)">
                                    <path class="typst-shape" fill="none" stroke="#000000" stroke-width="0.744" stroke-linecap="round" stroke-linejoin="miter" stroke-miterlimit="4" d="M 0 0 C 0.68993735 1.5000314 2.0502946 2.584048 3.6664956 2.92169 "/>
                                </g>
                                <g transform="translate(178.81654041533312 23.29954982677165)">
                                    <path class="typst-shape" fill="none" stroke="#000000" stroke-width="0.744" stroke-linecap="round" stroke-linejoin="miter" stroke-miterlimit="4" d="M 3.6664956 0 C 2.9765582 1.5000314 1.6162009 2.584048 0 2.92169 "/>
                                </g>
                                <g transform="translate(45.09690555560555 23.34604997637796)">
                                    <path class="typst-shape" fill="none" stroke="#000000" stroke-width="0.744" stroke-linecap="round" stroke-linejoin="miter" stroke-miterlimit="4" stroke-dashoffset="0" stroke-dasharray="3 3" d="M 0.000000000000018882533 43.144405 L 0 0 "/>
                                </g>
                                <g transform="translate(41.451305111861025 66.48610226771653)">
                                    <path class="typst-shape" fill="#000000" fill-rule="nonzero" stroke="#000000" stroke-width="0.744" stroke-linecap="round" stroke-linejoin="miter" stroke-miterlimit="4" d="M 7.291201 0 L 0 0 "/>
                                </g>
                                <g transform="translate(45.096905574853146 23.346049921259834)">
                                    <path class="typst-shape" fill="none" stroke="#000000" stroke-width="0.744" stroke-linecap="round" stroke-linejoin="miter" stroke-miterlimit="4" d="M 0 0 C 0.68993735 1.5000314 2.0502946 2.584048 3.6664956 2.92169 "/>
                                </g>
                                <g transform="translate(41.43040995864022 23.346049921259834)">
                                    <path class="typst-shape" fill="none" stroke="#000000" stroke-width="0.744" stroke-linecap="round" stroke-linejoin="miter" stroke-miterlimit="4" d="M 3.6664956 0 C 2.9765582 1.5000314 1.6162009 2.584048 0 2.92169 "/>
                                </g>
                                <g transform="translate(62.521026745425694 83.91457500000001)">
                                    <path class="typst-shape" fill="none" stroke="#000000" stroke-width="0.744" stroke-linecap="round" stroke-linejoin="miter" stroke-miterlimit="4" d="M 0 0 L 89.48751 0 "/>
                                </g>
                                <g transform="translate(149.08684570521527 83.9145750551181)">
                                    <path class="typst-shape" fill="none" stroke="#000000" stroke-width="0.744" stroke-linecap="round" stroke-linejoin="miter" stroke-miterlimit="4" d="M 2.92169 0 C 1.4216586 0.68993735 0.33764195 2.0502946 0 3.6664956 "/>
                                </g>
                                <g transform="translate(149.08684570521527 80.24807943890517)">
                                    <path class="typst-shape" fill="none" stroke="#000000" stroke-width="0.744" stroke-linecap="round" stroke-linejoin="miter" stroke-miterlimit="4" d="M 2.92169 3.6664956 C 1.4216586 2.9765582 0.33764195 1.6162009 0 0 "/>
                                </g>
                                <g transform="translate(96.19381113040873 8.48702500000001)">
                                    <path class="typst-shape" fill="none" stroke="#000000" stroke-width="0.744" stroke-linecap="round" stroke-linejoin="miter" stroke-miterlimit="4" d="M 0 0 L 46.128 0 "/>
                                </g>
                                <g transform="translate(139.40012076033335 8.487024976377949)">
                                    <path class="typst-shape" fill="none" stroke="#000000" stroke-width="0.744" stroke-linecap="round" stroke-linejoin="miter" stroke-miterlimit="4" d="M 2.92169 0 C 1.4216586 0.68993735 0.33764195 2.0502946 0 3.6664956 "/>
                                </g>
                                <g transform="translate(139.40012076033335 4.820529360165005)">
                                    <path class="typst-shape" fill="none" stroke="#000000" stroke-width="0.744" stroke-linecap="round" stroke-linejoin="miter" stroke-miterlimit="4" d="M 2.92169 3.6664956 C 1.4216586 2.9765582 0.33764195 1.6162009 0 0 "/>
                                </g>
                                <g transform="translate(274.7722611111111 76.838825)">
                                    <path class="typst-shape" fill="none" d="M 0 0 L 17.98155 0 L 17.98155 14.1515 L 0 14.1515 L 0 0 Z "/>
                                </g>
                                <g transform="translate(274.77226104029495 76.8388248897638)">
                                    <g class="typst-group">
                                        <g>
                                            <g transform="translate(0 0)">
                                                <g class="typst-group">
                                                    <g>
                                                        <g transform="translate(0 0)">
                                                            <g class="typst-group">
                                                                <g>
                                                                    <g transform="translate(0.00000000005000072447069752 12.368999999999998)">
                                                                        <g class="typst-text" transform="scale(1, -1)">
                                                                            <use xlink:href="#g658FA4C251AA3390858323F925226FD5" x="0" fill="#000000" fill-rule="nonzero"/>
                                                                        </g>
                                                                    </g>
                                                                    <g transform="translate(7.750000000050001 16.1975)">
                                                                        <g class="typst-text" transform="scale(1, -1)">
                                                                            <use xlink:href="#gFEBC6A887BDF14AC279FC64614D748BF" x="0" fill="#000000" fill-rule="nonzero"/>
                                                                        </g>
                                                                    </g>
                                                                </g>
                                                            </g>
                                                        </g>
                                                    </g>
                                                </g>
                                            </g>
                                        </g>
                                    </g>
                                </g>
                                <g transform="translate(158.38053611111113 75.47404999999999)">
                                    <path class="typst-shape" fill="none" d="M 0 0 L 48.205 0 L 48.205 16.88105 L 0 16.88105 L 0 0 Z "/>
                                </g>
                                <g transform="translate(158.38053607966506 75.47404986614174)">
                                    <g class="typst-group">
                                        <g>
                                            <g transform="translate(0 0)">
                                                <g class="typst-group">
                                                    <g>
                                                        <g transform="translate(0 0)">
                                                            <g class="typst-group">
                                                                <g>
                                                                    <g transform="translate(0 3.147274999999999)">
                                                                        <g class="typst-group">
                                                                            <g>
                                                                                <g transform="translate(0.00000000005000072447069752 10.5865)">
                                                                                    <g class="typst-text" transform="scale(1, -1)">
                                                                                        <use xlink:href="#g9A61C0BF9DC55A03908D87DE6CD67415" x="0" fill="#000000" fill-rule="nonzero"/>
                                                                                    </g>
                                                                                </g>
                                                                                <g transform="translate(7.78100000005 4.960000000000001)">
                                                                                    <g class="typst-text" transform="scale(1, -1)">
                                                                                        <use xlink:href="#g18D67BD8B06F6A52DBE683214B2FCCA5" x="0" fill="#000000" fill-rule="nonzero"/>
                                                                                    </g>
                                                                                </g>
                                                                                <g transform="translate(18.16445000005 10.5865)">
                                                                                    <g class="typst-text" transform="scale(1, -1)">
                                                                                        <use xlink:href="#gBD07C184A39C195D9DB67692FF7CD352" x="0" fill="#000000" fill-rule="nonzero"/>
                                                                                    </g>
                                                                                </g>
                                                                                <g transform="translate(24.193950000050002 10.5865)">
                                                                                    <g class="typst-text" transform="scale(1, -1)">
                                                                                        <use xlink:href="#g658FA4C251AA3390858323F925226FD5" x="0" fill="#000000" fill-rule="nonzero"/>
                                                                                    </g>
                                                                                </g>
                                                                                <g transform="translate(31.943950000050002 14.414999999999997)">
                                                                                    <g class="typst-text" transform="scale(1, -1)">
                                                                                        <use xlink:href="#gFEBC6A887BDF14AC279FC64614D748BF" x="0" fill="#000000" fill-rule="nonzero"/>
                                                                                    </g>
                                                                                </g>
                                                                                <g transform="translate(42.17550000005001 10.5865)">
                                                                                    <g class="typst-text" transform="scale(1, -1)">
                                                                                        <use xlink:href="#g74D60D9FC1D20AE85F2164AE45C43E7D" x="0" fill="#000000" fill-rule="nonzero"/>
                                                                                    </g>
                                                                                </g>
                                                                            </g>
                                                                        </g>
                                                                    </g>
                                                                </g>
                                                            </g>
                                                        </g>
                                                    </g>
                                                </g>
                                            </g>
                                        </g>
                                    </g>
                                </g>
                                <g transform="translate(36.127830555555555 76.838825)">
                                    <path class="typst-shape" fill="none" d="M 0 0 L 17.93815 0 L 17.93815 14.1515 L 0 14.1515 L 0 0 Z "/>
                                </g>
                                <g transform="translate(36.12783054773154 76.8388248897638)">
                                    <g class="typst-group">
                                        <g>
                                            <g transform="translate(0 0)">
                                                <g class="typst-group">
                                                    <g>
                                                        <g transform="translate(0 0)">
                                                            <g class="typst-group">
                                                                <g>
                                                                    <g transform="translate(0.00000000005000072447069752 12.368999999999998)">
                                                                        <g class="typst-text" transform="scale(1, -1)">
                                                                            <use xlink:href="#g658FA4C251AA3390858323F925226FD5" x="0" fill="#000000" fill-rule="nonzero"/>
                                                                        </g>
                                                                    </g>
                                                                    <g transform="translate(7.750000000050001 16.1975)">
                                                                        <g class="typst-text" transform="scale(1, -1)">
                                                                            <use xlink:href="#gA66D26CFA95CFAFF162B31A1F9E9A667" x="0" fill="#000000" fill-rule="nonzero"/>
                                                                        </g>
                                                                    </g>
                                                                </g>
                                                            </g>
                                                        </g>
                                                    </g>
                                                </g>
                                            </g>
                                        </g>
                                    </g>
                                </g>
                                <g transform="translate(0 0)">
                                    <path class="typst-shape" fill="none" d="M 0 0 L 90.19381 0 L 90.19381 16.97405 L 0 16.97405 L 0 0 Z "/>
                                </g>
                                <g transform="translate(-0.00000006644168884014916 -0.00000008661417569518254)">
                                    <g class="typst-group">
                                        <g>
                                            <g transform="translate(0 0)">
                                                <g class="typst-group">
                                                    <g>
                                                        <g transform="translate(0 0)">
                                                            <g class="typst-group">
                                                                <g>
                                                                    <g transform="translate(0.00000000005000072447069752 13.780275)">
                                                                        <g class="typst-text" transform="scale(1, -1)">
                                                                            <use xlink:href="#g84D1C561F556B6E340793E392791E9C" x="0" fill="#000000" fill-rule="nonzero"/>
                                                                        </g>
                                                                    </g>
                                                                    <g transform="translate(11.625000000050001 17.608774999999998)">
                                                                        <g class="typst-text" transform="scale(1, -1)">
                                                                            <use xlink:href="#g8965C32DCFA46AFACC7B2AAD08B060DF" x="0" fill="#000000" fill-rule="nonzero"/>
                                                                        </g>
                                                                    </g>
                                                                    <g transform="translate(24.458655555605556 13.780275)">
                                                                        <g class="typst-text" transform="scale(1, -1)">
                                                                            <use xlink:href="#gED182336EBA7554D3FB06D4A824B57BC" x="0" fill="#000000" fill-rule="nonzero"/>
                                                                        </g>
                                                                    </g>
                                                                    <g transform="translate(40.82321111116111 3.193775)">
                                                                        <g class="typst-group">
                                                                            <g>
                                                                                <g transform="translate(0 10.5865)">
                                                                                    <g class="typst-text" transform="scale(1, -1)">
                                                                                        <use xlink:href="#gC4062D2AA91C1B3F5799A7061EF217A7" x="0" fill="#000000" fill-rule="nonzero"/>
                                                                                    </g>
                                                                                </g>
                                                                                <g transform="translate(8.99 4.960000000000001)">
                                                                                    <g class="typst-text" transform="scale(1, -1)">
                                                                                        <use xlink:href="#g18D67BD8B06F6A52DBE683214B2FCCA5" x="0" fill="#000000" fill-rule="nonzero"/>
                                                                                    </g>
                                                                                </g>
                                                                                <g transform="translate(19.37345 10.5865)">
                                                                                    <g class="typst-text" transform="scale(1, -1)">
                                                                                        <use xlink:href="#gBD07C184A39C195D9DB67692FF7CD352" x="0" fill="#000000" fill-rule="nonzero"/>
                                                                                    </g>
                                                                                </g>
                                                                                <g transform="translate(25.40295 10.5865)">
                                                                                    <g class="typst-text" transform="scale(1, -1)">
                                                                                        <use xlink:href="#g658FA4C251AA3390858323F925226FD5" x="0" fill="#000000" fill-rule="nonzero"/>
                                                                                    </g>
                                                                                </g>
                                                                                <g transform="translate(33.15295 14.414999999999997)">
                                                                                    <g class="typst-text" transform="scale(1, -1)">
                                                                                        <use xlink:href="#gA66D26CFA95CFAFF162B31A1F9E9A667" x="0" fill="#000000" fill-rule="nonzero"/>
                                                                                    </g>
                                                                                </g>
                                                                                <g transform="translate(43.3411 10.5865)">
                                                                                    <g class="typst-text" transform="scale(1, -1)">
                                                                                        <use xlink:href="#g74D60D9FC1D20AE85F2164AE45C43E7D" x="0" fill="#000000" fill-rule="nonzero"/>
                                                                                    </g>
                                                                                </g>
                                                                            </g>
                                                                        </g>
                                                                    </g>
                                                                </g>
                                                            </g>
                                                        </g>
                                                    </g>
                                                </g>
                                            </g>
                                        </g>
                                    </g>
                                </g>
                                <g transform="translate(148.69381111111113 0.04649999999999779)">
                                    <path class="typst-shape" fill="none" d="M 0 0 L 67.57845 0 L 67.57845 16.88105 L 0 16.88105 L 0 0 Z "/>
                                </g>
                                <g transform="translate(148.6938109930509 0.046499866141730524)">
                                    <g class="typst-group">
                                        <g>
                                            <g transform="translate(0 0)">
                                                <g class="typst-group">
                                                    <g>
                                                        <g transform="translate(0 0)">
                                                            <g class="typst-group">
                                                                <g>
                                                                    <g transform="translate(0 3.147274999999999)">
                                                                        <g class="typst-group">
                                                                            <g>
                                                                                <g transform="translate(0.00000000005000072447069752 10.5865)">
                                                                                    <g class="typst-text" transform="scale(1, -1)">
                                                                                        <use xlink:href="#gC4062D2AA91C1B3F5799A7061EF217A7" x="0" fill="#000000" fill-rule="nonzero"/>
                                                                                    </g>
                                                                                </g>
                                                                                <g transform="translate(8.990000000050001 4.960000000000001)">
                                                                                    <g class="typst-text" transform="scale(1, -1)">
                                                                                        <use xlink:href="#g18D67BD8B06F6A52DBE683214B2FCCA5" x="0" fill="#000000" fill-rule="nonzero"/>
                                                                                    </g>
                                                                                </g>
                                                                                <g transform="translate(19.37345000005 10.5865)">
                                                                                    <g class="typst-text" transform="scale(1, -1)">
                                                                                        <use xlink:href="#g9A61C0BF9DC55A03908D87DE6CD67415" x="0" fill="#000000" fill-rule="nonzero"/>
                                                                                    </g>
                                                                                </g>
                                                                                <g transform="translate(27.154450000049998 4.960000000000001)">
                                                                                    <g class="typst-text" transform="scale(1, -1)">
                                                                                        <use xlink:href="#g18D67BD8B06F6A52DBE683214B2FCCA5" x="0" fill="#000000" fill-rule="nonzero"/>
                                                                                    </g>
                                                                                </g>
                                                                                <g transform="translate(37.53790000005 10.5865)">
                                                                                    <g class="typst-text" transform="scale(1, -1)">
                                                                                        <use xlink:href="#gBD07C184A39C195D9DB67692FF7CD352" x="0" fill="#000000" fill-rule="nonzero"/>
                                                                                    </g>
                                                                                </g>
                                                                                <g transform="translate(43.56740000005 10.5865)">
                                                                                    <g class="typst-text" transform="scale(1, -1)">
                                                                                        <use xlink:href="#g658FA4C251AA3390858323F925226FD5" x="0" fill="#000000" fill-rule="nonzero"/>
                                                                                    </g>
                                                                                </g>
                                                                                <g transform="translate(51.31740000005 14.414999999999997)">
                                                                                    <g class="typst-text" transform="scale(1, -1)">
                                                                                        <use xlink:href="#gFEBC6A887BDF14AC279FC64614D748BF" x="0" fill="#000000" fill-rule="nonzero"/>
                                                                                    </g>
                                                                                </g>
                                                                                <g transform="translate(61.548950000050006 10.5865)">
                                                                                    <g class="typst-text" transform="scale(1, -1)">
                                                                                        <use xlink:href="#g74D60D9FC1D20AE85F2164AE45C43E7D" x="0" fill="#000000" fill-rule="nonzero"/>
                                                                                    </g>
                                                                                </g>
                                                                            </g>
                                                                        </g>
                                                                    </g>
                                                                </g>
                                                            </g>
                                                        </g>
                                                    </g>
                                                </g>
                                            </g>
                                        </g>
                                    </g>
                                </g>
                            </g>
                        </g>
                    </g>
                </g>
            </g>
        </g>
    </g>
    <defs id="glyph">
        <symbol id="g658FA4C251AA3390858323F925226FD5" overflow="visible">
            <path d="M 4.1695 10.323 C 3.534 9.672 2.6039999 9.346499 1.3795 9.346499 L 1.3795 8.742 C 2.1855 8.742 2.852 8.866 3.3634999 9.114 L 3.3634999 1.271 C 3.3634999 0.992 3.3014998 0.806 3.162 0.7285 C 3.0225 0.65099996 2.635 0.6045 2.0149999 0.6045 L 1.4725 0.6045 L 1.4725 0 C 1.86 0.031 2.697 0.046499997 3.9835 0.046499997 C 5.27 0.046499997 6.107 0.031 6.4944997 0 L 6.4944997 0.6045 L 5.9519997 0.6045 C 5.3164997 0.6045 4.929 0.65099996 4.805 0.7285 C 4.6809998 0.806 4.6035 0.992 4.6035 1.271 L 4.6035 9.858 C 4.6035 10.23 4.5724998 10.323 4.1695 10.323 Z "/>
        </symbol>
        <symbol id="gFEBC6A887BDF14AC279FC64614D748BF" overflow="visible">
            <path d="M 9.08145 5.8481503 C 9.08145 6.36895 8.82105 6.7704 8.30025 7.0525002 C 7.8771 7.2912 7.3780003 7.41055 6.8138003 7.41055 L 2.9078 7.41055 C 2.65825 7.41055 2.5172 7.3780003 2.5172 7.12845 C 2.5172 7.0091 2.5931501 6.95485 2.74505 6.9440002 L 3.30925 6.9223003 C 3.4503 6.91145 3.5154002 6.9223003 3.5154002 6.8138003 L 2.0506501 0.8897 C 1.9964 0.6727 1.8879 0.5425 1.72515 0.48825002 C 1.6709 0.4774 1.4864501 0.46655002 1.1501 0.46655002 L 0.96565 0.46655002 C 0.8463 0.4557 0.7812 0.3689 0.7812 0.20615001 C 0.7812 0.0217 0.92225003 0 1.1501 0 L 5.30565 0 C 6.0326 0 6.727 0.20615001 7.38885 0.60760003 C 8.1592 1.07415 8.53895 1.6492001 8.53895 2.33275 C 8.53895 3.20075 7.71435 3.7324002 6.9006 3.8843 C 7.86625 4.1013002 9.08145 4.8174 9.08145 5.8481503 Z M 7.9422 5.859 C 7.9422 5.3165 7.67095 4.87165 7.1393003 4.5136 C 6.6619 4.1989503 6.1411 4.04705 5.56605 4.04705 L 3.8626 4.04705 L 4.50275 6.6076503 C 4.58955 6.9331503 4.58955 6.9440002 5.0127 6.9440002 L 6.6402 6.9440002 C 7.38885 6.9440002 7.9422 6.56425 7.9422 5.859 Z M 7.3671503 2.4087 C 7.3671503 1.8445001 7.10675 1.3671 6.5968003 0.98735005 C 6.13025 0.64015 5.60945 0.46655002 5.02355 0.46655002 L 3.2984002 0.46655002 C 3.09225 0.46655002 2.9946 0.44485 2.9946 0.53165 L 3.76495 3.65645 L 6.0109 3.65645 C 6.80295 3.65645 7.3671503 3.20075 7.3671503 2.4087 Z "/>
        </symbol>
        <symbol id="g9A61C0BF9DC55A03908D87DE6CD67415" overflow="visible">
            <path d="M 0.2325 -2.1855 C 0.2325 -2.852 0.93 -3.1775 2.325 -3.1775 C 3.0535 -3.1775 3.7354999 -2.9915 4.34 -2.635 C 5.022 -2.2319999 5.4405 -1.6895 5.611 -1.023 L 7.3005 5.7815 C 7.3315 5.9365 7.3469996 6.0295 7.3469996 6.0759997 C 7.3469996 6.3859997 7.1765 6.541 6.851 6.541 C 6.5099998 6.541 6.2929997 6.355 6.1844997 5.9985 C 5.8435 6.572 5.3785 6.851 4.805 6.851 C 3.813 6.851 2.9294999 6.355 2.17 5.363 C 1.4725 4.433 1.1159999 3.4565 1.1159999 2.449 C 1.1159999 1.1005 1.9065 -0.046499997 3.2085 -0.046499997 C 3.813 -0.046499997 4.371 0.217 4.8824997 0.7285 L 4.4175 -1.1005 C 3.968 -2.17 3.2705 -2.7124999 2.294 -2.7124999 C 1.8909999 -2.7124999 1.55 -2.6815 1.271 -2.6195 C 1.5964999 -2.449 1.7515 -2.1855 1.7515 -1.829 C 1.7515 -1.4415 1.5345 -1.24 1.1159999 -1.24 C 0.62 -1.24 0.2325 -1.6895 0.2325 -2.1855 Z M 5.518 6.0759997 C 5.828 5.7504997 5.983 5.4405 5.983 5.1305 C 5.983 5.115 5.9674997 5.0375 5.9365 4.929 L 5.2079997 1.9994999 C 5.115 1.643 4.8515 1.271 4.433 0.93 C 4.0145 0.589 3.6115 0.4185 3.2549999 0.4185 C 2.635 0.4185 2.325 0.868 2.325 1.767 C 2.325 2.6195 2.852 4.5105 3.162 5.0685 C 3.6425 5.9519997 4.185 6.3859997 4.8205 6.3859997 C 5.0994997 6.3859997 5.332 6.2774997 5.518 6.0759997 Z "/>
        </symbol>
        <symbol id="g18D67BD8B06F6A52DBE683214B2FCCA5" overflow="visible">
            <path d="M 8.88615 5.71795 C 8.88615 6.293 8.56065 6.727 7.9205003 7.0416503 C 7.41055 7.2912 6.8355002 7.41055 6.19535 7.41055 L 2.89695 7.41055 C 2.6474001 7.41055 2.50635 7.3780003 2.50635 7.12845 C 2.50635 7.0091 2.5823 6.95485 2.7342 6.9440002 L 3.2984002 6.9223003 C 3.43945 6.91145 3.50455 6.9223003 3.50455 6.8138003 L 2.0398 0.8897 C 1.98555 0.6727 1.87705 0.5425 1.7143 0.48825002 C 1.66005 0.4774 1.46475 0.46655002 1.13925 0.46655002 L 0.9548 0.46655002 C 0.83545 0.4557 0.77035004 0.3689 0.77035004 0.20615001 C 0.77035004 0.0651 0.8463 0 0.98735005 0 C 1.42135 0 1.9096 0.054250002 2.35445 0.0434 L 3.04885 0.03255 C 3.17905 0.03255 3.6239002 0 3.76495 0 C 3.9494002 0 4.0362 0.0868 4.0362 0.2604 C 4.0362 0.37975 3.9711 0.4557 3.8517501 0.46655002 L 3.6347501 0.46655002 C 3.2984002 0.46655002 3.1031 0.48825002 3.04885 0.53165 C 3.038 0.5425 3.038 0.5642 3.038 0.60760003 L 3.7432501 3.5154002 L 5.1754503 3.5154002 C 5.859 3.5154002 6.45575 3.22245 6.45575 2.5931501 C 6.45575 2.5172 6.4015 2.2676501 6.30385 1.85535 C 6.1845 1.3671 6.13025 1.085 6.13025 1.00905 C 6.13025 0.18445 6.86805 -0.21700001 7.7469 -0.21700001 C 8.0724 -0.21700001 8.397901 -0.075950004 8.7234 0.1953 C 9.048901 0.46655002 9.21165 0.7595 9.21165 1.07415 C 9.21165 1.1935 9.1357 1.2586 8.9838 1.2586 C 8.8753 1.2586 8.79935 1.1935 8.75595 1.0524501 C 8.625751 0.66185004 8.2677 0.1736 7.7903004 0.1736 C 7.49735 0.1736 7.3563004 0.3906 7.3563004 0.82460004 C 7.3563004 1.07415 7.38885 1.44305 7.4648004 1.9313 C 7.49735 2.1266 7.5082 2.3002 7.5082 2.44125 C 7.5082 3.00545 7.19355 3.4177501 6.5751 3.6781502 C 7.5733004 3.93855 8.88615 4.6438003 8.88615 5.71795 Z M 7.3563004 6.6185 C 7.5841503 6.47745 7.6926503 6.23875 7.6926503 5.8807 C 7.6926503 5.6311502 7.6384 5.37075 7.51905 5.08865 C 7.19355 4.2966 6.41235 3.9060001 5.1863003 3.9060001 L 3.8517501 3.9060001 L 4.5244503 6.6076503 C 4.58955 6.8355002 4.56785 6.91145 4.8174 6.9331503 L 5.5118003 6.9331503 C 6.34725 6.9331503 6.80295 6.9440002 7.3563004 6.6185 Z "/>
        </symbol>
        <symbol id="gBD07C184A39C195D9DB67692FF7CD352" overflow="visible">
            <path d="M 4.929 -3.8439999 C 5.0685 -3.8439999 5.146 -3.7665 5.146 -3.6269999 C 5.146 -3.5805 5.115 -3.5184999 5.0685 -3.4565 C 4.2625 -2.8365 3.6115 -1.8134999 3.131 -0.403 C 2.7124999 0.8215 2.4954998 2.0305 2.4954998 3.224 L 2.4954998 4.526 C 2.4954998 5.7195 2.7124999 6.9284997 3.131 8.153 C 3.6115 9.563499 4.2625 10.5865 5.0685 11.2065 C 5.115 11.253 5.146 11.315 5.146 11.377 C 5.146 11.5164995 5.0685 11.594 4.929 11.594 C 4.9135 11.594 4.867 11.5785 4.8205 11.5475 C 3.8904998 10.834499 3.1155 9.780499 2.48 8.37 C 1.8755 7.0215 1.5655 5.7504997 1.5655 4.526 L 1.5655 3.224 C 1.5655 1.9994999 1.8755 0.7285 2.48 -0.62 C 3.1155 -2.0305 3.8904998 -3.0844998 4.8205 -3.7975 C 4.867 -3.8285 4.9135 -3.8439999 4.929 -3.8439999 Z "/>
        </symbol>
        <symbol id="g74D60D9FC1D20AE85F2164AE45C43E7D" overflow="visible">
            <path d="M 1.209 -3.7975 C 2.139 -3.0844998 2.914 -2.0305 3.5495 -0.62 C 4.154 0.7285 4.4639997 1.9994999 4.4639997 3.224 L 4.4639997 4.526 C 4.4639997 5.7504997 4.154 7.0215 3.5495 8.37 C 2.914 9.780499 2.139 10.834499 1.209 11.5475 C 1.1625 11.5785 1.1159999 11.594 1.1005 11.594 C 0.96099997 11.594 0.8835 11.5164995 0.8835 11.377 C 0.8835 11.315 0.9145 11.253 0.96099997 11.2065 C 1.767 10.5865 2.418 9.563499 2.8985 8.153 C 3.317 6.9284997 3.534 5.7195 3.534 4.526 L 3.534 3.224 C 3.534 2.0305 3.317 0.8215 2.8985 -0.403 C 2.418 -1.8134999 1.767 -2.8365 0.96099997 -3.4565 C 0.9145 -3.5184999 0.8835 -3.5805 0.8835 -3.6269999 C 0.8835 -3.7665 0.96099997 -3.8439999 1.1005 -3.8439999 C 1.1159999 -3.8439999 1.1625 -3.8285 1.209 -3.7975 Z "/>
        </symbol>
        <symbol id="gA66D26CFA95CFAFF162B31A1F9E9A667" overflow="visible">
            <path d="M 1.7360001 0.0434 C 1.94215 0.0434 2.63655 0 2.8427 0 C 3.0163 0 3.1031 0.09765 3.1031 0.2821 C 3.1031 0.40145 3.0271502 0.46655002 2.87525 0.4774 C 2.5823 0.50995 2.44125 0.60760003 2.44125 0.74865 C 2.44125 0.8463 2.4955 0.97650003 2.5931501 1.13925 L 3.43945 2.44125 L 6.45575 2.44125 L 6.7053003 0.71610004 C 6.62935 0.55335003 6.4015 0.4774 6.0109 0.4774 C 5.78305 0.4774 5.6854 0.3906 5.6854 0.1953 C 5.6854 0.0651 5.76135 0 5.9024 0 C 6.1411 0 7.01995 0.0434 7.28035 0.0434 L 7.9205003 0.03255 C 8.10495 0.03255 8.397901 0.0217 8.5281 0 C 8.7017 0 8.7885 0.0868 8.7885 0.27125 C 8.7885 0.41230002 8.68 0.4774 8.4413 0.4774 C 8.2026005 0.4774 8.06155 0.4774 8.029 0.48825002 C 7.9096503 0.5208 7.8337 0.61845 7.8120003 0.7812 L 6.86805 7.3997 C 6.8355002 7.62755 6.727 7.73605 6.56425 7.73605 C 6.41235 7.73605 6.2821503 7.64925 6.1628003 7.4648004 L 2.22425 1.35625 C 1.8662001 0.8029 1.4322001 0.50995 0.90055 0.46655002 C 0.72695 0.4557 0.61845 0.37975 0.61845 0.20615001 C 0.61845 0.0651 0.68355 0 0.81375 0 C 0.98735005 0 1.5624 0.0434 1.7360001 0.0434 Z M 5.9024 6.26045 L 6.3906503 2.9186502 L 3.7541 2.9186502 Z "/>
        </symbol>
        <symbol id="g84D1C561F556B6E340793E392791E9C" overflow="visible">
            <path d="M 2.1234999 0.046499997 C 2.4025 0.046499997 3.3634999 0 3.658 0 C 3.8904998 0 3.9989998 0.124 3.9989998 0.3565 C 3.9989998 0.496 3.906 0.589 3.7045 0.6045 C 3.2549999 0.62 3.0379999 0.775 3.0379999 1.0695 C 3.0379999 1.209 3.1775 1.5189999 3.472 1.984 C 3.8904998 2.6815 4.185 3.1929998 4.3865 3.534 L 8.153 3.534 C 8.153 3.4255 8.1685 3.2085 8.215 2.8675 C 8.3235 1.736 8.3855 1.1159999 8.3855 1.0385 C 8.3855 0.74399996 8.044499 0.6045 7.3469996 0.6045 C 7.0525 0.6045 6.913 0.48049998 6.913 0.2325 C 6.913 0.0775 7.006 0 7.192 0 C 7.5639997 0 8.742 0.046499997 9.114 0.046499997 C 9.424 0.046499997 10.5245 0 10.834499 0 C 11.066999 0 11.1755 0.124 11.1755 0.37199998 C 11.1755 0.527 11.036 0.6045 10.757 0.6045 C 10.323 0.6045 10.0595 0.6355 9.981999 0.682 C 9.9045 0.7285 9.8425 0.868 9.827 1.1005 L 8.897 10.6795 C 8.8505 10.974 8.866 11.098 8.5405 11.098 C 8.3545 11.098 8.1995 11.005 8.091 10.8035 L 2.759 1.86 C 2.294 1.085 1.674 0.6665 0.9145 0.6045 C 0.6665 0.589 0.5425 0.465 0.5425 0.2325 C 0.5425 0.0775 0.6355 0 0.806 0 C 1.054 0 1.8755 0.046499997 2.1234999 0.046499997 Z M 7.626 8.9435 L 8.091 4.1384997 L 4.7585 4.1384997 Z "/>
        </symbol>
        <symbol id="g8965C32DCFA46AFACC7B2AAD08B060DF" overflow="visible">
            <path d="M 1.7794 4.78485 C 1.42135 4.78485 1.1284 4.58955 0.90055 4.1881 C 0.74865 3.91685 0.6293 3.6347501 0.55335003 3.3201 C 0.5208 3.20075 0.50995 3.1356502 0.50995 3.11395 C 0.50995 2.9946 0.5859 2.9295 0.7378 2.9295 C 0.94395 2.9295 0.9548 3.04885 1.00905 3.2767 C 1.1935 4.02535 1.44305 4.4051 1.7577001 4.4051 C 1.96385 4.4051 2.0615 4.24235 2.0615 3.91685 C 2.0615 3.7975001 2.00725 3.5154002 1.8879 3.04885 L 1.31285 0.72695 C 1.2369 0.43400002 1.20435 0.2821 1.20435 0.27125 C 1.20435 0.0217 1.3454 -0.108500004 1.61665 -0.108500004 C 1.8228 -0.108500004 1.9747001 -0.0217 2.07235 0.15190001 C 2.1049001 0.21700001 2.17 0.44485 2.2676501 0.82460004 L 2.4955 1.7794 C 2.6257 2.28935 2.7016501 2.57145 2.72335 2.63655 C 2.8101501 2.9186502 2.94035 3.1899002 3.1248 3.43945 C 3.5805001 4.0796 4.1013002 4.4051 4.69805 4.4051 C 5.08865 4.4051 5.2839503 4.1664 5.2839503 3.69985 C 5.2839503 3.2767 5.0778003 2.52805 4.65465 1.44305 C 4.54615 1.1609501 4.4919 0.96565 4.4919 0.8463 C 4.4919 0.2604 4.9693003 -0.108500004 5.5552 -0.108500004 C 6.0651503 -0.108500004 6.47745 0.15190001 6.7704 0.6727 C 7.01995 1.11755 7.1393003 1.4105 7.1393003 1.5624 C 7.1393003 1.68175 7.06335 1.74685 6.9223003 1.74685 C 6.84635 1.7360001 6.7704 1.68175 6.69445 1.57325 C 6.6836 1.5624 6.6836 1.5407001 6.6836 1.52985 C 6.43405 0.6944 6.0651503 0.27125 5.58775 0.27125 C 5.43585 0.27125 5.3599 0.37975 5.3599 0.60760003 C 5.3599 0.7595 5.4467 1.0416 5.60945 1.4539 C 5.9892 2.41955 6.1736503 3.11395 6.1736503 3.5262501 C 6.1736503 4.02535 6.00005 4.37255 5.6637 4.557 C 5.3924503 4.7089 5.0778003 4.78485 4.7414503 4.78485 C 4.0362 4.78485 3.43945 4.48105 2.96205 3.87345 C 2.8644001 4.4051 2.39785 4.78485 1.7794 4.78485 Z "/>
        </symbol>
        <symbol id="gED182336EBA7554D3FB06D4A824B57BC" overflow="visible">
            <path d="M 10.819 5.6885 L 1.24 5.6885 C 0.992 5.6885 0.868 5.5645 0.868 5.332 C 0.868 5.0994997 0.992 4.9755 1.24 4.9755 L 10.819 4.9755 C 11.066999 4.9755 11.191 5.0994997 11.191 5.332 C 11.191 5.518 11.0205 5.6885 10.819 5.6885 Z M 10.819 2.7745 L 1.24 2.7745 C 0.992 2.7745 0.868 2.6505 0.868 2.418 C 0.868 2.1855 0.992 2.0615 1.24 2.0615 L 10.819 2.0615 C 11.066999 2.0615 11.191 2.1855 11.191 2.418 C 11.191 2.6195 11.0205 2.7745 10.819 2.7745 Z "/>
        </symbol>
        <symbol id="gC4062D2AA91C1B3F5799A7061EF217A7" overflow="visible">
            <path d="M 8.556 9.8115 C 8.556 10.4935 7.8894997 10.9275 7.161 10.9275 C 6.2 10.9275 5.5334997 10.3075 5.177 9.083 C 5.0994997 8.804 4.929 8.0135 4.6809998 6.7114997 L 3.6734998 6.7114997 C 3.3325 6.7114997 3.162 6.696 3.162 6.3705 C 3.162 6.2 3.317 6.1225 3.6425 6.1225 L 4.5724998 6.1225 L 3.441 0.124 C 3.2705 -0.75949997 3.1155 -1.4104999 2.9759998 -1.8445 C 2.79 -2.418 2.5265 -2.7124999 2.1855 -2.7124999 C 1.953 -2.7124999 1.767 -2.6505 1.5964999 -2.542 C 2.0925 -2.4645 2.3404999 -2.17 2.3404999 -1.674 C 2.3404999 -1.271 2.139 -1.0695 1.7205 -1.0695 C 1.1934999 -1.0695 0.8215 -1.5345 0.8215 -2.0615 C 0.8215 -2.7435 1.457 -3.1775 2.1855 -3.1775 C 2.573 -3.1775 2.9294999 -3.0225 3.224 -2.697 C 3.72 -2.1855 4.1075 -1.457 4.3865 -0.48049998 C 4.557 0.124 4.712 0.713 4.8205 1.3019999 L 5.7195 6.1225 L 6.9905 6.1225 C 7.3469996 6.1225 7.502 6.138 7.502 6.4944997 C 7.502 6.634 7.3469996 6.7114997 7.0369997 6.7114997 L 5.8435 6.7114997 C 5.9365 7.3469996 6.3705 9.6875 6.5099998 9.981999 C 6.665 10.3075 6.882 10.4625 7.161 10.4625 C 7.3935 10.4625 7.595 10.4005 7.7655 10.292 C 7.285 10.1835 7.0369997 9.9045 7.0369997 9.424 C 7.0369997 9.021 7.2385 8.8195 7.657 8.8195 C 8.184 8.8195 8.556 9.2845 8.556 9.8115 Z "/>
        </symbol>
    </defs>
</svg>
