<svg class="typst-doc" viewBox="0 0 322.47090000009996 154.5503" width="322.47090000009996pt" height="154.5503pt" xmlns="http://www.w3.org/2000/svg" xmlns:xlink="http://www.w3.org/1999/xlink" xmlns:h5="http://www.w3.org/1999/xhtml">
    <path class="typst-shape" fill="#00000000" fill-rule="nonzero" d="M 0 0 L 0 154.5503 L 322.4709 154.5503 L 322.4709 0 Z "/>
    <g>
        <g transform="translate(0 1.5500000000000003)">
            <g class="typst-group">
                <g>
                    <g transform="translate(0 0)">
                        <g class="typst-group">
                            <g>
                                <g transform="translate(17.80092581502135 87.84997510236221)">
                                    <path class="typst-shape" fill="none" stroke="#000000" stroke-width="0.744" stroke-linecap="round" stroke-linejoin="miter" stroke-miterlimit="4" d="M 49.929707 0 L 0 48.144817 "/>
                                </g>
                                <g transform="translate(17.359125010749505 131.32743166101162)">
                                    <path class="typst-shape" fill="none" stroke="#000000" stroke-width="0.744" stroke-linecap="round" stroke-linejoin="miter" stroke-miterlimit="4" d="M 0.44180104 4.6673613 C 1.0427068 3.1294997 0.8787881 1.3977973 0 0 "/>
                                </g>
                                <g transform="translate(17.800926047294094 135.70335932086718)">
                                    <path class="typst-shape" fill="none" stroke="#000000" stroke-width="0.744" stroke-linecap="round" stroke-linejoin="miter" stroke-miterlimit="4" d="M 0 0.29143363 C 1.5587082 -0.2531165 3.2832992 -0.02629535 4.648195 0.90277207 "/>
                                </g>
                                <g transform="translate(94.15149116165665 87.84997510236221)">
                                    <path class="typst-shape" fill="none" stroke="#000000" stroke-width="0.744" stroke-linecap="round" stroke-linejoin="miter" stroke-miterlimit="4" d="M 0 0 L 54.567646 48.810467 "/>
                                </g>
                                <g transform="translate(144.09708027889198 136.42983571439694)">
                                    <path class="typst-shape" fill="none" stroke="#000000" stroke-width="0.744" stroke-linecap="round" stroke-linejoin="miter" stroke-miterlimit="4" d="M 4.622058 0.23060517 C 3.044061 -0.25522596 1.3291671 0.035982255 0 1.0154824 "/>
                                </g>
                                <g transform="translate(148.28763254928376 131.97981438533816)">
                                    <path class="typst-shape" fill="none" stroke="#000000" stroke-width="0.744" stroke-linecap="round" stroke-linejoin="miter" stroke-miterlimit="4" d="M 0.4315055 4.6806264 C -0.22653656 3.1663325 -0.1275448 1.4297082 0.6983125 0 "/>
                                </g>
                                <g transform="translate(170.5713001166005 88.34830010236219)">
                                    <path class="typst-shape" fill="none" stroke="#000000" stroke-width="0.744" stroke-linecap="round" stroke-linejoin="miter" stroke-miterlimit="4" d="M 55.57255 0 L 0 48.451305 "/>
                                </g>
                                <g transform="translate(170.36404247026493 132.1159651263758)">
                                    <path class="typst-shape" fill="none" stroke="#000000" stroke-width="0.744" stroke-linecap="round" stroke-linejoin="miter" stroke-miterlimit="4" d="M 0.20725772 4.6836405 C 0.8845051 3.177838 0.80760753 1.4400957 0 0 "/>
                                </g>
                                <g transform="translate(170.57130018902637 136.5880833113345)">
                                    <path class="typst-shape" fill="none" stroke="#000000" stroke-width="0.744" stroke-linecap="round" stroke-linejoin="miter" stroke-miterlimit="4" d="M 0 0.21152252 C 1.5840478 -0.25420046 3.2950993 0.058793977 4.6117015 1.055119 "/>
                                </g>
                                <g transform="translate(255.41987554901735 88.34830010236219)">
                                    <path class="typst-shape" fill="none" stroke="#000000" stroke-width="0.744" stroke-linecap="round" stroke-linejoin="miter" stroke-miterlimit="4" d="M 0 0 L 50.836216 48.116806 "/>
                                </g>
                                <g transform="translate(301.6137695606488 136.1893918912629)">
                                    <path class="typst-shape" fill="none" stroke="#000000" stroke-width="0.744" stroke-linecap="round" stroke-linejoin="miter" stroke-miterlimit="4" d="M 4.6423235 0.275713 C 3.0786302 -0.2543528 1.3562174 -0.011541512 0 0.93014884 "/>
                                </g>
                                <g transform="translate(305.8811251095133 131.7938452266337)">
                                    <path class="typst-shape" fill="none" stroke="#000000" stroke-width="0.744" stroke-linecap="round" stroke-linejoin="miter" stroke-miterlimit="4" d="M 0.37496793 4.67126 C -0.24017957 3.139039 -0.092333764 1.4058902 0.7734485 0 "/>
                                </g>
                                <g transform="translate(94.04453733509962 17.924149929133865)">
                                    <path class="typst-shape" fill="none" stroke="#000000" stroke-width="0.744" stroke-linecap="round" stroke-linejoin="miter" stroke-miterlimit="4" d="M 50.723057 0 L 0 46.746223 "/>
                                </g>
                                <g transform="translate(93.70823259247814 59.9942252711962)">
                                    <path class="typst-shape" fill="none" stroke="#000000" stroke-width="0.744" stroke-linecap="round" stroke-linejoin="miter" stroke-miterlimit="4" d="M 0.33630484 4.6761484 C 0.9717808 3.152246 0.8470037 1.4172834 0 0 "/>
                                </g>
                                <g transform="translate(94.0445374488689 64.41646101169106)">
                                    <path class="typst-shape" fill="none" stroke="#000000" stroke-width="0.744" stroke-linecap="round" stroke-linejoin="miter" stroke-miterlimit="4" d="M 0 0.25391248 C 1.5706066 -0.25530514 3.2896373 0.010397544 4.633208 0.97004616 "/>
                                </g>
                                <g transform="translate(174.77025046474213 17.924149929133865)">
                                    <path class="typst-shape" fill="none" stroke="#000000" stroke-width="0.744" stroke-linecap="round" stroke-linejoin="miter" stroke-miterlimit="4" d="M 0 0 L 51.50275 46.251446 "/>
                                </g>
                                <g transform="translate(221.64940760828057 63.941969983152525)">
                                    <path class="typst-shape" fill="none" stroke="#000000" stroke-width="0.744" stroke-linecap="round" stroke-linejoin="miter" stroke-miterlimit="4" d="M 4.623592 0.23362546 C 3.0465524 -0.25530562 1.3310896 0.032532215 0 1.0094188 "/>
                                </g>
                                <g transform="translate(225.84556301850267 59.49550152468277)">
                                    <path class="typst-shape" fill="none" stroke="#000000" stroke-width="0.744" stroke-linecap="round" stroke-linejoin="miter" stroke-miterlimit="4" d="M 0.42743647 4.680094 C -0.22762877 3.1645093 -0.12522464 1.428083 0.70344067 0 "/>
                                </g>
                                <g transform="translate(72.1245 70.92247499999999)">
                                    <path class="typst-shape" fill="none" d="M 0 0 L 16.678 0 L 16.678 10.9275 L 0 10.9275 L 0 0 Z "/>
                                </g>
                                <g transform="translate(72.12449996855395 70.9224749527559)">
                                    <g class="typst-group">
                                        <g>
                                            <g transform="translate(0 0)">
                                                <g class="typst-group">
                                                    <g>
                                                        <g transform="translate(0 0)">
                                                            <g class="typst-group">
                                                                <g>
                                                                    <g transform="translate(0.00000000005000072447069752 10.757000000000001)">
                                                                        <g class="typst-text" transform="scale(1, -1)">
                                                                            <use xlink:href="#g4A8F0A9BDE678B555CDCCBF90158FB48" x="0" fill="#000000" fill-rule="nonzero"/>
                                                                        </g>
                                                                    </g>
                                                                </g>
                                                            </g>
                                                        </g>
                                                    </g>
                                                </g>
                                            </g>
                                        </g>
                                    </g>
                                </g>
                                <g transform="translate(0.0000000000000007867722221753078 140.85604999999998)">
                                    <path class="typst-shape" fill="none" d="M 0 0 L 13.6245 0 L 13.6245 10.5865 L 0 10.5865 L 0 0 Z "/>
                                </g>
                                <g transform="translate(-0.00000009443818980369141 140.85604992125982)">
                                    <g class="typst-group">
                                        <g>
                                            <g transform="translate(0 0)">
                                                <g class="typst-group">
                                                    <g>
                                                        <g transform="translate(0 0)">
                                                            <g class="typst-group">
                                                                <g>
                                                                    <g transform="translate(0.000000000049999829298746954 10.586499999999997)">
                                                                        <g class="typst-text" transform="scale(1, -1)">
                                                                            <use xlink:href="#g4F703E6593DE2699BCEF8BADE08B3D1" x="0" fill="#000000" fill-rule="nonzero"/>
                                                                        </g>
                                                                    </g>
                                                                </g>
                                                            </g>
                                                        </g>
                                                    </g>
                                                </g>
                                            </g>
                                        </g>
                                    </g>
                                </g>
                                <g transform="translate(153.462975 140.8483)">
                                    <path class="typst-shape" fill="none" d="M 0 0 L 12.245 0 L 12.245 10.602 L 0 10.602 L 0 0 Z "/>
                                </g>
                                <g transform="translate(153.46297498430195 140.84830000000002)">
                                    <g class="typst-group">
                                        <g>
                                            <g transform="translate(0 0)">
                                                <g class="typst-group">
                                                    <g>
                                                        <g transform="translate(0 0)">
                                                            <g class="typst-group">
                                                                <g>
                                                                    <g transform="translate(0.00000000004999893412679639 10.594249999999999)">
                                                                        <g class="typst-text" transform="scale(1, -1)">
                                                                            <use xlink:href="#g428E70256F46D7AB13753CC117E8AD30" x="0" fill="#000000" fill-rule="nonzero"/>
                                                                        </g>
                                                                    </g>
                                                                </g>
                                                            </g>
                                                        </g>
                                                    </g>
                                                </g>
                                            </g>
                                        </g>
                                    </g>
                                </g>
                                <g transform="translate(230.36845000000002 70.42415)">
                                    <path class="typst-shape" fill="none" d="M 0 0 L 21.96195 0 L 21.96195 11.92415 L 0 11.92415 L 0 0 Z "/>
                                </g>
                                <g transform="translate(230.36844988193977 70.42414991338582)">
                                    <g class="typst-group">
                                        <g>
                                            <g transform="translate(0 0)">
                                                <g class="typst-group">
                                                    <g>
                                                        <g transform="translate(0 0)">
                                                            <g class="typst-group">
                                                                <g>
                                                                    <g transform="translate(0.00000000005000072447069752 11.255325)">
                                                                        <g class="typst-text" transform="scale(1, -1)">
                                                                            <use xlink:href="#g4A8F0A9BDE678B555CDCCBF90158FB48" x="0" fill="#000000" fill-rule="nonzero"/>
                                                                        </g>
                                                                    </g>
                                                                    <g transform="translate(16.678000000049998 5.628825)">
                                                                        <g class="typst-text" transform="scale(1, -1)">
                                                                            <use xlink:href="#gB443B4680D0C270D04625407487547E7" x="0" fill="#000000" fill-rule="nonzero"/>
                                                                        </g>
                                                                    </g>
                                                                </g>
                                                            </g>
                                                        </g>
                                                    </g>
                                                </g>
                                            </g>
                                        </g>
                                    </g>
                                </g>
                                <g transform="translate(310.83039999999994 140.85604999999998)">
                                    <path class="typst-shape" fill="none" d="M 0 0 L 11.6405 0 L 11.6405 10.5865 L 0 10.5865 L 0 0 Z "/>
                                </g>
                                <g transform="translate(310.83039988981375 140.85604992125982)">
                                    <g class="typst-group">
                                        <g>
                                            <g transform="translate(0 0)">
                                                <g class="typst-group">
                                                    <g>
                                                        <g transform="translate(0 0)">
                                                            <g class="typst-group">
                                                                <g>
                                                                    <g transform="translate(0.000000000049999829298746954 10.586499999999997)">
                                                                        <g class="typst-text" transform="scale(1, -1)">
                                                                            <use xlink:href="#gD11ADD77B227473BFC90C4E9505203E9" x="0" fill="#000000" fill-rule="nonzero"/>
                                                                        </g>
                                                                    </g>
                                                                </g>
                                                            </g>
                                                        </g>
                                                    </g>
                                                </g>
                                            </g>
                                        </g>
                                    </g>
                                </g>
                                <g transform="translate(147.30249999999998 0)">
                                    <path class="typst-shape" fill="none" d="M 0 0 L 24.56595 0 L 24.56595 11.92415 L 0 11.92415 L 0 0 Z "/>
                                </g>
                                <g transform="translate(147.30249992918385 -0.00000008661417121932279)">
                                    <g class="typst-group">
                                        <g>
                                            <g transform="translate(0 0)">
                                                <g class="typst-group">
                                                    <g>
                                                        <g transform="translate(0 0)">
                                                            <g class="typst-group">
                                                                <g>
                                                                    <g transform="translate(0.00000000005000072447069752 11.255325)">
                                                                        <g class="typst-text" transform="scale(1, -1)">
                                                                            <use xlink:href="#g4A8F0A9BDE678B555CDCCBF90158FB48" x="0" fill="#000000" fill-rule="nonzero"/>
                                                                        </g>
                                                                    </g>
                                                                    <g transform="translate(16.678000000049998 5.628825)">
                                                                        <g class="typst-text" transform="scale(1, -1)">
                                                                            <use xlink:href="#g27DF7290036B7CD6E201DD15FE212BCF" x="0" fill="#000000" fill-rule="nonzero"/>
                                                                        </g>
                                                                    </g>
                                                                </g>
                                                            </g>
                                                        </g>
                                                    </g>
                                                </g>
                                            </g>
                                        </g>
                                    </g>
                                </g>
                            </g>
                        </g>
                    </g>
                </g>
            </g>
        </g>
    </g>
    <defs id="glyph">
        <symbol id="g4A8F0A9BDE678B555CDCCBF90158FB48" overflow="visible">
            <path d="M 14.818 10.54 C 14.5234995 10.54 13.516 10.5865 13.221499 10.5865 C 12.988999 10.5865 12.865 10.4625 12.865 10.23 C 12.865 10.075 12.958 9.997499 13.144 9.981999 C 13.7175 9.9665 13.9965 9.796 13.9965 9.455 C 13.9965 9.3619995 13.9345 9.207 13.8105 8.9745 L 9.7495 1.9375 L 9.207 9.330999 C 9.1449995 9.889 9.517 9.981999 10.214499 9.981999 C 10.54 9.981999 10.695 10.106 10.695 10.354 C 10.695 10.509 10.602 10.5865 10.4005 10.5865 C 10.0595 10.5865 8.866 10.54 8.525 10.54 C 8.2305 10.54 7.2075 10.5865 6.913 10.5865 C 6.6805 10.5865 6.5565 10.4625 6.5565 10.214499 C 6.5565 10.0595 6.696 9.981999 6.9905 9.981999 C 7.4709997 9.981999 7.719 9.8735 7.7345 9.6565 L 7.8275 8.4939995 L 4.0455 1.9375 L 3.4875 9.5015 C 3.441 9.889 4.092 9.981999 4.588 9.981999 C 4.8515 9.981999 4.9755 10.106 4.9755 10.354 C 4.9755 10.509 4.8824997 10.5865 4.6965 10.5865 C 4.3554997 10.5865 3.1464999 10.54 2.8055 10.54 C 2.511 10.54 1.4879999 10.5865 1.1934999 10.5865 C 0.96099997 10.5865 0.85249996 10.4625 0.85249996 10.23 C 0.85249996 10.0595 1.0074999 9.981999 1.3019999 9.981999 C 1.953 9.981999 2.0149999 9.951 2.046 9.486 L 2.7435 0.1085 C 2.759 -0.18599999 2.8675 -0.341 3.0535 -0.341 C 3.2549999 -0.31 3.3325 -0.2635 3.4565 -0.031 C 3.472 -0.0155 3.472 0 3.472 0.0155 L 7.8894997 7.657 L 8.4475 0.1085 C 8.463 -0.18599999 8.5715 -0.341 8.7575 -0.341 C 8.912499 -0.341 9.052 -0.2325 9.176 -0.0155 L 14.229 8.7109995 C 14.6475 9.4705 14.941999 9.9045 15.8875 9.981999 C 16.1665 10.013 16.244 10.0905 16.244 10.354 C 16.244 10.509 16.1665 10.5865 15.995999 10.5865 C 15.778999 10.5865 15.035 10.54 14.818 10.54 Z "/>
        </symbol>
        <symbol id="g4F703E6593DE2699BCEF8BADE08B3D1" overflow="visible">
            <path d="M 12.927 10.5865 C 12.6635 10.5865 11.749 10.54 11.485499 10.54 C 11.1755 10.54 10.0905 10.5865 9.780499 10.5865 C 9.547999 10.5865 9.424 10.4625 9.424 10.214499 C 9.424 10.075 9.5015 9.997499 9.672 9.981999 C 10.044 9.9355 10.23 9.8115 10.23 9.5789995 C 10.23 9.4395 10.137 9.269 9.951 9.0675 L 7.533 6.4635 C 7.0835 7.5175 6.6495 8.556 6.2 9.61 C 6.2155 9.641 6.231 9.672 6.2774997 9.703 C 6.417 9.858 6.6805 9.951 7.0525 9.981999 C 7.3005 10.013 7.4245 10.137 7.4245 10.3385 C 7.4245 10.509 7.3315 10.5865 7.13 10.5865 C 6.758 10.5865 5.5645 10.54 5.1925 10.54 C 4.867 10.54 3.7975 10.5865 3.472 10.5865 C 3.2395 10.5865 3.131 10.4625 3.131 10.214499 C 3.131 10.0595 3.2705 9.981999 3.5495 9.981999 C 4.2469997 9.981999 4.4639997 9.981999 4.65 9.5325 L 6.448 5.301 L 3.224 1.8445 C 3.1775 1.798 3.1155 1.736 3.0379999 1.6895 C 2.4025 1.023 1.674 0.65099996 0.8215 0.6045 C 0.55799997 0.589 0.4185 0.4495 0.4185 0.217 C 0.465 0.0775 0.48049998 0 0.682 0 C 0.94549996 0 1.86 0.046499997 2.1234999 0.046499997 C 2.449 0.046499997 3.5184999 0 3.8439999 0 C 4.0765 0 4.185 0.124 4.185 0.37199998 C 4.185 0.5115 4.1075 0.589 3.937 0.6045 C 3.565 0.6355 3.379 0.775 3.379 1.0074999 C 3.379 1.1625 3.5184999 1.3795 3.7819998 1.6585 C 4.743 2.6815 5.7195 3.7045 6.665 4.743 C 7.192 3.4875 7.7345 2.2475 8.246 0.9765 C 8.2305 0.94549996 8.215 0.9145 8.1685 0.868 C 8.029 0.7285 7.7809997 0.65099996 7.409 0.6045 C 7.1765 0.5735 7.0525 0.4495 7.0525 0.248 C 7.0525 0.0775 7.1454997 0 7.3469996 0 L 9.2845 0.046499997 C 9.61 0.046499997 10.695 0 10.974 0 C 11.2065 0 11.3305 0.124 11.3305 0.3565 C 11.3305 0.5115 11.222 0.589 10.9895 0.6045 C 10.509 0.6045 10.198999 0.62 10.0905 0.682 C 9.981999 0.74399996 9.858 0.93 9.734 1.24 L 7.7655 5.9365 C 8.8195 7.0525 9.61 7.8894997 10.1215 8.463 C 10.4935 8.8505 10.7415 9.114 10.881 9.2225 C 11.4545 9.703 12.09 9.951 12.787499 9.981999 C 13.113 9.997499 13.1905 10.075 13.1905 10.3695 C 13.144 10.509 13.1285 10.5865 12.927 10.5865 Z "/>
        </symbol>
        <symbol id="g428E70256F46D7AB13753CC117E8AD30" overflow="visible">
            <path d="M 10.292 10.54 C 10.013 10.54 9.052 10.5865 8.7575 10.5865 C 8.525 10.5865 8.401 10.4625 8.401 10.23 C 8.401 10.0595 8.4939995 9.981999 8.695499 9.981999 C 9.021 9.981999 9.1915 9.889 9.1915 9.703 C 9.1915 9.5325 9.052 9.3 8.7885 9.0055 L 5.301 4.9909997 L 3.658 9.4395 C 3.6115 9.563499 3.5805 9.641 3.565 9.6875 C 3.565 9.889 3.8439999 9.981999 4.402 9.981999 C 4.6965 9.981999 4.836 10.106 4.836 10.354 C 4.836 10.509 4.743 10.5865 4.5415 10.5865 L 2.6039999 10.54 C 2.263 10.54 1.178 10.5865 0.899 10.5865 C 0.6665 10.5865 0.5425 10.4625 0.5425 10.214499 C 0.5425 10.0595 0.682 9.981999 0.96099997 9.981999 C 1.24 9.981999 1.4725 9.951 1.612 9.92 C 1.9065 9.8425 1.9219999 9.796 2.0149999 9.5015 L 3.906 4.4639997 C 3.9524999 4.3554997 3.968 4.278 3.968 4.2315 L 3.6425 2.945 C 3.4565 2.1545 3.3325 1.6585 3.2705 1.457 C 3.162 1.0385 3.0535 0.7905 2.945 0.713 C 2.8365 0.6355 2.48 0.6045 1.8909999 0.6045 C 1.55 0.589 1.4104999 0.5735 1.4104999 0.2325 C 1.4104999 0.0775 1.5035 0 1.6895 0 L 3.6269999 0.046499997 L 5.58 0 C 5.8125 -0.0155 5.9365 0.1085 5.9365 0.37199998 C 5.9365 0.48049998 5.89 0.55799997 5.8125 0.5735 C 5.6575 0.589 5.5334997 0.6045 5.456 0.6045 C 4.9445 0.62 4.6345 0.65099996 4.557 0.6975 C 4.526 0.713 4.5105 0.74399996 4.5105 0.806 C 4.5105 0.868 4.588 1.1934999 4.7275 1.767 L 5.27 3.9215 C 5.3164997 4.123 5.3785 4.278 5.4715 4.371 L 9.269 8.742 L 9.4705 8.9435 C 9.8735 9.346499 10.2455 9.6255 10.571 9.764999 C 10.834499 9.889 11.129 9.9665 11.4545 9.981999 C 11.7335 10.013 11.811 10.0905 11.811 10.3385 C 11.811 10.509 11.717999 10.5865 11.5475 10.5865 C 11.315 10.5865 10.5245 10.54 10.292 10.54 Z "/>
        </symbol>
        <symbol id="gB443B4680D0C270D04625407487547E7" overflow="visible">
            <path d="M 3.0814002 5.9566503 C 2.8101501 5.9566503 2.6257 5.8481503 2.52805 5.6203003 L 0.70525 1.0416 L 1.1935 1.0416 L 3.6022 5.02355 C 3.65645 5.1212 3.6890001 5.2297 3.6890001 5.34905 C 3.6890001 5.67455 3.4069002 5.9566503 3.0814002 5.9566503 Z "/>
        </symbol>
        <symbol id="gD11ADD77B227473BFC90C4E9505203E9" overflow="visible">
            <path d="M 11.16 10.1215 C 11.191 10.261 11.2065 10.354 11.2065 10.385 C 11.2065 10.5245 11.129 10.5865 10.9585 10.5865 L 4.2935 10.5865 C 3.906 10.5865 3.8595 10.54 3.7665 10.23 L 2.9294999 7.4865 C 2.8985 7.409 2.883 7.316 2.8675 7.2385 C 2.914 7.1145 2.945 7.0215 3.1155 7.0215 C 3.1929998 7.0215 3.286 7.0835 3.379 7.2075 C 3.7045 8.215 4.1384997 8.9435 4.6809998 9.3619995 C 5.2235 9.780499 6.0295 9.981999 7.0835 9.981999 L 9.4395 9.981999 L 0.96099997 0.5115 L 0.899 0.2015 C 0.899 0.062 0.992 0 1.1625 0 L 7.9979997 0 C 8.401 0 8.4475 0.031 8.5405 0.3565 L 9.6255 3.751 C 9.641 3.813 9.6875 3.9215 9.6875 3.9835 C 9.6875 4.1384997 9.5945 4.216 9.424 4.216 C 9.3155 4.216 9.207 4.0765 9.114 3.7819998 C 8.773 2.728 8.3545 1.953 7.843 1.457 C 7.3005 0.9145 6.4014997 0.65099996 5.1615 0.65099996 L 2.6815 0.65099996 Z "/>
        </symbol>
        <symbol id="g27DF7290036B7CD6E201DD15FE212BCF" overflow="visible">
            <path d="M 5.67455 5.9566503 C 5.3924503 5.9566503 5.208 5.8481503 5.1212 5.6203003 L 3.26585 1.0416 L 3.76495 1.0416 L 6.2062 5.02355 C 6.26045 5.1212 6.293 5.2297 6.293 5.34905 C 6.293 5.67455 6.00005 5.9566503 5.67455 5.9566503 Z M 3.11395 5.9566503 C 2.83185 5.9566503 2.6474001 5.8481503 2.5606 5.6203003 L 0.70525 1.0416 L 1.20435 1.0416 L 3.6347501 5.02355 C 3.69985 5.1212 3.7324002 5.2297 3.7324002 5.34905 C 3.7324002 5.67455 3.43945 5.9566503 3.11395 5.9566503 Z "/>
        </symbol>
    </defs>
</svg>
