<svg class="typst-doc" viewBox="0 0 110.83885000004999 109.7895" width="110.83885000004999pt" height="109.7895pt" xmlns="http://www.w3.org/2000/svg" xmlns:xlink="http://www.w3.org/1999/xlink" xmlns:h5="http://www.w3.org/1999/xhtml">
    <path class="typst-shape" fill="#00000000" fill-rule="nonzero" d="M 0 0 L 0 109.7895 L 110.83885 109.7895 L 110.83885 0 Z "/>
    <g>
        <g transform="translate(0 1.5500000000000003)">
            <g class="typst-group">
                <g>
                    <g transform="translate(0 0)">
                        <g class="typst-group">
                            <g>
                                <g transform="translate(50.170350015748035 22.986500000000003)">
                                    <path class="typst-shape" fill="none" stroke="#000000" stroke-width="0.744" stroke-linecap="round" stroke-linejoin="miter" stroke-miterlimit="4" d="M 0 0 L 43.234543 0 "/>
                                </g>
                                <g transform="translate(90.48320244532273 22.986500000000003)">
                                    <path class="typst-shape" fill="none" stroke="#000000" stroke-width="0.744" stroke-linecap="round" stroke-linejoin="miter" stroke-miterlimit="4" d="M 2.92169 0 C 1.4216586 0.68993735 0.33764195 2.0502946 0 3.6664956 "/>
                                </g>
                                <g transform="translate(90.48320244532273 19.320004383787058)">
                                    <path class="typst-shape" fill="none" stroke="#000000" stroke-width="0.744" stroke-linecap="round" stroke-linejoin="miter" stroke-miterlimit="4" d="M 2.92169 3.6664956 C 1.4216586 2.9765582 0.33764195 1.6162009 0 0 "/>
                                </g>
                                <g transform="translate(62.06137122854637 0)">
                                    <path class="typst-shape" fill="none" d="M 0 0 L 19.8245 0 L 19.8245 16.7865 L 0 16.7865 L 0 0 Z "/>
                                </g>
                                <g transform="translate(62.061371165554256 -0.000000047244090788221304)">
                                    <g class="typst-group">
                                        <g>
                                            <g transform="translate(0 0)">
                                                <g class="typst-group">
                                                    <g>
                                                        <g transform="translate(0 0)">
                                                            <g class="typst-group">
                                                                <g>
                                                                    <g transform="translate(0 0)">
                                                                        <g class="typst-group">
                                                                            <g>
                                                                                <g transform="translate(3.1000000000000005 13.6865)">
                                                                                    <g class="typst-text" transform="scale(1, -1)">
                                                                                        <use xlink:href="#g4F703E6593DE2699BCEF8BADE08B3D1" x="0" fill="#000000" fill-rule="nonzero"/>
                                                                                    </g>
                                                                                </g>
                                                                            </g>
                                                                        </g>
                                                                    </g>
                                                                </g>
                                                            </g>
                                                        </g>
                                                    </g>
                                                </g>
                                            </g>
                                        </g>
                                    </g>
                                </g>
                                <g transform="translate(31.551799999999997 37.32240000000001)">
                                    <path class="typst-shape" fill="none" stroke="#000000" stroke-width="0.744" stroke-linecap="round" stroke-linejoin="miter" stroke-miterlimit="4" d="M 0 0 L 0 39.38418 "/>
                                </g>
                                <g transform="translate(27.88530439953509 73.78488957918101)">
                                    <path class="typst-shape" fill="none" stroke="#000000" stroke-width="0.744" stroke-linecap="round" stroke-linejoin="miter" stroke-miterlimit="4" d="M 3.6664956 2.92169 C 2.9765582 1.4216586 1.6162009 0.33764195 0 0 "/>
                                </g>
                                <g transform="translate(31.55180001574803 73.78488957918101)">
                                    <path class="typst-shape" fill="none" stroke="#000000" stroke-width="0.744" stroke-linecap="round" stroke-linejoin="miter" stroke-miterlimit="4" d="M 0 2.92169 C 0.68993735 1.4216586 2.0502946 0.33764195 3.6664956 0 "/>
                                </g>
                                <g transform="translate(0 46.442714833499515)">
                                    <path class="typst-shape" fill="none" d="M 0 0 L 25.3518 0 L 25.3518 21.51555 L 0 21.51555 L 0 0 Z "/>
                                </g>
                                <g transform="translate(-0.000000047244094368909106 46.44271471538928)">
                                    <g class="typst-group">
                                        <g>
                                            <g transform="translate(0 0)">
                                                <g class="typst-group">
                                                    <g>
                                                        <g transform="translate(0 0)">
                                                            <g class="typst-group">
                                                                <g>
                                                                    <g transform="translate(0 0)">
                                                                        <g class="typst-group">
                                                                            <g>
                                                                                <g transform="translate(3.1000000000000005 13.6865)">
                                                                                    <g class="typst-text" transform="scale(1, -1)">
                                                                                        <use xlink:href="#g1CD92365D9D78064E73A23B601B55DC4" x="0" fill="#000000" fill-rule="nonzero"/>
                                                                                    </g>
                                                                                </g>
                                                                                <g transform="translate(12.9425 17.515)">
                                                                                    <g class="typst-text" transform="scale(1, -1)">
                                                                                        <use xlink:href="#g4A3642548B99C9DA3AA80CEBB5424D8F" x="0" fill="#000000" fill-rule="nonzero"/>
                                                                                    </g>
                                                                                </g>
                                                                            </g>
                                                                        </g>
                                                                    </g>
                                                                </g>
                                                            </g>
                                                        </g>
                                                    </g>
                                                </g>
                                            </g>
                                        </g>
                                    </g>
                                </g>
                                <g transform="translate(46.9424276378007 32.696155902251014)">
                                    <path class="typst-shape" fill="none" stroke="#000000" stroke-width="0.744" stroke-linecap="round" stroke-linejoin="miter" stroke-miterlimit="4" d="M 0 51.07857 L 50.692303 0 "/>
                                </g>
                                <g transform="translate(97.31805395950751 32.696155811023615)">
                                    <path class="typst-shape" fill="none" stroke="#000000" stroke-width="0.744" stroke-linecap="round" stroke-linejoin="miter" stroke-miterlimit="4" d="M 0.31667522 0 C -0.2502661 1.5507042 -0.04830508 3.2783833 0.86100954 4.656517 "/>
                                </g>
                                <g transform="translate(92.97421428682213 32.18718381141353)">
                                    <path class="typst-shape" fill="none" stroke="#000000" stroke-width="0.744" stroke-linecap="round" stroke-linejoin="miter" stroke-miterlimit="4" d="M 4.660515 0.508972 C 3.1141589 1.0876681 1.3849967 0.8988273 0 0 "/>
                                </g>
                                <g transform="translate(76.82027009050098 62.470811648559355)">
                                    <path class="typst-shape" fill="none" d="M 0 0 L 19.8245 0 L 19.8245 16.7865 L 0 16.7865 L 0 0 Z "/>
                                </g>
                                <g transform="translate(76.82027002750887 62.47081160131526)">
                                    <g class="typst-group">
                                        <g>
                                            <g transform="translate(0 0)">
                                                <g class="typst-group">
                                                    <g>
                                                        <g transform="translate(0 0)">
                                                            <g class="typst-group">
                                                                <g>
                                                                    <g transform="translate(0 0)">
                                                                        <g class="typst-group">
                                                                            <g>
                                                                                <g transform="translate(3.1000000000000005 13.6865)">
                                                                                    <g class="typst-text" transform="scale(1, -1)">
                                                                                        <use xlink:href="#g4F703E6593DE2699BCEF8BADE08B3D1" x="0" fill="#000000" fill-rule="nonzero"/>
                                                                                    </g>
                                                                                </g>
                                                                                <g transform="translate(3.1000000000000005 0.867999999999999)">
                                                                                    <path class="typst-shape" fill="none" stroke="#000000" stroke-width="0.744" stroke-linecap="butt" stroke-linejoin="miter" stroke-miterlimit="4" d="M 0 0 L 13.6245 0 "/>
                                                                                </g>
                                                                            </g>
                                                                        </g>
                                                                    </g>
                                                                </g>
                                                            </g>
                                                        </g>
                                                    </g>
                                                </g>
                                            </g>
                                        </g>
                                    </g>
                                </g>
                                <g transform="translate(18.93324999995 89.82239999999999)">
                                    <path class="typst-shape" fill="none" d="M 0 0 L 25.2371 0 L 25.2371 16.8671 L 0 16.8671 L 0 0 Z "/>
                                </g>
                                <g transform="translate(18.93324993700787 89.82239993700786)">
                                    <g class="typst-group">
                                        <g>
                                            <g transform="translate(0 0)">
                                                <g class="typst-group">
                                                    <g>
                                                        <g transform="translate(0 0)">
                                                            <g class="typst-group">
                                                                <g>
                                                                    <g transform="translate(0.00000000004999893412679639 13.726799999999997)">
                                                                        <g class="typst-text" transform="scale(1, -1)">
                                                                            <use xlink:href="#gA5151A06B35E7D95A0A673FF18E3DFF4" x="0" fill="#000000" fill-rule="nonzero"/>
                                                                        </g>
                                                                    </g>
                                                                    <g transform="translate(12.911500000049998 5.919449999999999)">
                                                                        <g class="typst-text" transform="scale(1, -1)">
                                                                            <use xlink:href="#gBFB267D1B89D0E3E791444AF9B4F1BCD" x="0" fill="#000000" fill-rule="nonzero"/>
                                                                            <use xlink:href="#gC796C24F49B3D6D074E95D7E15BB3CFA" x="5.424999999999999" fill="#000000" fill-rule="nonzero"/>
                                                                        </g>
                                                                    </g>
                                                                    <g transform="translate(12.911500000049998 17.925749999999997)">
                                                                        <g class="typst-text" transform="scale(1, -1)">
                                                                            <use xlink:href="#g3FC90D9C5235721C1FCE825E0436D1C2" x="0" fill="#000000" fill-rule="nonzero"/>
                                                                        </g>
                                                                    </g>
                                                                </g>
                                                            </g>
                                                        </g>
                                                    </g>
                                                </g>
                                            </g>
                                        </g>
                                    </g>
                                </g>
                                <g transform="translate(18.93324999995 14.650600000000003)">
                                    <path class="typst-shape" fill="none" d="M 0 0 L 25.2371 0 L 25.2371 16.6718 L 0 16.6718 L 0 0 Z "/>
                                </g>
                                <g transform="translate(18.93324993700787 14.650599937007877)">
                                    <g class="typst-group">
                                        <g>
                                            <g transform="translate(0 0)">
                                                <g class="typst-group">
                                                    <g>
                                                        <g transform="translate(0 0)">
                                                            <g class="typst-group">
                                                                <g>
                                                                    <g transform="translate(0.00000000004999893412679639 13.629149999999997)">
                                                                        <g class="typst-text" transform="scale(1, -1)">
                                                                            <use xlink:href="#gA5151A06B35E7D95A0A673FF18E3DFF4" x="0" fill="#000000" fill-rule="nonzero"/>
                                                                        </g>
                                                                    </g>
                                                                    <g transform="translate(12.911500000049998 6.5472)">
                                                                        <g class="typst-text" transform="scale(1, -1)">
                                                                            <use xlink:href="#gBFB267D1B89D0E3E791444AF9B4F1BCD" x="0" fill="#000000" fill-rule="nonzero"/>
                                                                            <use xlink:href="#gC796C24F49B3D6D074E95D7E15BB3CFA" x="5.424999999999999" fill="#000000" fill-rule="nonzero"/>
                                                                        </g>
                                                                    </g>
                                                                    <g transform="translate(12.911500000049998 17.457649999999997)">
                                                                        <g class="typst-text" transform="scale(1, -1)">
                                                                            <use xlink:href="#gE50E1EEC1CE55C33C65B8D5CA7688017" x="0" fill="#000000" fill-rule="nonzero"/>
                                                                        </g>
                                                                    </g>
                                                                </g>
                                                            </g>
                                                        </g>
                                                    </g>
                                                </g>
                                            </g>
                                        </g>
                                    </g>
                                </g>
                                <g transform="translate(102.67034999994999 17.329000000000008)">
                                    <path class="typst-shape" fill="none" d="M 0 0 L 8.1685 0 L 8.1685 11.315 L 0 11.315 L 0 0 Z "/>
                                </g>
                                <g transform="translate(102.67034996850394 17.328999937007875)">
                                    <g class="typst-group">
                                        <g>
                                            <g transform="translate(0 0)">
                                                <g class="typst-group">
                                                    <g>
                                                        <g transform="translate(0 0)">
                                                            <g class="typst-group">
                                                                <g>
                                                                    <g transform="translate(0.000000000049999829298746954 10.95075)">
                                                                        <g class="typst-text" transform="scale(1, -1)">
                                                                            <use xlink:href="#gFA6E2A6A32786C17B1215A028279417B" x="0" fill="#000000" fill-rule="nonzero"/>
                                                                        </g>
                                                                    </g>
                                                                </g>
                                                            </g>
                                                        </g>
                                                    </g>
                                                </g>
                                            </g>
                                        </g>
                                    </g>
                                </g>
                            </g>
                        </g>
                    </g>
                </g>
            </g>
        </g>
    </g>
    <defs id="glyph">
        <symbol id="g4F703E6593DE2699BCEF8BADE08B3D1" overflow="visible">
            <path d="M 12.927 10.5865 C 12.6635 10.5865 11.749 10.54 11.485499 10.54 C 11.1755 10.54 10.0905 10.5865 9.780499 10.5865 C 9.547999 10.5865 9.424 10.4625 9.424 10.214499 C 9.424 10.075 9.5015 9.997499 9.672 9.981999 C 10.044 9.9355 10.23 9.8115 10.23 9.5789995 C 10.23 9.4395 10.137 9.269 9.951 9.0675 L 7.533 6.4635 C 7.0835 7.5175 6.6495 8.556 6.2 9.61 C 6.2155 9.641 6.231 9.672 6.2774997 9.703 C 6.417 9.858 6.6805 9.951 7.0525 9.981999 C 7.3005 10.013 7.4245 10.137 7.4245 10.3385 C 7.4245 10.509 7.3315 10.5865 7.13 10.5865 C 6.758 10.5865 5.5645 10.54 5.1925 10.54 C 4.867 10.54 3.7975 10.5865 3.472 10.5865 C 3.2395 10.5865 3.131 10.4625 3.131 10.214499 C 3.131 10.0595 3.2705 9.981999 3.5495 9.981999 C 4.2469997 9.981999 4.4639997 9.981999 4.65 9.5325 L 6.448 5.301 L 3.224 1.8445 C 3.1775 1.798 3.1155 1.736 3.0379999 1.6895 C 2.4025 1.023 1.674 0.65099996 0.8215 0.6045 C 0.55799997 0.589 0.4185 0.4495 0.4185 0.217 C 0.465 0.0775 0.48049998 0 0.682 0 C 0.94549996 0 1.86 0.046499997 2.1234999 0.046499997 C 2.449 0.046499997 3.5184999 0 3.8439999 0 C 4.0765 0 4.185 0.124 4.185 0.37199998 C 4.185 0.5115 4.1075 0.589 3.937 0.6045 C 3.565 0.6355 3.379 0.775 3.379 1.0074999 C 3.379 1.1625 3.5184999 1.3795 3.7819998 1.6585 C 4.743 2.6815 5.7195 3.7045 6.665 4.743 C 7.192 3.4875 7.7345 2.2475 8.246 0.9765 C 8.2305 0.94549996 8.215 0.9145 8.1685 0.868 C 8.029 0.7285 7.7809997 0.65099996 7.409 0.6045 C 7.1765 0.5735 7.0525 0.4495 7.0525 0.248 C 7.0525 0.0775 7.1454997 0 7.3469996 0 L 9.2845 0.046499997 C 9.61 0.046499997 10.695 0 10.974 0 C 11.2065 0 11.3305 0.124 11.3305 0.3565 C 11.3305 0.5115 11.222 0.589 10.9895 0.6045 C 10.509 0.6045 10.198999 0.62 10.0905 0.682 C 9.981999 0.74399996 9.858 0.93 9.734 1.24 L 7.7655 5.9365 C 8.8195 7.0525 9.61 7.8894997 10.1215 8.463 C 10.4935 8.8505 10.7415 9.114 10.881 9.2225 C 11.4545 9.703 12.09 9.951 12.787499 9.981999 C 13.113 9.997499 13.1905 10.075 13.1905 10.3695 C 13.144 10.509 13.1285 10.5865 12.927 10.5865 Z "/>
        </symbol>
        <symbol id="g1CD92365D9D78064E73A23B601B55DC4" overflow="visible">
            <path d="M 2.294 3.379 C 2.294 5.363 3.162 7.378 4.1384997 8.4939995 C 4.929 9.4085 6.2929997 10.323 7.8275 10.323 C 9.4395 10.323 10.23 9.0985 10.23 7.4245 C 10.23 7.285 10.1835 6.789 10.1835 6.6495 C 10.1835 6.5099998 10.2765 6.4325 10.478 6.4325 C 10.5555 6.4325 10.617499 6.448 10.664 6.4635 C 10.7415 6.572 10.788 6.6805 10.819 6.789 L 11.78 10.7105 C 11.78 10.849999 11.702499 10.9275 11.5475 10.9275 C 11.485499 10.9275 11.3925 10.8654995 11.268499 10.726 L 10.261 9.5945 C 9.6565 10.478 8.804 10.9275 7.7035 10.9275 C 6.851 10.9275 6.014 10.726 5.1615 10.3385 C 3.441 9.5325 2.1855 8.261499 1.3795 6.5255 C 0.9765 5.673 0.775 4.805 0.775 3.9215 C 0.775 2.6815 1.1625 1.674 1.953 0.868 C 2.7435 0.062 3.751 -0.341 4.9909997 -0.341 C 6.2155 -0.341 7.3315 0.1085 8.339 0.992 C 8.7575 1.3485 9.114 1.7825 9.4085 2.263 C 9.827 2.9605 10.044 3.441 10.044 3.7354999 C 10.044 3.875 9.9665 3.9524999 9.796 3.9524999 C 9.6565 3.9524999 9.5789995 3.8904998 9.547999 3.751 C 9.2225 2.7435 8.7109995 1.9375 8.0135 1.364 C 7.13 0.6355 6.2 0.2635 5.239 0.2635 C 3.379 0.2635 2.294 1.5189999 2.294 3.379 Z "/>
        </symbol>
        <symbol id="g4A3642548B99C9DA3AA80CEBB5424D8F" overflow="visible">
            <path d="M 7.54075 3.00545 L 4.5136 3.00545 L 4.5136 6.0326 C 4.5136 6.2062 4.39425 6.32555 4.22065 6.32555 C 4.04705 6.32555 3.9277 6.2062 3.9277 6.0326 L 3.9277 3.00545 L 0.90055 3.00545 C 0.72695 3.00545 0.60760003 2.8861 0.60760003 2.7125 C 0.60760003 2.5389001 0.72695 2.41955 0.90055 2.41955 L 3.9277 2.41955 L 3.9277 -0.60760003 C 3.9277 -0.7812 4.04705 -0.90055 4.22065 -0.90055 C 4.39425 -0.90055 4.5136 -0.7812 4.5136 -0.60760003 L 4.5136 2.41955 L 7.54075 2.41955 C 7.71435 2.41955 7.8337 2.5389001 7.8337 2.7125 C 7.8337 2.85355 7.6818004 3.00545 7.54075 3.00545 Z "/>
        </symbol>
        <symbol id="gA5151A06B35E7D95A0A673FF18E3DFF4" overflow="visible">
            <path d="M 11.7645 0 C 12.028 0 12.1675 0.062 12.1675 0.2015 L 6.8975 10.788 C 6.789 10.9895 6.6495 11.098 6.448 11.098 C 6.2465 11.098 6.107 10.9895 5.9985 10.788 L 0.806 0.3875 C 0.75949997 0.27899998 0.7285 0.217 0.7285 0.18599999 C 0.7285 0.062 0.868 0 1.1315 0 Z M 5.9519997 9.3619995 L 9.981999 1.2865 L 1.9219999 1.2865 Z "/>
        </symbol>
        <symbol id="gBFB267D1B89D0E3E791444AF9B4F1BCD" overflow="visible">
            <path d="M 2.7016501 -0.11935 C 3.37435 -0.11935 3.93855 0.11935 4.4051 0.59675 C 4.87165 1.07415 5.11035 1.6492001 5.11035 2.3219001 C 5.11035 3.00545 4.8825 3.6022 4.4268003 4.1013002 C 3.9711 4.6004 3.39605 4.8608003 2.7125 4.8608003 C 2.02895 4.8608003 1.46475 4.6004 0.9982 4.1013002 C 0.53165 3.6022 0.30380002 3.00545 0.30380002 2.3219001 C 0.30380002 1.6492001 0.53165 1.07415 0.9982 0.59675 C 1.46475 0.11935 2.0398 -0.11935 2.7016501 -0.11935 Z M 2.7125 0.22785 C 2.1917 0.22785 1.8011 0.4557 1.52985 0.92225003 C 1.35625 1.22605 1.2694501 1.72515 1.2694501 2.4087 C 1.2694501 3.07055 1.35625 3.54795 1.519 3.8517501 C 1.7794 4.3183002 2.17 4.54615 2.7016501 4.54615 C 3.2116 4.54615 3.6022 4.3183002 3.87345 3.87345 C 4.0579 3.5696502 4.1447 3.0814002 4.1447 2.4087 C 4.1447 1.1501 3.7758 0.22785 2.7125 0.22785 Z "/>
        </symbol>
        <symbol id="gC796C24F49B3D6D074E95D7E15BB3CFA" overflow="visible">
            <path d="M 3.2333 -0.14105 C 3.9060001 -0.14105 4.48105 0.09765 4.9476 0.5859 C 5.41415 1.07415 5.65285 1.6492001 5.65285 2.33275 C 5.65285 2.9946 5.43585 3.5588 5.0127 4.0362 C 4.56785 4.54615 4.02535 4.7957 3.37435 4.7957 C 2.821 4.7957 2.3436 4.5787 1.9313 4.15555 L 1.9313 4.7957 L 0.30380002 4.67635 L 0.30380002 4.26405 C 0.70525 4.26405 0.94395 4.24235 1.0199 4.1881 C 1.09585 4.13385 1.13925 3.9928 1.13925 3.76495 L 1.13925 -1.24775 C 1.13925 -1.4539 1.09585 -1.5841 1.0199 -1.6275 C 0.94395 -1.6709 0.70525 -1.68175 0.30380002 -1.68175 L 0.30380002 -2.1049001 L 1.5407001 -2.07235 L 2.78845 -2.1049001 L 2.78845 -1.68175 C 2.387 -1.68175 2.1591501 -1.6709 2.0832 -1.6275 C 2.00725 -1.5841 1.96385 -1.4539 1.96385 -1.24775 L 1.96385 0.4774 C 2.20255 0.14105 2.6691 -0.14105 3.2333 -0.14105 Z M 3.2984002 4.43765 C 3.7432501 4.43765 4.0904503 4.1881 4.3617 3.6890001 C 4.56785 3.26585 4.67635 2.821 4.67635 2.33275 C 4.67635 1.8228 4.557 1.35625 4.3183002 0.93310004 C 4.0362 0.42315 3.65645 0.1736 3.1899002 0.1736 C 2.7342 0.1736 2.3761501 0.3906 2.1049001 0.81375 C 2.00725 0.9548 1.96385 1.09585 1.96385 1.2369 L 1.96385 3.61305 C 2.2785 4.1664 2.72335 4.43765 3.2984002 4.43765 Z "/>
        </symbol>
        <symbol id="g3FC90D9C5235721C1FCE825E0436D1C2" overflow="visible">
            <path d="M 7.5733004 0.50995 L 4.48105 0.50995 L 4.48105 7.1610003 C 4.48105 7.3346 4.39425 7.4214 4.22065 7.4214 C 4.04705 7.4214 3.9602501 7.3346 3.9602501 7.1610003 L 3.9602501 0.50995 L 0.86800003 0.50995 C 0.6944 0.50995 0.60760003 0.42315 0.60760003 0.2604 C 0.60760003 0.0868 0.6944 0 0.86800003 0 L 7.5733004 0 C 7.7469 0 7.8337 0.0868 7.8337 0.2604 C 7.8337 0.3906 7.71435 0.50995 7.5733004 0.50995 Z "/>
        </symbol>
        <symbol id="gE50E1EEC1CE55C33C65B8D5CA7688017" overflow="visible">
            <path d="M 7.5733004 2.9729002 L 4.48105 2.9729002 L 4.48105 6.0651503 C 4.48105 6.23875 4.39425 6.32555 4.22065 6.32555 C 4.04705 6.32555 3.9602501 6.23875 3.9602501 6.0651503 L 3.9602501 2.9729002 L 0.86800003 2.9729002 C 0.6944 2.9729002 0.60760003 2.8861 0.60760003 2.7125 C 0.60760003 2.5389001 0.6944 2.4521 0.86800003 2.4521 L 3.9602501 2.4521 L 3.9602501 -0.64015 C 3.9602501 -0.81375 4.04705 -0.90055 4.22065 -0.90055 C 4.39425 -0.90055 4.48105 -0.81375 4.48105 -0.64015 L 4.48105 2.4521 L 7.5733004 2.4521 C 7.7469 2.4521 7.8337 2.5389001 7.8337 2.7125 C 7.8337 2.85355 7.71435 2.9729002 7.5733004 2.9729002 Z "/>
        </symbol>
        <symbol id="gFA6E2A6A32786C17B1215A028279417B" overflow="visible">
            <path d="M 7.4554996 2.6505 Q 7.6879997 2.6505 7.6879997 2.48 Q 7.6879997 2.325 7.378 1.9065 Q 6.6029997 0.868 5.4172497 0.24024999 Q 4.2315 -0.3875 3.1155 -0.3875 Q 2.0925 -0.3875 1.364 0.18599999 Q 0.18599999 1.054 0.18599999 3.131 Q 0.18599999 4.0299997 0.4495 5.053 Q 1.054 7.409 2.4954998 8.897 Q 3.317 9.734 4.36325 10.261 Q 5.4095 10.788 6.479 10.8965 Q 6.572 10.912 6.7114997 10.912 Q 6.7425 10.9275 7.0835 10.9275 Q 8.261499 10.881 8.261499 9.92 Q 8.261499 9.858 8.2305 9.61 Q 8.122 8.959 7.5175 7.843 Q 7.316 7.4554996 7.099 7.2617497 Q 6.882 7.068 6.4944997 6.944 Q 6.2465 6.882 6.138 6.882 Q 5.9674997 6.882 5.9055 7.006 Q 5.8745 7.068 6.045 7.409 Q 6.417 8.091 6.634 8.7265 Q 6.7114997 8.99 6.7114997 9.207 Q 6.7114997 9.563499 6.51775 9.71075 Q 6.324 9.858 5.9055 9.858 Q 5.177 9.858 4.4795 9.5325 Q 3.3014998 8.9279995 2.4645 7.068 Q 1.736 5.394 1.736 3.8285 Q 1.736 2.418 2.3715 1.55 Q 3.007 0.682 4.2315 0.682 Q 5.3785 0.682 6.1689997 1.8755 Q 6.3705 2.1855 6.73475 2.418 Q 7.099 2.6505 7.4554996 2.6505 Z "/>
        </symbol>
    </defs>
</svg>
