<svg class="typst-doc" viewBox="0 0 240.1324444445444 122.68550000000002" width="240.1324444445444pt" height="122.68550000000002pt" xmlns="http://www.w3.org/2000/svg" xmlns:xlink="http://www.w3.org/1999/xlink" xmlns:h5="http://www.w3.org/1999/xhtml">
    <path class="typst-shape" fill="#00000000" fill-rule="nonzero" d="M 0 0 L 0 122.6855 L 240.13245 122.6855 L 240.13245 0 Z "/>
    <g>
        <g transform="translate(0 1.5500000000000003)">
            <g class="typst-group">
                <g>
                    <g transform="translate(0 0)">
                        <g class="typst-group">
                            <g>
                                <g transform="translate(53.25283333338333 37.17824985826772)">
                                    <path class="typst-shape" fill="none" stroke="#000000" stroke-width="0.744" stroke-linecap="round" stroke-linejoin="miter" stroke-miterlimit="4" d="M 0 0 L 0 46.128 "/>
                                </g>
                                <g transform="translate(49.586337801159885 80.38455957918102)">
                                    <path class="typst-shape" fill="none" stroke="#000000" stroke-width="0.744" stroke-linecap="round" stroke-linejoin="miter" stroke-miterlimit="4" d="M 3.6664956 2.92169 C 2.9765582 1.4216586 1.6162009 0.33764195 0 0 "/>
                                </g>
                                <g transform="translate(53.25283341737283 80.38455957918102)">
                                    <path class="typst-shape" fill="none" stroke="#000000" stroke-width="0.744" stroke-linecap="round" stroke-linejoin="miter" stroke-miterlimit="4" d="M 0 2.92169 C 0.68993735 1.4216586 2.0502946 0.33764195 3.6664956 0 "/>
                                </g>
                                <g transform="translate(202.5690555556055 37.17824985826774)">
                                    <path class="typst-shape" fill="none" stroke="#000000" stroke-width="0.744" stroke-linecap="round" stroke-linejoin="miter" stroke-miterlimit="4" d="M 0 0 L 0 44.24095 "/>
                                </g>
                                <g transform="translate(198.90255984840397 78.49751214611015)">
                                    <path class="typst-shape" fill="none" stroke="#000000" stroke-width="0.744" stroke-linecap="round" stroke-linejoin="miter" stroke-miterlimit="4" d="M 3.6664956 2.92169 C 2.9765582 1.4216586 1.6162009 0.33764195 0 0 "/>
                                </g>
                                <g transform="translate(202.56905546461692 78.49751214611015)">
                                    <path class="typst-shape" fill="none" stroke="#000000" stroke-width="0.744" stroke-linecap="round" stroke-linejoin="miter" stroke-miterlimit="4" d="M 0 2.92169 C 0.68993735 1.4216586 2.0502946 0.33764195 3.6664956 0 "/>
                                </g>
                                <g transform="translate(81.49877786181727 96.42850000000001)">
                                    <path class="typst-shape" fill="none" stroke="#000000" stroke-width="0.744" stroke-linecap="round" stroke-linejoin="miter" stroke-miterlimit="4" d="M 106.43298 0 L 0 0 "/>
                                </g>
                                <g transform="translate(81.49877811028622 92.76200427355086)">
                                    <path class="typst-shape" fill="none" stroke="#000000" stroke-width="0.744" stroke-linecap="round" stroke-linejoin="miter" stroke-miterlimit="4" d="M 0 3.6664956 C 1.5000314 2.9765582 2.584048 1.6162009 2.92169 0 "/>
                                </g>
                                <g transform="translate(81.49877811028622 96.4284998897638)">
                                    <path class="typst-shape" fill="none" stroke="#000000" stroke-width="0.744" stroke-linecap="round" stroke-linejoin="miter" stroke-miterlimit="4" d="M 0 0 C 1.5000314 0.68993735 2.584048 2.0502946 2.92169 3.6664956 "/>
                                </g>
                                <g transform="translate(110.30354283939691 102.62850000000002)">
                                    <path class="typst-shape" fill="none" d="M 0 0 L 48.45145 0 L 48.45145 16.957 L 0 16.957 L 0 0 Z "/>
                                </g>
                                <g transform="translate(110.3035427842788 102.62849996850395)">
                                    <g class="typst-group">
                                        <g>
                                            <g transform="translate(0 0)">
                                                <g class="typst-group">
                                                    <g>
                                                        <g transform="translate(0 0)">
                                                            <g class="typst-group">
                                                                <g>
                                                                    <g transform="translate(0 0)">
                                                                        <g class="typst-group">
                                                                            <g>
                                                                                <g transform="translate(3.1000000000000005 13.6865)">
                                                                                    <g class="typst-text" transform="scale(1, -1)">
                                                                                        <use xlink:href="#gC946B9A0239933D9A51AD3FB818E6C54" x="0" fill="#000000" fill-rule="nonzero"/>
                                                                                        <use xlink:href="#g3F848208E2721D0A8FE26DEDD13A247D" x="12.911499999999998" fill="#000000" fill-rule="nonzero"/>
                                                                                        <use xlink:href="#g78CAFD98B8101D2DE7C3EC0DF482D00F" x="21.5295" fill="#000000" fill-rule="nonzero"/>
                                                                                        <use xlink:href="#g7E57B62754DB3F461FA5B53E1DF0B06D" x="25.8385" fill="#000000" fill-rule="nonzero"/>
                                                                                    </g>
                                                                                </g>
                                                                                <g transform="translate(34.967999999999996 8.06)">
                                                                                    <g class="typst-text" transform="scale(1, -1)">
                                                                                        <use xlink:href="#g18D67BD8B06F6A52DBE683214B2FCCA5" x="0" fill="#000000" fill-rule="nonzero"/>
                                                                                    </g>
                                                                                </g>
                                                                            </g>
                                                                        </g>
                                                                    </g>
                                                                </g>
                                                            </g>
                                                        </g>
                                                    </g>
                                                </g>
                                            </g>
                                        </g>
                                    </g>
                                </g>
                                <g transform="translate(112.87766675070615 24.428000000000008)">
                                    <path class="typst-shape" fill="none" stroke="#000000" stroke-width="0.744" stroke-linecap="round" stroke-linejoin="miter" stroke-miterlimit="4" d="M 46.128 0 L 0 0 "/>
                                </g>
                                <g transform="translate(112.87766702367202 20.761504242054784)">
                                    <path class="typst-shape" fill="none" stroke="#000000" stroke-width="0.744" stroke-linecap="round" stroke-linejoin="miter" stroke-miterlimit="4" d="M 0 3.6664956 C 1.5000314 2.9765582 2.584048 1.6162009 2.92169 0 "/>
                                </g>
                                <g transform="translate(112.87766702367202 24.42799985826773)">
                                    <path class="typst-shape" fill="none" stroke="#000000" stroke-width="0.744" stroke-linecap="round" stroke-linejoin="miter" stroke-miterlimit="4" d="M 0 0 C 1.5000314 0.68993735 2.584048 2.0502946 2.92169 3.6664956 "/>
                                </g>
                                <g transform="translate(80.15105277432822 0)">
                                    <path class="typst-shape" fill="none" d="M 0 0 L 111.20923 0 L 111.20923 18.228 L 0 18.228 L 0 0 Z "/>
                                </g>
                                <g transform="translate(80.15105269471317 -0.00000009448818157644261)">
                                    <g class="typst-group">
                                        <g>
                                            <g transform="translate(0 0)">
                                                <g class="typst-group">
                                                    <g>
                                                        <g transform="translate(0 0)">
                                                            <g class="typst-group">
                                                                <g>
                                                                    <g transform="translate(0 0)">
                                                                        <g class="typst-group">
                                                                            <g>
                                                                                <g transform="translate(3.1000000000000005 3.1000000000000005)">
                                                                                    <g class="typst-group">
                                                                                        <g>
                                                                                            <g transform="translate(0 10.5865)">
                                                                                                <g class="typst-text" transform="scale(1, -1)">
                                                                                                    <use xlink:href="#gCC360AB1487A75F91730C12D72A082F0" x="0" fill="#000000" fill-rule="nonzero"/>
                                                                                                </g>
                                                                                            </g>
                                                                                            <g transform="translate(15.813444444444444 10.5865)">
                                                                                                <g class="typst-text" transform="scale(1, -1)">
                                                                                                    <use xlink:href="#g60010F48A9929A8F8EC71A19FE5A1643" x="0" fill="#000000" fill-rule="nonzero"/>
                                                                                                </g>
                                                                                            </g>
                                                                                            <g transform="translate(31.378888888888888 10.5865)">
                                                                                                <g class="typst-text" transform="scale(1, -1)">
                                                                                                    <use xlink:href="#gC946B9A0239933D9A51AD3FB818E6C54" x="0" fill="#000000" fill-rule="nonzero"/>
                                                                                                    <use xlink:href="#g3F848208E2721D0A8FE26DEDD13A247D" x="12.911499999999998" fill="#000000" fill-rule="nonzero"/>
                                                                                                    <use xlink:href="#g78CAFD98B8101D2DE7C3EC0DF482D00F" x="21.5295" fill="#000000" fill-rule="nonzero"/>
                                                                                                    <use xlink:href="#g7E57B62754DB3F461FA5B53E1DF0B06D" x="25.8385" fill="#000000" fill-rule="nonzero"/>
                                                                                                </g>
                                                                                            </g>
                                                                                            <g transform="translate(63.24688888888889 4.960000000000001)">
                                                                                                <g class="typst-text" transform="scale(1, -1)">
                                                                                                    <use xlink:href="#g18D67BD8B06F6A52DBE683214B2FCCA5" x="0" fill="#000000" fill-rule="nonzero"/>
                                                                                                </g>
                                                                                            </g>
                                                                                            <g transform="translate(77.07478333333333 10.5865)">
                                                                                                <g class="typst-text" transform="scale(1, -1)">
                                                                                                    <use xlink:href="#g60010F48A9929A8F8EC71A19FE5A1643" x="0" fill="#000000" fill-rule="nonzero"/>
                                                                                                </g>
                                                                                            </g>
                                                                                            <g transform="translate(92.64022777777778 10.5865)">
                                                                                                <g class="typst-text" transform="scale(1, -1)">
                                                                                                    <use xlink:href="#gCC360AB1487A75F91730C12D72A082F0" x="0" fill="#000000" fill-rule="nonzero"/>
                                                                                                </g>
                                                                                            </g>
                                                                                        </g>
                                                                                    </g>
                                                                                </g>
                                                                            </g>
                                                                        </g>
                                                                    </g>
                                                                </g>
                                                            </g>
                                                        </g>
                                                    </g>
                                                </g>
                                            </g>
                                        </g>
                                    </g>
                                </g>
                                <g transform="translate(165.00566666666666 17.677750000000003)">
                                    <path class="typst-shape" fill="none" d="M 0 0 L 75.12678 0 L 75.12678 13.5005 L 0 13.5005 L 0 0 Z "/>
                                </g>
                                <g transform="translate(165.0056665477315 17.677749984251978)">
                                    <g class="typst-group">
                                        <g>
                                            <g transform="translate(0 0)">
                                                <g class="typst-group">
                                                    <g>
                                                        <g transform="translate(0 0)">
                                                            <g class="typst-group">
                                                                <g>
                                                                    <g transform="translate(0.00000000005000072447069752 12.0435)">
                                                                        <g class="typst-text" transform="scale(1, -1)">
                                                                            <use xlink:href="#gCC360AB1487A75F91730C12D72A082F0" x="0" fill="#000000" fill-rule="nonzero"/>
                                                                        </g>
                                                                    </g>
                                                                    <g transform="translate(15.813444444494445 12.0435)">
                                                                        <g class="typst-text" transform="scale(1, -1)">
                                                                            <use xlink:href="#g60010F48A9929A8F8EC71A19FE5A1643" x="0" fill="#000000" fill-rule="nonzero"/>
                                                                        </g>
                                                                    </g>
                                                                    <g transform="translate(31.37888888893889 12.0435)">
                                                                        <g class="typst-text" transform="scale(1, -1)">
                                                                            <use xlink:href="#gCC360AB1487A75F91730C12D72A082F0" x="0" fill="#000000" fill-rule="nonzero"/>
                                                                        </g>
                                                                    </g>
                                                                    <g transform="translate(47.19233333338333 12.0435)">
                                                                        <g class="typst-text" transform="scale(1, -1)">
                                                                            <use xlink:href="#g60010F48A9929A8F8EC71A19FE5A1643" x="0" fill="#000000" fill-rule="nonzero"/>
                                                                        </g>
                                                                    </g>
                                                                    <g transform="translate(62.757777777827776 12.0435)">
                                                                        <g class="typst-text" transform="scale(1, -1)">
                                                                            <use xlink:href="#gCC360AB1487A75F91730C12D72A082F0" x="0" fill="#000000" fill-rule="nonzero"/>
                                                                        </g>
                                                                    </g>
                                                                </g>
                                                            </g>
                                                        </g>
                                                    </g>
                                                </g>
                                            </g>
                                        </g>
                                    </g>
                                </g>
                                <g transform="translate(0 17.677750000000003)">
                                    <path class="typst-shape" fill="none" d="M 0 0 L 106.50567 0 L 106.50567 13.5005 L 0 13.5005 L 0 0 Z "/>
                                </g>
                                <g transform="translate(-0.00000013118359653506516 17.677749984251978)">
                                    <g class="typst-group">
                                        <g>
                                            <g transform="translate(0 0)">
                                                <g class="typst-group">
                                                    <g>
                                                        <g transform="translate(0 0)">
                                                            <g class="typst-group">
                                                                <g>
                                                                    <g transform="translate(0 1.4570000000000007)">
                                                                        <g class="typst-group">
                                                                            <g>
                                                                                <g transform="translate(0.00000000005000072447069752 10.5865)">
                                                                                    <g class="typst-text" transform="scale(1, -1)">
                                                                                        <use xlink:href="#gCC360AB1487A75F91730C12D72A082F0" x="0" fill="#000000" fill-rule="nonzero"/>
                                                                                    </g>
                                                                                </g>
                                                                                <g transform="translate(15.813444444494445 10.5865)">
                                                                                    <g class="typst-text" transform="scale(1, -1)">
                                                                                        <use xlink:href="#g60010F48A9929A8F8EC71A19FE5A1643" x="0" fill="#000000" fill-rule="nonzero"/>
                                                                                    </g>
                                                                                </g>
                                                                                <g transform="translate(31.37888888893889 10.5865)">
                                                                                    <g class="typst-text" transform="scale(1, -1)">
                                                                                        <use xlink:href="#gCC360AB1487A75F91730C12D72A082F0" x="0" fill="#000000" fill-rule="nonzero"/>
                                                                                    </g>
                                                                                </g>
                                                                                <g transform="translate(47.19233333338333 10.5865)">
                                                                                    <g class="typst-text" transform="scale(1, -1)">
                                                                                        <use xlink:href="#g60010F48A9929A8F8EC71A19FE5A1643" x="0" fill="#000000" fill-rule="nonzero"/>
                                                                                    </g>
                                                                                </g>
                                                                                <g transform="translate(62.757777777827776 10.5865)">
                                                                                    <g class="typst-text" transform="scale(1, -1)">
                                                                                        <use xlink:href="#gCC360AB1487A75F91730C12D72A082F0" x="0" fill="#000000" fill-rule="nonzero"/>
                                                                                    </g>
                                                                                </g>
                                                                                <g transform="translate(78.57122222227221 10.5865)">
                                                                                    <g class="typst-text" transform="scale(1, -1)">
                                                                                        <use xlink:href="#g60010F48A9929A8F8EC71A19FE5A1643" x="0" fill="#000000" fill-rule="nonzero"/>
                                                                                    </g>
                                                                                </g>
                                                                                <g transform="translate(94.13666666671666 10.5865)">
                                                                                    <g class="typst-text" transform="scale(1, -1)">
                                                                                        <use xlink:href="#gCC360AB1487A75F91730C12D72A082F0" x="0" fill="#000000" fill-rule="nonzero"/>
                                                                                    </g>
                                                                                </g>
                                                                            </g>
                                                                        </g>
                                                                    </g>
                                                                </g>
                                                            </g>
                                                        </g>
                                                    </g>
                                                </g>
                                            </g>
                                        </g>
                                    </g>
                                </g>
                                <g transform="translate(31.378888888888884 89.67825000000002)">
                                    <path class="typst-shape" fill="none" d="M 0 0 L 43.74789 0 L 43.74789 13.5005 L 0 13.5005 L 0 0 Z "/>
                                </g>
                                <g transform="translate(31.378888782202228 89.67824998425198)">
                                    <g class="typst-group">
                                        <g>
                                            <g transform="translate(0 0)">
                                                <g class="typst-group">
                                                    <g>
                                                        <g transform="translate(0 0)">
                                                            <g class="typst-group">
                                                                <g>
                                                                    <g transform="translate(0.00000000005000072447069752 12.0435)">
                                                                        <g class="typst-text" transform="scale(1, -1)">
                                                                            <use xlink:href="#gCC360AB1487A75F91730C12D72A082F0" x="0" fill="#000000" fill-rule="nonzero"/>
                                                                        </g>
                                                                    </g>
                                                                    <g transform="translate(15.813444444494445 12.0435)">
                                                                        <g class="typst-text" transform="scale(1, -1)">
                                                                            <use xlink:href="#g60010F48A9929A8F8EC71A19FE5A1643" x="0" fill="#000000" fill-rule="nonzero"/>
                                                                        </g>
                                                                    </g>
                                                                    <g transform="translate(31.37888888893889 12.0435)">
                                                                        <g class="typst-text" transform="scale(1, -1)">
                                                                            <use xlink:href="#gCC360AB1487A75F91730C12D72A082F0" x="0" fill="#000000" fill-rule="nonzero"/>
                                                                        </g>
                                                                    </g>
                                                                </g>
                                                            </g>
                                                        </g>
                                                    </g>
                                                </g>
                                            </g>
                                        </g>
                                    </g>
                                </g>
                                <g transform="translate(196.38455555555552 90.39900000000002)">
                                    <path class="typst-shape" fill="none" d="M 0 0 L 12.369 0 L 12.369 12.059 L 0 12.059 L 0 0 Z "/>
                                </g>
                                <g transform="translate(196.38455546111734 90.39899988976379)">
                                    <g class="typst-group">
                                        <g>
                                            <g transform="translate(0 0)">
                                                <g class="typst-group">
                                                    <g>
                                                        <g transform="translate(0 0)">
                                                            <g class="typst-group">
                                                                <g>
                                                                    <g transform="translate(0.00000000005000072447069752 11.322750000000001)">
                                                                        <g class="typst-text" transform="scale(1, -1)">
                                                                            <use xlink:href="#gCC360AB1487A75F91730C12D72A082F0" x="0" fill="#000000" fill-rule="nonzero"/>
                                                                        </g>
                                                                    </g>
                                                                </g>
                                                            </g>
                                                        </g>
                                                    </g>
                                                </g>
                                            </g>
                                        </g>
                                    </g>
                                </g>
                            </g>
                        </g>
                    </g>
                </g>
            </g>
        </g>
    </g>
    <defs id="glyph">
        <symbol id="gC946B9A0239933D9A51AD3FB818E6C54" overflow="visible">
            <path d="M 4.8824997 6.4014997 C 5.5955 6.4014997 5.9519997 5.8589997 5.9519997 4.7585 L 5.9519997 1.2245 C 5.9519997 0.93 5.9055 0.74399996 5.797 0.682 C 5.6885 0.62 5.332 0.589 4.7585 0.589 L 4.7585 0 L 6.5565 0.046499997 L 8.339 0 L 8.339 0.589 C 7.7655 0.589 7.4245 0.62 7.316 0.682 C 7.2075 0.74399996 7.1454997 0.93 7.1454997 1.2245 L 7.1454997 4.0145 C 7.1454997 5.2545 7.9515 6.4014997 9.1449995 6.4014997 C 9.8735 6.4014997 10.23 5.8589997 10.23 4.7585 L 10.23 1.2245 C 10.23 0.93 10.168 0.74399996 10.0595 0.682 C 9.951 0.62 9.5945 0.589 9.021 0.589 L 9.021 0 L 10.819 0.046499997 L 12.6015 0 L 12.6015 0.589 C 12.1055 0.589 11.78 0.6045 11.625 0.65099996 C 11.47 0.6975 11.408 0.806 11.408 0.992 L 11.408 3.8904998 C 11.408 4.619 11.377 5.1305 11.3305 5.4249997 C 11.1755 6.3705 10.478 6.851 9.2535 6.851 C 8.276999 6.851 7.5485 6.4014997 7.0525 5.487 C 6.8355 6.4014997 6.1535 6.851 4.9909997 6.851 C 4.0145 6.851 3.2705 6.3859997 2.7745 5.456 L 2.7745 6.851 L 0.496 6.6805 L 0.496 6.0915 C 1.054 6.0915 1.395 6.045 1.5189999 5.9519997 C 1.643 5.8589997 1.6895 5.6575 1.6895 5.301 L 1.6895 1.2245 C 1.6895 0.93 1.6274999 0.74399996 1.5189999 0.682 C 1.4104999 0.62 1.0695 0.589 0.496 0.589 L 0.496 0 L 2.294 0.046499997 L 4.0765 0 L 4.0765 0.589 C 3.503 0.589 3.1464999 0.62 3.0379999 0.682 C 2.9294999 0.74399996 2.8675 0.93 2.8675 1.2245 L 2.8675 4.0145 C 2.8675 5.27 3.689 6.4014997 4.8824997 6.4014997 Z "/>
        </symbol>
        <symbol id="g3F848208E2721D0A8FE26DEDD13A247D" overflow="visible">
            <path d="M 4.1384997 0.27899998 C 3.069 0.27899998 2.8675 0.7285 2.8675 1.736 L 2.8675 6.851 L 0.496 6.6805 L 0.496 6.0915 C 1.1005 6.0915 1.457 6.0295 1.55 5.921 C 1.643 5.8125 1.6895 5.4249997 1.6895 4.743 L 1.6895 2.4645 C 1.6895 1.86 1.736 1.395 1.8445 1.0385 C 2.077 0.2325 2.9294999 -0.1705 4.061 -0.1705 C 4.898 -0.1705 5.5334997 0.217 5.9674997 1.0074999 L 5.9674997 -0.1705 L 8.2925 0 L 8.2925 0.589 C 7.7345 0.589 7.409 0.62 7.285 0.713 C 7.161 0.806 7.099 1.023 7.099 1.3795 L 7.099 6.851 L 4.743 6.6805 L 4.743 6.0915 C 5.2855 6.0915 5.611 6.045 5.735 5.9519997 C 5.8589997 5.8589997 5.921 5.6575 5.921 5.301 L 5.921 2.5885 C 5.921 1.364 5.27 0.27899998 4.1384997 0.27899998 Z "/>
        </symbol>
        <symbol id="g78CAFD98B8101D2DE7C3EC0DF482D00F" overflow="visible">
            <path d="M 2.2319999 0.046499997 L 3.9524999 0 L 3.9524999 0.6045 C 3.3945 0.6045 3.0535 0.62 2.945 0.682 C 2.8365 0.74399996 2.79 0.93 2.79 1.2245 L 2.79 10.757 L 0.5115 10.5865 L 0.5115 9.997499 C 1.054 9.997499 1.395 9.951 1.5035 9.858 C 1.612 9.764999 1.674 9.547999 1.674 9.1915 L 1.674 1.2245 C 1.674 0.93 1.6274999 0.74399996 1.5189999 0.682 C 1.4104999 0.62 1.0695 0.6045 0.5115 0.6045 L 0.5115 0 Z "/>
        </symbol>
        <symbol id="g7E57B62754DB3F461FA5B53E1DF0B06D" overflow="visible">
            <path d="M 5.146 1.953 L 5.146 2.883 L 4.65 2.883 L 4.65 1.984 C 4.65 1.209 4.371 0.341 3.689 0.341 C 3.0535 0.341 2.7435 0.868 2.7435 1.9219999 L 2.7435 6.1225 L 4.898 6.1225 L 4.898 6.7114997 L 2.7435 6.7114997 L 2.7435 9.5325 L 2.2475 9.5325 C 2.2319999 9.021 2.1855 8.5715 2.077 8.1685 C 1.8134999 7.1454997 1.209 6.6184998 0.2945 6.572 L 0.2945 6.1225 L 1.581 6.1225 L 1.581 1.953 C 1.581 1.0385 1.86 0.4495 2.4025 0.155 C 2.8209999 -0.062 3.2085 -0.1705 3.596 -0.1705 C 4.619 -0.1705 5.146 0.85249996 5.146 1.953 Z "/>
        </symbol>
        <symbol id="g18D67BD8B06F6A52DBE683214B2FCCA5" overflow="visible">
            <path d="M 8.88615 5.71795 C 8.88615 6.293 8.56065 6.727 7.9205003 7.0416503 C 7.41055 7.2912 6.8355002 7.41055 6.19535 7.41055 L 2.89695 7.41055 C 2.6474001 7.41055 2.50635 7.3780003 2.50635 7.12845 C 2.50635 7.0091 2.5823 6.95485 2.7342 6.9440002 L 3.2984002 6.9223003 C 3.43945 6.91145 3.50455 6.9223003 3.50455 6.8138003 L 2.0398 0.8897 C 1.98555 0.6727 1.87705 0.5425 1.7143 0.48825002 C 1.66005 0.4774 1.46475 0.46655002 1.13925 0.46655002 L 0.9548 0.46655002 C 0.83545 0.4557 0.77035004 0.3689 0.77035004 0.20615001 C 0.77035004 0.0651 0.8463 0 0.98735005 0 C 1.42135 0 1.9096 0.054250002 2.35445 0.0434 L 3.04885 0.03255 C 3.17905 0.03255 3.6239002 0 3.76495 0 C 3.9494002 0 4.0362 0.0868 4.0362 0.2604 C 4.0362 0.37975 3.9711 0.4557 3.8517501 0.46655002 L 3.6347501 0.46655002 C 3.2984002 0.46655002 3.1031 0.48825002 3.04885 0.53165 C 3.038 0.5425 3.038 0.5642 3.038 0.60760003 L 3.7432501 3.5154002 L 5.1754503 3.5154002 C 5.859 3.5154002 6.45575 3.22245 6.45575 2.5931501 C 6.45575 2.5172 6.4015 2.2676501 6.30385 1.85535 C 6.1845 1.3671 6.13025 1.085 6.13025 1.00905 C 6.13025 0.18445 6.86805 -0.21700001 7.7469 -0.21700001 C 8.0724 -0.21700001 8.397901 -0.075950004 8.7234 0.1953 C 9.048901 0.46655002 9.21165 0.7595 9.21165 1.07415 C 9.21165 1.1935 9.1357 1.2586 8.9838 1.2586 C 8.8753 1.2586 8.79935 1.1935 8.75595 1.0524501 C 8.625751 0.66185004 8.2677 0.1736 7.7903004 0.1736 C 7.49735 0.1736 7.3563004 0.3906 7.3563004 0.82460004 C 7.3563004 1.07415 7.38885 1.44305 7.4648004 1.9313 C 7.49735 2.1266 7.5082 2.3002 7.5082 2.44125 C 7.5082 3.00545 7.19355 3.4177501 6.5751 3.6781502 C 7.5733004 3.93855 8.88615 4.6438003 8.88615 5.71795 Z M 7.3563004 6.6185 C 7.5841503 6.47745 7.6926503 6.23875 7.6926503 5.8807 C 7.6926503 5.6311502 7.6384 5.37075 7.51905 5.08865 C 7.19355 4.2966 6.41235 3.9060001 5.1863003 3.9060001 L 3.8517501 3.9060001 L 4.5244503 6.6076503 C 4.58955 6.8355002 4.56785 6.91145 4.8174 6.9331503 L 5.5118003 6.9331503 C 6.34725 6.9331503 6.80295 6.9440002 7.3563004 6.6185 Z "/>
        </symbol>
        <symbol id="gCC360AB1487A75F91730C12D72A082F0" overflow="visible">
            <path d="M 0.465 0.6665 Q 0.465 1.1005 0.70524997 1.5189999 Q 0.94549996 1.9375 1.147 1.9375 Q 1.3019999 1.9375 1.3485 1.643 Q 1.3795 1.3175 1.69725 1.1005 Q 2.0149999 0.8835 2.3404999 0.8835 Q 2.48 0.8835 2.542 0.9145 Q 3.1155 1.1625 4.2935 2.8209999 Q 6.696 6.2 8.401 9.6875 L 8.6645 10.214499 L 8.7885 10.214499 Q 8.897 10.214499 8.912499 10.23 Q 8.9279995 10.2455 8.9279995 10.354 Q 8.9279995 10.415999 8.959 10.54 Q 9.083 10.788 9.47825 11.036 Q 9.8735 11.283999 10.23 11.283999 Q 10.478 11.283999 10.4625 11.036 L 10.4625 8.8505 Q 10.4625 6.3395 10.664 3.906 Q 10.7415 2.697 10.943 1.7515 Q 10.9585 1.674 11.01275 1.457 Q 11.066999 1.24 11.10575 1.085 Q 11.1445 0.93 11.16 0.8835 Q 11.2375 0.713 11.5164995 0.6045 L 11.687 0.6975 Q 12.214 0.94549996 12.4465 0.94549996 Q 12.6945 0.94549996 12.6945 0.7285 Q 12.679 0.6665 12.617 0.5425 Q 12.431 0.2945 11.7955 -0.062 Q 11.377 -0.27899998 11.051499 -0.37199998 Q 10.7725 -0.465 10.4625 -0.465 Q 9.951 -0.465 9.7185 -0.092999995 Q 9.6565 0 9.517 0.527 Q 9.3 1.426 9.207 2.1545 Q 9.176 2.449 9.1605 2.48 L 9.1605 2.5265 L 7.13 2.5265 L 5.0994997 2.542 L 4.898 2.2475 Q 4.3554997 1.4415 4.123 1.1625 Q 2.697 -0.775 1.8445 -0.775 Q 1.3019999 -0.775 0.8835 -0.36425 Q 0.465 0.046499997 0.465 0.6665 Z M 9.052 3.8595 Q 8.99 4.9909997 8.897 8.059999 L 8.897 9.0055 L 8.7265 8.68 Q 7.7035 6.6029997 6.3859997 4.495 Q 6.3085 4.371 6.11475 4.0765 Q 5.921 3.7819998 5.766 3.534 L 5.735 3.472 L 5.7504997 3.472 L 5.9365 3.534 L 6.0915 3.596 L 9.083 3.596 L 9.052 3.8595 Z "/>
        </symbol>
        <symbol id="g60010F48A9929A8F8EC71A19FE5A1643" overflow="visible">
            <path d="M 0.74399996 3.8595 C 0.74399996 0.93 3.1155 -1.4415 6.045 -1.4415 C 8.9745 -1.4415 11.346 0.93 11.346 3.8595 C 11.346 6.789 8.9745 9.1605 6.045 9.1605 C 3.1155 9.1605 0.74399996 6.789 0.74399996 3.8595 Z M 9.5325 0.899 L 6.5565 3.875 L 9.517 6.8355 C 10.198999 6.0295 10.617499 4.9909997 10.617499 3.8595 C 10.617499 2.728 10.214499 1.7049999 9.5325 0.899 Z M 3.069 7.3624997 C 3.875 8.044499 4.898 8.4475 6.0295 8.4475 C 7.161 8.4475 8.184 8.044499 8.99 7.3624997 L 6.0295 4.402 Z M 9.0055 0.37199998 C 8.1995 -0.31 7.161 -0.7285 6.0295 -0.7285 C 4.898 -0.7285 3.8595 -0.31 3.0535 0.37199998 L 6.0295 3.348 Z M 2.542 6.8355 L 5.5025 3.875 L 2.5265 0.899 C 1.8445 1.7049999 1.4415 2.728 1.4415 3.8595 C 1.4415 4.9909997 1.86 6.0295 2.542 6.8355 Z "/>
        </symbol>
    </defs>
</svg>
