<svg xmlns="http://www.w3.org/2000/svg" xmlns:xlink="http://www.w3.org/1999/xlink" x="0" y="0" width="661.333349609375" height="217.864599609375" style="
        width:661.333349609375px;
        height:217.864599609375px;
        background: #FFF;
        fill: none;
">
        <svg xmlns="http://www.w3.org/2000/svg"/>
        
        <svg xmlns="http://www.w3.org/2000/svg" class="role-diagram-draw-area"><g class="shapes-region" style="stroke: black; fill: none;"><g class="composite-shape"><path class="real" d=" M70,105 C70,102.24 72.24,100 75,100 C77.76,100 80,102.24 80,105 C80,107.76 77.76,110 75,110 C72.24,110 70,107.76 70,105 Z" style="stroke-width: 1; stroke: none; fill: rgb(0, 0, 255); fill-opacity: 1; stroke-opacity: 1;"/></g><g class="composite-shape"><path class="real" d=" M110,105 C110,102.24 112.24,100 115,100 C117.76,100 120,102.24 120,105 C120,107.76 117.76,110 115,110 C112.24,110 110,107.76 110,105 Z" style="stroke-width: 1; stroke: none; stroke-opacity: 1; fill: rgb(0, 0, 255); fill-opacity: 1;"/></g><g class="arrow-line"><path class="connection real" stroke-dasharray="" d="  M85,105 L100,105" style="stroke: rgb(0, 0, 0); stroke-width: 3; fill: none; fill-opacity: 1;"/><g stroke="none" transform="matrix(-1,1.2246467991473532e-16,-1.2246467991473532e-16,-1,104.99999999999999,105.00000000000001)" style="stroke: none; stroke-width: 3; fill: rgb(0, 0, 0);" fill="#000"><path d=" M8.57,-4.12 L0,0 L8.57,4.12 Z"/></g></g><g class="composite-shape"><path class="real" d=" M185,105 C185,102.24 187.24,100 190,100 C192.76,100 195,102.24 195,105 C195,107.76 192.76,110 190,110 C187.24,110 185,107.76 185,105 Z" style="stroke-width: 1; stroke: none; stroke-opacity: 1; fill: rgb(0, 0, 0); fill-opacity: 1;"/></g><g class="composite-shape"><path class="real" d=" M225,105 C225,102.24 227.24,100 230,100 C232.76,100 235,102.24 235,105 C235,107.76 232.76,110 230,110 C227.24,110 225,107.76 225,105 Z" style="stroke-width: 1; stroke: none; stroke-opacity: 1; fill: rgb(0, 0, 0); fill-opacity: 1;"/></g><g class="arrow-line"><path class="connection real" stroke-dasharray="" d="  M200,105 L215,105" style="stroke: rgb(0, 0, 255); stroke-width: 3; fill: rgb(0, 0, 255); fill-opacity: 1; stroke-opacity: 1;"/><g stroke="none" fill="rgb(0,0,255)" transform="matrix(-1,1.2246467991473532e-16,-1.2246467991473532e-16,-1,220,105)" style="stroke: none; fill: rgb(0, 0, 255); stroke-width: 3;" fill-opacity="1"><path d=" M8.57,-4.12 L0,0 L8.57,4.12 Z"/></g></g><g class="composite-shape"><path class="real" d=" M265,105 C265,102.24 267.24,100 270,100 C272.76,100 275,102.24 275,105 C275,107.76 272.76,110 270,110 C267.24,110 265,107.76 265,105 Z" style="stroke-width: 1; stroke: none; stroke-opacity: 1; fill: rgb(0, 0, 0); fill-opacity: 1;"/></g><g class="arrow-line"><path class="connection real" stroke-dasharray="" d="  M240,105 L255,105" style="stroke: rgb(0, 0, 255); stroke-width: 3; fill: rgb(0, 0, 0); fill-opacity: 1; stroke-opacity: 1;"/><g stroke="none" fill="rgb(0,0,255)" transform="matrix(-1,1.2246467991473532e-16,-1.2246467991473532e-16,-1,260,105)" style="stroke: none; fill: rgb(0, 0, 255); stroke-width: 3;" fill-opacity="1"><path d=" M8.57,-4.12 L0,0 L8.57,4.12 Z"/></g></g><g class="composite-shape"><path class="real" d=" M205,170 C205,167.24 207.24,165 210,165 C212.76,165 215,167.24 215,170 C215,172.76 212.76,175 210,175 C207.24,175 205,172.76 205,170 Z" style="stroke-width: 1; stroke: none; stroke-opacity: 1; fill: rgb(0, 0, 0); fill-opacity: 1;"/></g><g class="composite-shape"><path class="real" d=" M245,170 C245,167.24 247.24,165 250,165 C252.76,165 255,167.24 255,170 C255,172.76 252.76,175 250,175 C247.24,175 245,172.76 245,170 Z" style="stroke-width: 1; stroke: none; stroke-opacity: 1; fill: rgb(0, 0, 0); fill-opacity: 1;"/></g><g class="arrow-line"><path class="connection real" stroke-dasharray="" d="  M220,170 L235,170" style="stroke: rgb(0, 0, 255); stroke-opacity: 1; stroke-width: 3; fill: rgb(0, 0, 255); fill-opacity: 1;"/><g stroke="none" fill="rgb(0,0,255)" fill-opacity="1" transform="matrix(-1,1.2246467991473532e-16,-1.2246467991473532e-16,-1,239.99999999999997,170.00000000000003)" style="stroke: none; fill: rgb(0, 0, 255); stroke-width: 3;"><path d=" M8.57,-4.12 L0,0 L8.57,4.12 Z"/></g></g><g class="composite-shape"><path class="real" d=" M285,170 C285,167.24 287.24,165 290,165 C292.76,165 295,167.24 295,170 C295,172.76 292.76,175 290,175 C287.24,175 285,172.76 285,170 Z" style="stroke-width: 1; stroke: none; stroke-opacity: 1; fill: rgb(0, 0, 0); fill-opacity: 1;"/></g><g class="arrow-line"><path class="connection real" stroke-dasharray="" d="  M260,170 L275,170" style="stroke: rgb(0, 0, 255); stroke-opacity: 1; stroke-width: 3; fill: rgb(0, 0, 0); fill-opacity: 1;"/><g stroke="none" fill="rgb(0,0,255)" fill-opacity="1" transform="matrix(-1,1.2246467991473532e-16,-1.2246467991473532e-16,-1,280,170.00000000000003)" style="stroke: none; fill: rgb(0, 0, 255); stroke-width: 3;"><path d=" M8.57,-4.12 L0,0 L8.57,4.12 Z"/></g></g><g class="composite-shape"><path class="real" d=" M165,170 C165,167.24 167.24,165 170,165 C172.76,165 175,167.24 175,170 C175,172.76 172.76,175 170,175 C167.24,175 165,172.76 165,170 Z" style="stroke-width: 1; stroke: none; stroke-opacity: 1; fill: rgb(0, 0, 0); fill-opacity: 1;"/></g><g class="arrow-line"><path class="connection real" stroke-dasharray="" d="  M180,170 L195,170" style="stroke: rgb(0, 0, 255); stroke-opacity: 1; stroke-width: 3; fill: rgb(0, 0, 255); fill-opacity: 1;"/><g stroke="none" fill="rgb(0,0,255)" fill-opacity="1" transform="matrix(-1,1.2246467991473532e-16,-1.2246467991473532e-16,-1,199.99999999999997,170.00000000000003)" style="stroke: none; fill: rgb(0, 0, 255); stroke-width: 3;"><path d=" M8.57,-4.12 L0,0 L8.57,4.12 Z"/></g></g><g class="arrow-line"><path class="connection real" stroke-dasharray="" d="  M190,105 L170.59,168.09" style="stroke: rgb(0, 0, 0); stroke-width: 1; fill: none; fill-opacity: 1;"/><g stroke="#000" transform="matrix(0.2940403252323047,-0.9557930147983299,0.9557930147983299,0.2940403252323047,170,170)" style="stroke: rgb(0, 0, 0); stroke-width: 1;"><path d=" M10.93,-3.29 Q4.96,-0.45 0,0 Q4.96,0.45 10.93,3.29"/></g></g><g class="arrow-line"><path class="connection real" stroke-dasharray="" d="  M230,105 L249.41,168.09" style="stroke: rgb(0, 0, 0); stroke-width: 1; fill: none; fill-opacity: 1;"/><g stroke="#000" transform="matrix(-0.2940403252323042,-0.95579301479833,0.95579301479833,-0.2940403252323042,250,170)" style="stroke: rgb(0, 0, 0); stroke-width: 1;"><path d=" M10.93,-3.29 Q4.96,-0.45 0,0 Q4.96,0.45 10.93,3.29"/></g></g><g class="arrow-line"><path class="connection real" stroke-dasharray="" d="  M270,105 L289.41,168.09" style="stroke: rgb(0, 0, 0); stroke-width: 1; fill: none; fill-opacity: 1;"/><g stroke="#000" transform="matrix(-0.2940403252323042,-0.95579301479833,0.95579301479833,-0.2940403252323042,290,170)" style="stroke: rgb(0, 0, 0); stroke-width: 1;"><path d=" M10.93,-3.29 Q4.96,-0.45 0,0 Q4.96,0.45 10.93,3.29"/></g></g><g class="composite-shape"><path class="real" d=" M50,170 C50,167.24 52.24,165 55,165 C57.76,165 60,167.24 60,170 C60,172.76 57.76,175 55,175 C52.24,175 50,172.76 50,170 Z" style="stroke-width: 1; stroke: none; stroke-opacity: 1; fill: rgb(0, 0, 255); fill-opacity: 1;"/></g><g class="composite-shape"><path class="real" d=" M90,170 C90,167.24 92.24,165 95,165 C97.76,165 100,167.24 100,170 C100,172.76 97.76,175 95,175 C92.24,175 90,172.76 90,170 Z" style="stroke-width: 1; stroke: none; stroke-opacity: 1; fill: rgb(0, 0, 255); fill-opacity: 1;"/></g><g class="arrow-line"><path class="connection real" stroke-dasharray="" d="  M65,170 L80,170" style="stroke: rgb(0, 0, 0); stroke-width: 3; fill: none; fill-opacity: 1;"/><g stroke="none" fill="#000" transform="matrix(-1,1.2246467991473532e-16,-1.2246467991473532e-16,-1,84.99999999999999,170)" style="stroke: none; fill: rgb(0, 0, 0); stroke-width: 3;"><path d=" M8.57,-4.12 L0,0 L8.57,4.12 Z"/></g></g><g class="composite-shape"><path class="real" d=" M130,170 C130,167.24 132.24,165 135,165 C137.76,165 140,167.24 140,170 C140,172.76 137.76,175 135,175 C132.24,175 130,172.76 130,170 Z" style="stroke-width: 1; stroke: none; stroke-opacity: 1; fill: rgb(0, 0, 255); fill-opacity: 1;"/></g><g class="arrow-line"><path class="connection real" stroke-dasharray="" d="  M105,170 L120,170" style="stroke: rgb(0, 0, 0); stroke-width: 3; fill: none; fill-opacity: 1;"/><g stroke="none" fill="#000" transform="matrix(-1,1.2246467991473532e-16,-1.2246467991473532e-16,-1,124.99999999999999,170.00000000000003)" style="stroke: none; fill: rgb(0, 0, 0); stroke-width: 3;"><path d=" M8.57,-4.12 L0,0 L8.57,4.12 Z"/></g></g><g class="arrow-line"><path class="connection real" stroke-dasharray="" d="  M55,170 L74.41,106.91" style="stroke: rgb(0, 0, 255); stroke-width: 1; fill: none; fill-opacity: 1; stroke-opacity: 1;"/><g stroke="rgb(0,0,255)" transform="matrix(-0.2940403252323046,0.9557930147983299,-0.9557930147983299,-0.2940403252323046,75,105)" style="stroke: rgb(0, 0, 255); stroke-width: 1;" stroke-opacity="1"><path d=" M10.93,-3.29 Q4.96,-0.45 0,0 Q4.96,0.45 10.93,3.29"/></g></g><g class="arrow-line"><path class="connection real" stroke-dasharray="" d="  M95,170 L75.59,106.91" style="stroke: rgb(0, 0, 255); stroke-width: 1; fill: none; fill-opacity: 1; stroke-opacity: 1;"/><g stroke="rgb(0,0,255)" transform="matrix(0.29404032523230517,0.9557930147983298,-0.9557930147983298,0.29404032523230517,74.99999999999999,105)" style="stroke: rgb(0, 0, 255); stroke-width: 1;" stroke-opacity="1"><path d=" M10.93,-3.29 Q4.96,-0.45 0,0 Q4.96,0.45 10.93,3.29"/></g></g><g class="arrow-line"><path class="connection real" stroke-dasharray="" d="  M135,170 L115.59,106.91" style="stroke: rgb(0, 0, 255); stroke-width: 1; fill: none; fill-opacity: 1; stroke-opacity: 1;"/><g stroke="rgb(0,0,255)" transform="matrix(0.29404032523230517,0.9557930147983298,-0.9557930147983298,0.29404032523230517,115,105)" style="stroke: rgb(0, 0, 255); stroke-width: 1;" stroke-opacity="1"><path d=" M10.93,-3.29 Q4.96,-0.45 0,0 Q4.96,0.45 10.93,3.29"/></g></g><g class="arrow-line"><path class="connection real" stroke-dasharray="6 6" d="  M270,170 L250.59,106.91" style="stroke: rgb(0, 0, 255); stroke-opacity: 1; stroke-width: 1; fill: none; fill-opacity: 1;"/><g stroke="rgb(0,0,255)" stroke-opacity="1" transform="matrix(0.29404032523230517,0.9557930147983298,-0.9557930147983298,0.29404032523230517,250.00000000000003,105)" style="stroke: rgb(0, 0, 255); stroke-width: 1;"><path d=" M10.93,-3.29 Q4.96,-0.45 0,0 Q4.96,0.45 10.93,3.29"/></g></g><g class="arrow-line"><path class="connection real" stroke-dasharray="6 6" d="  M190,170 L209.41,106.91" style="stroke: rgb(0, 0, 255); stroke-opacity: 1; stroke-width: 1; fill: none; fill-opacity: 1;"/><g stroke="rgb(0,0,255)" stroke-opacity="1" transform="matrix(-0.2940403252323046,0.9557930147983299,-0.9557930147983299,-0.2940403252323046,210,105)" style="stroke: rgb(0, 0, 255); stroke-width: 1;"><path d=" M10.93,-3.29 Q4.96,-0.45 0,0 Q4.96,0.45 10.93,3.29"/></g></g><g class="arrow-line"><path class="connection real" stroke-dasharray="6 6" d="  M230,170 L210.59,106.91" style="stroke: rgb(0, 0, 255); stroke-opacity: 1; stroke-width: 1; fill: none; fill-opacity: 1;"/><g stroke="rgb(0,0,255)" stroke-opacity="1" transform="matrix(0.29404032523230517,0.9557930147983298,-0.9557930147983298,0.29404032523230517,210,105)" style="stroke: rgb(0, 0, 255); stroke-width: 1;"><path d=" M10.93,-3.29 Q4.96,-0.45 0,0 Q4.96,0.45 10.93,3.29"/></g></g><g/></g><g/><g/><g/></svg>
        <svg xmlns="http://www.w3.org/2000/svg" xmlns:xlink="http://www.w3.org/1999/xlink" width="660" height="216.53125" style="width:660px;height:216.53125px;font-family:Asana-Math, Asana;background:#FFF;"><g><g><g><g><g><g><g transform="matrix(1,0,0,1,84.0000244140625,77.83333740234374)"><path transform="matrix(0.017,0,0,-0.017,0,0)" d="M-33 6L-28 -4C79 0 185 0 292 0C393 0 494 -1 594 -4L602 6C560 116 534 238 504 354C475 466 442 580 424 697L399 697C336 587 53 127 -33 6ZM482 37L50 37C148 215 249 389 356 564L363 564C408 391 449 215 482 37Z" stroke="rgb(0,0,0)" stroke-opacity="1" stroke-width="8" fill="rgb(0,0,0)" fill-opacity="1"></path></g></g><g><g><g><g><g><g><g><text x="96.6666748046875" y="58.66666259765625" style="white-space:pre;stroke:none;fill:rgb(0,0,0);fill-opacity:1;font-size:10.5px;font-family:Arial, Helvetica, sans-serif;font-weight:400;font-style:normal;dominant-baseline:text-before-edge;text-decoration:none;">op</text></g></g></g></g></g></g><g><g><g><g transform="matrix(1,0,0,1,96.1979248046875,83.16041259765626)"><path transform="matrix(0.0119,0,0,-0.0119,0,0)" d="M604 241L604 300L364 300L364 538L305 538L305 300L65 300L65 241L305 241L305 0L364 0L364 241Z" stroke="rgb(0,0,0)" stroke-opacity="1" stroke-width="8" fill="rgb(0,0,0)" fill-opacity="1"></path></g></g></g></g></g></g></g></g></g></g><g><g><g><g><g><g><g transform="matrix(1,0,0,1,178.66667480468752,76.00001220703126)"><path transform="matrix(0.017,0,0,-0.017,0,0)" d="M97 694L97 0L361 0C505 0 610 90 610 188C610 275 523 346 417 363C508 386 583 444 583 520C583 612 476 694 334 694ZM180 391L180 638L306 638C417 638 505 585 505 519C505 459 434 391 296 391ZM180 56L180 330L325 330C431 330 529 269 529 189C529 114 441 56 333 56ZM828 680L739 680L739 591L828 591ZM821 444L746 444L746 0L821 0ZM1432 355C1397 264 1350 140 1339 93L1338 93C1333 114 1321 151 1306 193L1115 694L1002 694L1002 0L1080 0L1080 620L1081 620C1087 588 1127 479 1153 411L1301 22L1374 22L1507 370C1548 476 1592 597 1597 621L1598 620L1598 0L1676 0L1676 694L1562 694ZM2245 220C2245 354 2145 461 2026 461C1903 461 1806 351 1806 220C1806 88 1908 -11 2025 -11C2145 -11 2245 90 2245 220ZM2025 53C1956 53 1884 109 1884 230C1884 351 1960 400 2025 400C2095 400 2167 348 2167 230C2167 112 2099 53 2025 53ZM2709 694L2634 694L2634 400C2581 444 2525 455 2488 455C2389 455 2311 351 2311 222C2311 91 2388 -11 2483 -11C2516 -11 2575 -2 2631 52L2631 0L2709 0ZM2631 139C2631 125 2630 107 2598 78C2575 58 2550 50 2524 50C2462 50 2389 97 2389 221C2389 353 2475 394 2534 394C2579 394 2609 371 2631 339Z" stroke="rgb(0,0,0)" stroke-opacity="1" stroke-width="8" fill="rgb(0,0,0)" fill-opacity="1"></path></g></g><g><g><g><g><g transform="matrix(1,0,0,1,226.60417480468752,79.00416259765626)"><path transform="matrix(0.0119,0,0,-0.0119,0,0)" d="M-33 6L-28 -4C79 0 185 0 292 0C393 0 494 -1 594 -4L602 6C560 116 534 238 504 354C475 466 442 580 424 697L399 697C336 587 53 127 -33 6ZM482 37L50 37C148 215 249 389 356 564L363 564C408 391 449 215 482 37Z" stroke="rgb(0,0,0)" stroke-opacity="1" stroke-width="8" fill="rgb(0,0,0)" fill-opacity="1"></path></g></g><g><g><g><g><g transform="matrix(1,0,0,1,235.1458251953125,81.76751220703126)"><path transform="matrix(0.00833,0,0,-0.00833,0,0)" d="M604 241L604 300L364 300L364 538L305 538L305 300L65 300L65 241L305 241L305 0L364 0L364 241Z" stroke="rgb(0,0,0)" stroke-opacity="1" stroke-width="8" fill="rgb(0,0,0)" fill-opacity="1"></path></g></g></g></g></g></g></g></g><g><g transform="matrix(1,0,0,1,242.4270751953125,76.66666259765626)"><path transform="matrix(0.017,0,0,-0.017,0,0)" d="M146 266C146 526 243 632 301 700L282 726C225 675 60 542 60 266C60 159 85 58 133 -32C168 -99 200 -138 282 -215L301 -194C255 -137 146 -15 146 266Z" stroke="rgb(0,0,0)" stroke-opacity="1" stroke-width="8" fill="rgb(0,0,0)" fill-opacity="1"></path></g></g><g><g transform="matrix(1,0,0,1,248.0729248046875,76.66666259765626)"><path transform="matrix(0.017,0,0,-0.017,0,0)" d="M88 -184C88 -184 182 -183 182 -183C182 -183 282 -184 282 -184L288 -178L288 -152L284 -147L246 -147C219 -147 197 -141 185 -131C176 -122 173 -108 173 -75L173 616C173 649 176 664 185 673C197 683 219 689 246 689L284 689L288 694L288 720L282 726L188 723L88 726C84 717 83 706 83 691C83 665 87 628 87 578L87 -44C87 -112 85 -140 79 -171Z" stroke="rgb(0,0,0)" stroke-opacity="1" stroke-width="8" fill="rgb(0,0,0)" fill-opacity="1"></path></g></g><g><g transform="matrix(1,0,0,1,253.71877441406252,76.00001220703126)"><path transform="matrix(0.017,0,0,-0.017,0,0)" d="M263 689C108 689 29 566 29 324C29 207 50 106 85 57C120 8 176 -20 238 -20C389 -20 465 110 465 366C465 585 400 689 263 689ZM245 654C342 654 381 556 381 316C381 103 343 15 251 15C154 15 113 116 113 360C113 571 150 654 245 654Z" stroke="rgb(0,0,0)" stroke-opacity="1" stroke-width="8" fill="rgb(0,0,0)" fill-opacity="1"></path></g></g><g><g transform="matrix(1,0,0,1,262.2083251953125,76.66666259765626)"><path transform="matrix(0.017,0,0,-0.017,0,0)" d="M245 -184L254 -171C248 -140 246 -112 246 -44L246 578C246 628 250 665 250 691C250 706 249 717 245 726L51 726L45 720L45 694L49 689L87 689C114 689 136 683 148 673C157 664 160 649 160 616L160 -75C160 -108 157 -122 148 -131C136 -141 114 -147 87 -147L49 -147L45 -152L45 -178L51 -184Z" stroke="rgb(0,0,0)" stroke-opacity="1" stroke-width="8" fill="rgb(0,0,0)" fill-opacity="1"></path></g></g><g><g transform="matrix(1,0,0,1,267.8541748046875,76.66666259765626)"><path transform="matrix(0.017,0,0,-0.017,0,0)" d="M51 726L32 700C87 636 187 526 187 266C187 -10 83 -131 32 -194L51 -215C104 -165 273 -23 273 265C273 542 108 675 51 726Z" stroke="rgb(0,0,0)" stroke-opacity="1" stroke-width="8" fill="rgb(0,0,0)" fill-opacity="1"></path></g></g></g></g></g></g></g><g><g><g><g><g><g><g transform="matrix(1,0,0,1,143.76042480468752,76.00001220703126)"><path transform="matrix(0.017,0,0,-0.017,0,0)" d="M604 389L583 399C566 339 536 285 467 285C389 285 319 400 227 400C136 400 88 344 65 261L86 252C109 306 145 345 207 345C285 345 347 231 446 231C547 231 589 297 604 389ZM604 107L604 166L65 166L65 107Z" stroke="rgb(0,0,0)" stroke-opacity="1" stroke-width="8" fill="rgb(0,0,0)" fill-opacity="1"></path></g></g></g></g></g></g></g></svg>
</svg>
