<svg xmlns="http://www.w3.org/2000/svg" xmlns:xlink="http://www.w3.org/1999/xlink" viewBox="99 259 562 282" width="562" height="282">
<path d="M 200 400 C 200 440 200 440 200 480" fill="none" stroke="#222222ff" stroke-width="2"/>
<path d="M 120 320 C 160 360 160 360 200 400" fill="none" stroke="#222222ff" stroke-width="2"/>
<path d="M 200 320 C 200 360 200 360 200 400" fill="none" stroke="#222222ff" stroke-width="2"/>
<path d="M 280 320 C 240 360 240 360 200 400" fill="none" stroke="#222222ff" stroke-width="2"/>
<path d="M 480 520 C 480 480 480 480 480 440" fill="none" stroke="#222222ff" stroke-width="2"/>
<path d="M 360 280 C 400 320 440 360 440 360" fill="none" stroke="#222222ff" stroke-width="2"/>
<path d="M 440 360 C 440 400 480 400 480 440" fill="none" stroke="#222222ff" stroke-width="2"/>
<path d="M 480 280 C 480 320 440 360 440 360" fill="none" stroke="#222222ff" stroke-width="2"/>
<path d="M 560 360 C 600 320 600 320 640 280" fill="none" stroke="#222222ff" stroke-width="2"/>
<path d="M 480 440 C 520 400 520 400 560 360" fill="none" stroke="#222222ff" stroke-width="2"/>
<path d="M 520 320 C 360 320 400 360 440 440" fill="none" stroke="#2050e8ff" stroke-width="2"/>
<path d="M 440 440 C 480 520 520 440 560 400" fill="none" stroke="#2050e8ff" stroke-width="2"/>
<path d="M 520 320 C 600 320 600 360 560 400" fill="none" stroke="#2050e8ff" stroke-width="2"/>
<ellipse cx="200" cy="400" rx="20" ry="20" fill="#2050e8ff" stroke="#222222ff" stroke-width="1.5"/>
<g transform="translate(198.02 399.89) scale(0.0158)" fill="#222222" color="#222222"><defs><path id="MJX-1-TEX-N-A0" d=""></path></defs><g stroke="currentColor" fill="currentColor" stroke-width="0" transform="scale(1,-1)"><g data-mml-node="math"><g data-mml-node="mtext"><use data-c="A0" xlink:href="#MJX-1-TEX-N-A0"></use></g></g></g></g>
<ellipse cx="480" cy="440" rx="20" ry="20" fill="#ffffffff" stroke="#222222ff" stroke-width="1.5"/>
<g transform="translate(478.02 439.89) scale(0.0158)" fill="#222222" color="#222222"><defs><path id="MJX-1-TEX-N-A0" d=""></path></defs><g stroke="currentColor" fill="currentColor" stroke-width="0" transform="scale(1,-1)"><g data-mml-node="math"><g data-mml-node="mtext"><use data-c="A0" xlink:href="#MJX-1-TEX-N-A0"></use></g></g></g></g>
<ellipse cx="440" cy="360" rx="20" ry="20" fill="#ffffffff" stroke="#222222ff" stroke-width="1.5"/>
<g transform="translate(438.02 359.89) scale(0.0158)" fill="#222222" color="#222222"><defs><path id="MJX-1-TEX-N-A0" d=""></path></defs><g stroke="currentColor" fill="currentColor" stroke-width="0" transform="scale(1,-1)"><g data-mml-node="math"><g data-mml-node="mtext"><use data-c="A0" xlink:href="#MJX-1-TEX-N-A0"></use></g></g></g></g>
<ellipse cx="560" cy="360" rx="20" ry="20" fill="#ffffffff" stroke="#222222ff" stroke-width="1.5"/>
<g transform="translate(558.02 359.89) scale(0.0158)" fill="#222222" color="#222222"><defs><path id="MJX-1-TEX-N-A0" d=""></path></defs><g stroke="currentColor" fill="currentColor" stroke-width="0" transform="scale(1,-1)"><g data-mml-node="math"><g data-mml-node="mtext"><use data-c="A0" xlink:href="#MJX-1-TEX-N-A0"></use></g></g></g></g>
<g transform="translate(306.03 410.29) scale(0.0158)" fill="#222222" color="#222222"><defs><path id="MJX-3-TEX-N-27F6" d="M84 237T84 250T98 270H1444Q1328 357 1301 493Q1301 494 1301 496T1300 499Q1300 511 1317 511H1320Q1329 511 1332 510T1338 506T1341 497T1344 481T1352 456Q1374 389 1425 336T1544 261Q1553 258 1553 250Q1553 244 1548 241T1524 231T1486 212Q1445 186 1415 152T1370 85T1349 35T1341 4Q1339 -6 1336 -8T1320 -11Q1300 -11 1300 0Q1300 7 1305 25Q1337 151 1444 230H98Q84 237 84 250Z"></path></defs><g stroke="currentColor" fill="currentColor" stroke-width="0" transform="scale(1,-1)"><g data-mml-node="math"><g data-mml-node="mo"><use data-c="27F6" xlink:href="#MJX-3-TEX-N-27F6"></use></g></g></g></g>
</svg>
